<svg width="23" height="18" viewBox="0 0 23 18" fill="none" xmlns="http://www.w3.org/2000/svg">
<path d="M15.74 4.75999C16.2979 5.31723 16.7404 5.97896 17.0424 6.70735C17.3443 7.43574 17.4997 8.2165 17.4997 9.00499C17.4997 9.79349 17.3443 10.5742 17.0424 11.3026C16.7404 12.031 16.2979 12.6928 15.74 13.25M7.26 13.24C6.70214 12.6828 6.25959 12.021 5.95764 11.2926C5.6557 10.5642 5.50028 9.78349 5.50028 8.99499C5.50028 8.2065 5.6557 7.42574 5.95764 6.69735C6.25959 5.96896 6.70214 5.30723 7.26 4.74999M18.57 1.92999C20.4447 3.80527 21.4979 6.34835 21.4979 8.99999C21.4979 11.6516 20.4447 14.1947 18.57 16.07M4.43 16.07C2.55529 14.1947 1.50214 11.6516 1.50214 8.99999C1.50214 6.34835 2.55529 3.80527 4.43 1.92999" stroke="#6DE754" stroke-width="2" stroke-linecap="round" stroke-linejoin="round"/>
</svg>
