<svg width="21" height="20" viewBox="0 0 21 20" fill="none" xmlns="http://www.w3.org/2000/svg">
<path d="M6.5 1H3.5C2.96957 1 2.46086 1.21071 2.08579 1.58579C1.71071 1.96086 1.5 2.46957 1.5 3V6M19.5 6V3C19.5 2.46957 19.2893 1.96086 18.9142 1.58579C18.5391 1.21071 18.0304 1 17.5 1H14.5M14.5 19H17.5C18.0304 19 18.5391 18.7893 18.9142 18.4142C19.2893 18.0391 19.5 17.5304 19.5 17V14M1.5 14V17C1.5 17.5304 1.71071 18.0391 2.08579 18.4142C2.46086 18.7893 2.96957 19 3.5 19H6.5" stroke="#6DE754" stroke-width="2" stroke-linecap="round" stroke-linejoin="round"/>
</svg>
