<svg width="28" height="25" viewBox="0 0 28 25" fill="none" xmlns="http://www.w3.org/2000/svg">
<path d="M9.51658 5.73466H25.9823L16.9877 12.6599C16.7971 12.8065 16.5704 12.8781 16.3647 12.8977C16.1576 12.8778 15.9301 12.8062 15.7374 12.6599L9.30947 7.70913C9.24138 7.65544 9.1645 7.61449 9.07991 7.58902C9.38249 7.17051 9.55519 6.66425 9.54606 6.11875C9.54431 5.99382 9.53308 5.8651 9.51658 5.73466ZM5.32923 1.28083C5.34995 1.28427 5.38399 1.29701 5.45806 1.33074C5.60444 1.39888 5.83716 1.5744 6.06498 1.8191C6.52376 2.30919 6.9822 3.05156 7.22019 3.54165C7.22756 3.5561 7.23528 3.57193 7.2423 3.58811C7.91767 4.72419 8.20902 5.59321 8.2178 6.13837C8.22727 6.68593 8.07739 6.92168 7.60386 7.18841L6.3823 7.8788C5.58653 8.32794 5.21059 9.13294 5.11722 9.8839C5.02349 10.6352 5.16145 11.3652 5.50229 11.9424L8.51757 17.0377C8.85911 17.6145 9.44216 18.097 10.1551 18.3934C10.8687 18.6904 11.7712 18.7744 12.567 18.3263L13.7885 17.6372C14.2617 17.3712 14.5478 17.3657 15.0283 17.6458C15.5103 17.9267 16.1362 18.605 16.8087 19.7418C16.8182 19.7587 16.8273 19.7728 16.8382 19.7889C17.1534 20.2346 17.5827 20.9908 17.7898 21.624C17.8927 21.9386 17.933 22.2229 17.92 22.3802C17.9057 22.5381 17.9021 22.522 17.8597 22.5467L16.9302 23.0692C14.5952 24.0621 12.455 23.838 10.5423 22.8654C8.62603 21.8887 6.96043 20.1249 5.79925 18.054C5.79539 18.0499 5.79364 18.0447 5.79048 18.042L3.24697 13.7441C3.24276 13.7399 3.241 13.7361 3.23749 13.7306C1.97908 11.7138 1.24579 9.4241 1.33776 7.31747C1.42973 5.21394 2.30026 3.29626 4.35094 1.82083L5.28079 1.3001C5.30221 1.28806 5.30923 1.27877 5.32923 1.28083ZM5.33871 0.000196701C5.09265 -0.00358911 4.84166 0.047003 4.61596 0.175376L3.63274 0.729825C3.61063 0.742215 3.59027 0.754949 3.57026 0.767339C1.20472 2.46476 0.115503 4.82779 0.0091434 7.26344C-0.0972163 9.69806 0.731898 12.2108 2.10159 14.4076L4.63667 18.6907L4.6307 18.678C5.89614 20.9326 7.70952 22.8885 9.92552 24.0153C12.1426 25.1438 14.7837 25.4054 17.4739 24.2552C17.496 24.2459 17.5185 24.2356 17.5385 24.2235L18.5231 23.6691C18.9784 23.4151 19.2072 22.9208 19.2445 22.4893C19.2827 22.0591 19.1932 21.6402 19.0574 21.2276C18.7913 20.4115 18.3272 19.6189 17.9439 19.0752C17.2198 17.8537 16.5205 17.006 15.7125 16.5321C14.8981 16.0561 13.9205 16.063 13.123 16.5125L11.9014 17.2029C11.5406 17.4066 11.1186 17.3829 10.6746 17.1988C10.2327 17.0146 9.82337 16.6464 9.67138 16.3883L6.6561 11.2933C6.50375 11.0338 6.37914 10.5044 6.43811 10.0377C6.49498 9.57244 6.68769 9.20797 7.04889 9.00388L8.2357 8.33482C8.26659 8.49073 8.35645 8.63218 8.48668 8.72717L14.9149 13.679C15.333 14.0011 15.8283 14.1805 16.3271 14.2087C16.3524 14.21 16.3784 14.21 16.404 14.2087C16.9031 14.1805 17.396 14.0008 17.8144 13.679L26.6679 6.85973V18.1256C26.6679 18.297 26.4685 18.5228 26.0774 18.5228H19.9483C19.5793 18.5207 19.2806 18.8126 19.2806 19.1722C19.2806 19.5312 19.5797 19.823 19.9483 19.821H26.0774C27.0793 19.821 28 19.1109 28 18.1256V6.13183C28 5.1458 27.0793 4.43613 26.0774 4.43613H9.15187C8.96442 3.97667 8.71695 3.48968 8.40524 2.96035C8.11354 2.36495 7.64036 1.57785 7.04819 0.944927C6.74912 0.624166 6.42653 0.339887 6.02321 0.156103V0.157824C5.82277 0.0648996 5.58443 0.00535916 5.33871 0.000196701Z" fill="white"/>
</svg>
