<svg width="32" height="32" viewBox="0 0 32 32" fill="none" xmlns="http://www.w3.org/2000/svg">
<g clip-path="url(#clip0_14_4442)">
<path d="M32 16C32 7.16344 24.8366 0 16 0C7.16344 0 0 7.16344 0 16C0 24.8366 7.16344 32 16 32C24.8366 32 32 24.8366 32 16Z" fill="url(#paint0_linear_14_4442)"/>
<path d="M19.7895 7.5791H12.2106C10.9822 7.5791 9.80413 8.06707 8.93554 8.93566C8.06695 9.80425 7.57898 10.9823 7.57898 12.2107V19.7896C7.57898 21.018 8.06695 22.1961 8.93554 23.0646C9.80413 23.9332 10.9822 24.4212 12.2106 24.4212H19.7895C21.0179 24.4212 22.1959 23.9332 23.0645 23.0646C23.9331 22.1961 24.4211 21.018 24.4211 19.7896V12.2107C24.4211 10.9823 23.9331 9.80425 23.0645 8.93566C22.1959 8.06707 21.0179 7.5791 19.7895 7.5791ZM22.9474 19.1244C22.9474 20.1383 22.5446 21.1108 21.8276 21.8277C21.1106 22.5447 20.1382 22.9475 19.1242 22.9475H12.8758C11.8619 22.9475 10.8894 22.5447 10.1724 21.8277C9.45546 21.1108 9.05266 20.1383 9.05266 19.1244V12.8759C9.05266 11.862 9.45546 10.8895 10.1724 10.1726C10.8894 9.45558 11.8619 9.05279 12.8758 9.05279H19.1242C20.1382 9.05279 21.1106 9.45558 21.8276 10.1726C22.5446 10.8895 22.9474 11.862 22.9474 12.8759V19.1244Z" fill="white"/>
<path d="M19.0716 12.9602L18.9979 12.8865C18.2019 12.0932 17.1238 11.648 16 11.6486C15.4325 11.6524 14.8714 11.7681 14.3486 11.9889C13.8258 12.2097 13.3516 12.5313 12.9532 12.9354C12.5547 13.3395 12.2398 13.8182 12.0264 14.3441C11.813 14.8699 11.7053 15.4327 11.7095 16.0002C11.7086 17.1518 12.1626 18.2573 12.9727 19.0759C13.3694 19.4775 13.8422 19.7961 14.3635 20.013C14.8847 20.2298 15.4439 20.3407 16.0085 20.3391C16.8553 20.3213 17.6786 20.0575 18.3781 19.5799C19.0776 19.1022 19.6229 18.4314 19.9477 17.6491C20.2724 16.8668 20.3625 16.0069 20.2069 15.1743C20.0514 14.3417 19.6569 13.5724 19.0716 12.9602ZM16 18.8549C15.4338 18.8628 14.878 18.7022 14.4033 18.3933C13.9286 18.0845 13.5565 17.6415 13.3343 17.1206C13.112 16.5997 13.0498 16.0245 13.1554 15.4681C13.261 14.9118 13.5296 14.3994 13.9272 13.9961C14.3248 13.5929 14.8334 13.317 15.3882 13.2036C15.9431 13.0901 16.5191 13.1443 17.0431 13.3591C17.567 13.574 18.0153 13.9398 18.3307 14.4101C18.6462 14.8804 18.8147 15.4338 18.8148 16.0002C18.8175 16.3725 18.7469 16.7417 18.6069 17.0867C18.467 17.4317 18.2604 17.7457 17.999 18.0108C17.7376 18.2759 17.4265 18.4869 17.0835 18.6318C16.7405 18.7766 16.3723 18.8524 16 18.8549Z" fill="white"/>
<path d="M21.5642 11.4486C21.5654 11.5837 21.5398 11.7177 21.4891 11.8429C21.4383 11.9681 21.3634 12.082 21.2686 12.1783C21.1737 12.2745 21.0608 12.351 20.9364 12.4035C20.8119 12.4561 20.6783 12.4835 20.5432 12.4844C20.4092 12.4843 20.2766 12.4577 20.153 12.406C20.0294 12.3543 19.9173 12.2786 19.8232 12.1833C19.6806 12.0386 19.5836 11.8552 19.5442 11.6559C19.5048 11.4566 19.5248 11.2501 19.6017 11.062C19.6786 10.8739 19.809 10.7126 19.9767 10.5979C20.1444 10.4832 20.3421 10.4203 20.5453 10.417C20.7831 10.417 21.0133 10.5004 21.1958 10.6528L21.2169 10.6738C21.2508 10.7015 21.2819 10.7325 21.3095 10.7665L21.3327 10.7917C21.4834 10.9774 21.5652 11.2095 21.5642 11.4486Z" fill="white"/>
</g>
<defs>
<linearGradient id="paint0_linear_14_4442" x1="4.68632" y1="4.68632" x2="27.3137" y2="27.3137" gradientUnits="userSpaceOnUse">
<stop stop-color="#FAE100"/>
<stop offset="0.15" stop-color="#FCB720"/>
<stop offset="0.3" stop-color="#FF7950"/>
<stop offset="0.5" stop-color="#FF1C74"/>
<stop offset="1" stop-color="#6C1CD1"/>
</linearGradient>
<clipPath id="clip0_14_4442">
<rect width="32" height="32" fill="white"/>
</clipPath>
</defs>
</svg>
