<svg width="32" height="32" viewBox="0 0 32 32" fill="none" xmlns="http://www.w3.org/2000/svg">
<circle cx="16" cy="16" r="16" fill="#0077B5"/>
<path d="M11.7862 23.2496V13.1288H8.35634V23.2496H11.7866H11.7862ZM10.072 11.7472C11.2678 11.7472 12.0123 10.9701 12.0123 9.99883C11.9899 9.00547 11.2678 8.25 10.0947 8.25C8.92086 8.25 8.15417 9.00547 8.15417 9.99874C8.15417 10.97 8.89839 11.7471 10.0495 11.7471H10.0717L10.072 11.7472ZM13.6847 23.2496H17.1143V17.5983C17.1143 17.2962 17.1367 16.9934 17.2273 16.7776C17.4752 16.173 18.0395 15.5471 18.9872 15.5471C20.228 15.5471 20.7246 16.4752 20.7246 17.8359V23.2496H24.1542V17.4467C24.1542 14.3381 22.4623 12.8915 20.2058 12.8915C18.3557 12.8915 17.5432 13.9057 17.0918 14.5965H17.1146V13.1292H13.6849C13.7297 14.0786 13.6846 23.25 13.6846 23.25L13.6847 23.2496Z" fill="white"/>
</svg>
