<svg width="21" height="21" viewBox="0 0 21 21" fill="none" xmlns="http://www.w3.org/2000/svg">
<g opacity="0.4">
<path d="M10.4946 21C6.4968 21.0004 2.81033 18.7121 1.04472 15.1104C-0.741916 11.4648 -0.200953 6.91806 2.39146 3.79659C4.98105 0.678353 9.1911 -0.682266 13.1161 0.330222C13.5483 0.441688 13.8083 0.882304 13.6971 1.31444C13.5855 1.74657 13.144 2.00585 12.7118 1.89479C9.39164 1.0382 5.82808 2.18921 3.63633 4.82846C1.44336 7.46933 0.985689 11.3161 2.49739 14.4009C4.00344 17.4735 7.32563 19.475 10.7356 19.3821C14.1451 19.2892 17.2392 17.2178 18.6183 14.1052C19.4282 12.2773 19.5996 10.2075 19.1003 8.27666C18.9887 7.84493 19.2486 7.40431 19.6813 7.29244C20.1127 7.18057 20.5546 7.44066 20.6666 7.87279C21.256 10.1542 21.0543 12.6 20.0977 14.7591C18.4675 18.4383 14.8098 20.8869 10.78 20.9968C10.6846 20.9988 10.5892 21 10.4946 21Z" fill="#CA0000"/>
<path d="M10.4881 13.0184C10.2811 13.0184 10.0741 12.9397 9.91642 12.7817C9.60066 12.4663 9.60066 11.955 9.91642 11.6396L19.6198 1.94687C19.9352 1.63146 20.4478 1.63146 20.7632 1.94687C21.0789 2.26229 21.0789 2.77358 20.7632 3.089L11.0598 12.7817C10.9021 12.9393 10.6951 13.0184 10.4881 13.0184Z" fill="#CA0000"/>
<path d="M10.4881 13.0184C10.2811 13.0184 10.0741 12.9397 9.91642 12.7817L6.48588 9.35495C6.17012 9.03953 6.17012 8.52824 6.48588 8.21282C6.80124 7.8974 7.3139 7.8974 7.62926 8.21282L11.0598 11.6396C11.3756 11.955 11.3756 12.4663 11.0598 12.7817C10.9021 12.9393 10.6951 13.0184 10.4881 13.0184Z" fill="#CA0000"/>
</g>
</svg>
