<svg width="18" height="10" viewBox="0 0 18 10" fill="none" xmlns="http://www.w3.org/2000/svg">
<path d="M1.5 4.375C1.15482 4.375 0.875 4.65482 0.875 5C0.875 5.34518 1.15482 5.625 1.5 5.625V4.375ZM16.9419 5.44194C17.186 5.19786 17.186 4.80214 16.9419 4.55806L12.9645 0.580583C12.7204 0.336505 12.3247 0.336505 12.0806 0.580583C11.8365 0.82466 11.8365 1.22039 12.0806 1.46447L15.6161 5L12.0806 8.53553C11.8365 8.77961 11.8365 9.17534 12.0806 9.41942C12.3247 9.6635 12.7204 9.6635 12.9645 9.41942L16.9419 5.44194ZM1.5 5V5.625H16.5V5V4.375H1.5V5Z" fill="white"/>
</svg>
