<svg width="28" height="28" viewBox="0 0 28 28" fill="none" xmlns="http://www.w3.org/2000/svg">
<mask id="mask0_2084_661" style="mask-type:alpha" maskUnits="userSpaceOnUse" x="0" y="0" width="28" height="28">
<rect width="28" height="28" fill="#D9D9D9"/>
</mask>
<g mask="url(#mask0_2084_661)">
<path d="M3.97256 13.3737C4.30334 10.8928 4.46874 9.65236 5.3172 8.90951C6.16567 8.16666 7.41709 8.16666 9.91993 8.16666H18.0804C20.5832 8.16666 21.8347 8.16666 22.6831 8.90951C23.5316 9.65236 23.697 10.8928 24.0278 13.3737L24.7611 18.8737C25.1829 22.0372 25.3938 23.619 24.4974 24.6428C23.6011 25.6667 22.0053 25.6667 18.8137 25.6667H9.1866C5.99505 25.6667 4.39927 25.6667 3.50289 24.6428C2.60652 23.619 2.81742 22.0372 3.23923 18.8737L3.97256 13.3737Z" stroke="#FFD302" stroke-width="1.5" stroke-linecap="round"/>
<path d="M9.3335 7L9.58316 5.87653C10.0432 3.80629 11.8794 2.33333 14.0002 2.33333C16.1209 2.33333 17.9571 3.80629 18.4172 5.87653L18.6668 7" stroke="#FFD302" stroke-width="1.5" stroke-linecap="round" stroke-linejoin="round"/>
<path d="M18.6665 12.8333L18.4168 13.9568C17.9568 16.027 16.1206 17.5 13.9998 17.5C11.8791 17.5 10.0429 16.027 9.58283 13.9568L9.33317 12.8333" stroke="#FFD302" stroke-width="1.5" stroke-linecap="round" stroke-linejoin="round"/>
</g>
</svg>
