<svg width="22" height="22" viewBox="0 0 22 22" fill="none" xmlns="http://www.w3.org/2000/svg">
<path fill-rule="evenodd" clip-rule="evenodd" d="M8.9375 1.62382C7.97721 1.62382 7.02632 1.81297 6.13913 2.18045C5.25193 2.54794 4.44581 3.08658 3.76678 3.7656C3.08775 4.44463 2.54912 5.25076 2.18163 6.13795C1.81414 7.02514 1.625 7.97603 1.625 8.93632C1.625 9.89661 1.81414 10.8475 2.18163 11.7347C2.54912 12.6219 3.08775 13.428 3.76678 14.107C4.44581 14.7861 5.25193 15.3247 6.13913 15.6922C7.02632 16.0597 7.97721 16.2488 8.9375 16.2488C10.8769 16.2488 12.7369 15.4784 14.1082 14.107C15.4796 12.7357 16.25 10.8757 16.25 8.93632C16.25 6.99693 15.4796 5.13696 14.1082 3.7656C12.7369 2.39424 10.8769 1.62382 8.9375 1.62382ZM5.40392e-08 8.93632C0.000189552 7.50101 0.34606 6.08685 1.00836 4.81348C1.67065 3.5401 2.62989 2.44497 3.80492 1.6207C4.97996 0.796439 6.33623 0.267299 7.75901 0.0780397C9.18179 -0.111219 10.6292 0.0449713 11.9789 0.533399C13.3285 1.02183 14.5407 1.82812 15.5128 2.88409C16.485 3.94005 17.1885 5.21461 17.5639 6.59996C17.9393 7.98531 17.9755 9.4407 17.6695 10.843C17.3635 12.2453 16.7242 13.5533 15.8058 14.6563L20.8867 19.7372C20.9665 19.8115 21.0305 19.9012 21.0749 20.0009C21.1193 20.1006 21.1432 20.2082 21.1451 20.3173C21.1471 20.4264 21.127 20.5347 21.0861 20.6359C21.0453 20.7371 20.9844 20.829 20.9073 20.9061C20.8301 20.9833 20.7382 21.0441 20.6371 21.085C20.5359 21.1258 20.4275 21.1459 20.3184 21.144C20.2093 21.142 20.1017 21.1182 20.0021 21.0738C19.9024 21.0293 19.8127 20.9653 19.7383 20.8855L14.6575 15.8047C13.3523 16.8918 11.7644 17.5844 10.0797 17.8015C8.39499 18.0186 6.68332 17.7511 5.14519 17.0303C3.60707 16.3096 2.30618 15.1655 1.39493 13.7319C0.483686 12.2984 -0.000186701 10.6349 5.40392e-08 8.93632Z" fill="#55AA12"/>
</svg>
