<svg width="30" height="19" viewBox="0 0 30 19" fill="none" xmlns="http://www.w3.org/2000/svg">
<path d="M27.2884 7.86866L26.5285 4.82925C26.7363 4.78512 26.8922 4.60081 26.8922 4.38V3.88994C26.8922 2.82593 26.0265 1.96033 24.9625 1.96033H21.5015V0.949504C21.5015 0.425924 21.0756 0 20.552 0H2.90972C2.38614 0 1.96021 0.425924 1.96021 0.949504V9.28059C1.96021 9.5343 2.1659 9.74004 2.41967 9.74004C2.67337 9.74004 2.87912 9.53436 2.87912 9.28059V0.949504C2.87912 0.932598 2.89281 0.918901 2.90972 0.918901H20.5519C20.5688 0.918901 20.5825 0.932598 20.5825 0.949504V9.28071C20.5825 9.53442 20.7882 9.74016 21.042 9.74016C21.2957 9.74016 21.5014 9.53447 21.5014 9.28071V8.75988H26.9212C26.9216 8.75988 26.922 8.75999 26.9224 8.75999C26.9228 8.75999 26.9232 8.75993 26.9236 8.75993C27.5905 8.76039 28.1568 9.19812 28.3513 9.8013H26.9227C26.669 9.8013 26.4632 10.007 26.4632 10.2608V11.2409C26.4632 12.0347 27.109 12.6804 27.9028 12.6804H28.4235V14.7019H27.2222C26.8276 13.5624 25.7444 12.7416 24.4724 12.7416C23.2004 12.7416 22.1171 13.5624 21.7225 14.7019H21.5013V11.2408C21.5013 10.9871 21.2956 10.7814 21.0419 10.7814C20.7882 10.7814 20.5824 10.987 20.5824 11.2408V14.7018H11.0503C10.6556 13.5623 9.57241 12.7415 8.30043 12.7415C7.02844 12.7415 5.94518 13.5623 5.5506 14.7018H2.90972C2.89281 14.7018 2.87912 14.6881 2.87912 14.6712V13.6604H4.86999C5.1237 13.6604 5.32944 13.4547 5.32944 13.201C5.32944 12.9472 5.12376 12.7415 4.86999 12.7415H0.459451C0.205741 12.7415 0 12.9472 0 13.201C0 13.4547 0.205684 13.6604 0.459451 13.6604H1.96027V14.6712C1.96027 15.1948 2.3862 15.6207 2.90978 15.6207H5.39151C5.39139 15.6309 5.39071 15.641 5.39071 15.6513C5.39071 17.2557 6.69605 18.561 8.30043 18.561C9.90481 18.561 11.2101 17.2557 11.2101 15.6513C11.2101 15.641 11.2095 15.6309 11.2093 15.6207H21.5635C21.5633 15.6309 21.5627 15.641 21.5627 15.6513C21.5627 17.2557 22.868 18.561 24.4724 18.561C26.0768 18.561 27.3821 17.2557 27.3821 15.6513C27.3821 15.641 27.3814 15.6309 27.3813 15.6207H28.883C29.1367 15.6207 29.3424 15.415 29.3424 15.1612V10.2606C29.3425 9.05072 28.4498 8.04546 27.2884 7.86866ZM21.5015 2.87917H24.9625C25.5199 2.87917 25.9733 3.33261 25.9733 3.88994V3.92055H21.5015V2.87917ZM21.5015 7.84103V4.83939H25.5839L26.3344 7.84103H21.5015ZM8.30043 17.6423C7.20266 17.6423 6.30955 16.7492 6.30955 15.6514C6.30955 14.5536 7.20266 13.6605 8.30043 13.6605C9.39819 13.6605 10.2913 14.5536 10.2913 15.6514C10.2913 16.7492 9.39819 17.6423 8.30043 17.6423ZM24.4725 17.6423C23.3747 17.6423 22.4816 16.7492 22.4816 15.6514C22.4816 14.5536 23.3747 13.6605 24.4725 13.6605C25.5703 13.6605 26.4634 14.5536 26.4634 15.6514C26.4634 16.7492 25.5703 17.6423 24.4725 17.6423ZM28.4236 11.7615H27.9029C27.6158 11.7615 27.3822 11.5279 27.3822 11.2408V10.7201H28.4236L28.4236 11.7615Z" fill="#BDF491"/>
<path d="M8.30043 14.7019C7.77685 14.7019 7.35092 15.1278 7.35092 15.6514C7.35092 16.175 7.77685 16.6009 8.30043 16.6009C8.82401 16.6009 9.24993 16.175 9.24993 15.6514C9.24993 15.1278 8.82401 14.7019 8.30043 14.7019Z" fill="#BDF491"/>
<path d="M24.4725 14.7019C23.9489 14.7019 23.523 15.1278 23.523 15.6514C23.523 16.175 23.9489 16.6009 24.4725 16.6009C24.9961 16.6009 25.422 16.175 25.422 15.6514C25.422 15.1278 24.9961 14.7019 24.4725 14.7019Z" fill="#BDF491"/>
<path d="M19.0818 12.7417H12.2209C11.9672 12.7417 11.7615 12.9474 11.7615 13.2011C11.7615 13.4549 11.9671 13.6606 12.2209 13.6606H19.0818C19.3355 13.6606 19.5412 13.4549 19.5412 13.2011C19.5412 12.9474 19.3355 12.7417 19.0818 12.7417Z" fill="#BDF491"/>
<path d="M7.32032 10.7814H1.43956C1.18585 10.7814 0.980107 10.9871 0.980107 11.2409C0.980107 11.4946 1.18579 11.7003 1.43956 11.7003H7.32032C7.57403 11.7003 7.77977 11.4946 7.77977 11.2409C7.77977 10.9871 7.57403 10.7814 7.32032 10.7814Z" fill="#BDF491"/>
<path d="M15.9762 4.5451C15.7969 4.36573 15.5059 4.36573 15.3265 4.54516L11.2408 8.63082L9.11537 6.50538C8.93593 6.32594 8.64503 6.32594 8.46565 6.50538C8.28621 6.68481 8.28621 6.97566 8.46565 7.15509L10.916 9.60542C11.0057 9.69517 11.1233 9.73998 11.2408 9.73998C11.3583 9.73998 11.476 9.69517 11.5656 9.60542L15.9762 5.19488C16.1556 5.01539 16.1556 4.72454 15.9762 4.5451Z" fill="#BDF491"/>
</svg>
