<svg width="18" height="24" viewBox="0 0 18 24" fill="none" xmlns="http://www.w3.org/2000/svg">
<path d="M17.6 18.7V23.5H16.1V18.7C16.1 17.8 15.8 17 15.2 16.4C14.6 15.8 13.8 15.5 12.9 15.5H4.8C3.9 15.5 3.1 15.8 2.5 16.4C1.9 17 1.6 17.8 1.6 18.7V23.5H0V18.7C0 17.4 0.5 16.3 1.4 15.4C2.3 14.5 3.5 14 4.7 14H12.8C14.1 14 15.2 14.5 16.1 15.4C17 16.3 17.6 17.4 17.6 18.7Z" fill="#55AA12"/>
<path d="M13.6 2.5C13 1.5 12.1 0.8 11 0.4C10.3 0.1 9.49999 0 8.79999 0C8.39999 0 7.99999 2.23517e-08 7.69999 0.1C6.59999 0.3 5.59999 0.9 4.69999 1.7C3.89999 2.5 3.39999 3.5 3.09999 4.7C2.89999 5.7 2.99999 6.9 3.49999 7.9C3.89999 8.9 4.69999 9.9 5.59999 10.5C6.49999 11.1 7.59999 11.5 8.79999 11.5C10.3 11.5 11.8 10.9 12.9 9.8C14 8.7 14.6 7.3 14.6 5.7C14.6 4.6 14.2 3.5 13.6 2.5ZM12.3 8.1C11.8 8.8 11.2 9.3 10.4 9.7C9.89999 9.9 9.29999 10 8.79999 10C8.49999 10 8.29999 10 7.99999 9.9C7.09999 9.7 6.39999 9.3 5.79999 8.7C5.19999 8.1 4.79999 7.4 4.59999 6.5C4.49999 5.7 4.59999 4.9 4.89999 4.1C5.19999 3.3 5.79999 2.7 6.49999 2.2C7.09999 1.7 7.99999 1.5 8.79999 1.5C9.89999 1.5 11 1.9 11.8 2.7C12.6 3.5 13 4.6 13 5.7C13 6.5 12.8 7.4 12.3 8.1Z" fill="#55AA12"/>
</svg>
