<svg width="22" height="22" viewBox="0 0 22 22" fill="none" xmlns="http://www.w3.org/2000/svg">
<path d="M11 5.90199C12.1447 5.90199 13.2263 6.27277 14.1277 6.9742C14.2681 7.08363 14.4706 7.05829 14.5798 6.9178C14.6893 6.77731 14.6639 6.57489 14.5234 6.46562C13.5078 5.67523 12.2894 5.25746 11 5.25746C7.83357 5.25746 5.25763 7.83357 5.25763 11C5.25763 13.7596 7.21422 16.0703 9.81282 16.6188C9.82004 16.6205 9.82742 16.6222 9.83481 16.6235C10.5999 16.7818 11.397 16.7825 12.1652 16.6235C12.1726 16.6222 12.18 16.6207 12.1872 16.6188C14.7858 16.0703 16.7425 13.7596 16.7425 11C16.7425 9.77036 16.359 8.59744 15.6336 7.60799C15.5283 7.46448 15.3268 7.43343 15.1832 7.53867C15.0396 7.64391 15.0085 7.84566 15.1138 7.98917C15.7576 8.86717 16.098 9.90833 16.098 11C16.098 13.3144 14.5474 15.2734 12.4307 15.8932V12.7683C12.7355 12.6172 13.0179 12.4176 13.2673 12.1717C14.7557 10.7038 14.4874 8.21022 12.6721 7.10965C12.498 7.00407 12.2798 7.00055 12.1026 7.10042C11.9255 7.20012 11.8156 7.38828 11.8156 7.59137V9.45061L10.9794 10.2499L10.1844 9.45497V7.59137C10.1844 7.38828 10.0745 7.20012 9.89742 7.10042C9.72017 7.00055 9.5018 7.00424 9.32758 7.10982C7.54253 8.19226 7.21439 10.6918 8.75304 12.1857C8.99725 12.4228 9.27286 12.6164 9.56928 12.7642V13.8443C9.56928 14.0222 9.71362 14.1666 9.89154 14.1666C10.0696 14.1666 10.2138 14.0222 10.2138 13.8443V13.0039C10.7333 13.135 11.2759 13.1327 11.7862 13.0058V16.0372C11.6336 16.0609 11.4789 16.0777 11.3223 16.0874V14.2739C11.3223 14.0959 11.1779 13.9516 11 13.9516C10.8221 13.9516 10.6777 14.0959 10.6777 14.2739V16.0874C10.5211 16.0775 10.3664 16.0609 10.2138 16.0372V15.3482C10.2138 15.1702 10.0696 15.026 9.89154 15.026C9.71362 15.026 9.56928 15.1702 9.56928 15.3482V15.8932C7.45256 15.2734 5.90199 13.3144 5.90199 11C5.90199 8.1889 8.1889 5.90199 11 5.90199ZM10.0461 12.2745C10.0255 12.2632 10.0035 12.2545 9.9805 12.2478C9.09377 11.8669 8.46098 11.0044 8.41785 9.98537C8.37975 9.08974 8.80675 8.24228 9.5399 7.73958V9.49374C9.5399 9.64095 9.59714 9.77925 9.7012 9.88332L10.5884 10.7704C10.7984 10.9805 11.1438 10.9844 11.3584 10.7791L12.2899 9.88886C12.398 9.78546 12.4599 9.64028 12.4599 9.49072V7.73941C13.1669 8.22247 13.5845 9.00951 13.5845 9.87241C13.5845 10.9668 12.9121 11.8757 11.996 12.2587C11.9858 12.2625 11.9757 12.2667 11.966 12.2716C11.3768 12.5091 10.6841 12.5281 10.0461 12.2745Z" fill="url(#paint0_linear_1_718)"/>
<path d="M21.1806 8.57126L19.0676 8.31613C19.0086 8.30908 18.9593 8.2683 18.9386 8.20972C18.8371 7.92085 18.7178 7.63384 18.5842 7.35622C18.5585 7.30284 18.5642 7.24175 18.5993 7.1971L19.9162 5.51863C20.2066 5.14836 20.1747 4.6183 19.842 4.28546L17.7145 2.158C17.3817 1.82533 16.8516 1.79344 16.4814 2.08382L14.8029 3.40091C14.7581 3.43582 14.6972 3.4417 14.6438 3.41585C14.3663 3.28224 14.0791 3.1629 13.7905 3.06136C13.7317 3.04071 13.6909 2.99136 13.6839 2.93245L13.4287 0.819428C13.3723 0.35231 12.9749 0 12.5044 0H9.49559C9.02512 0 8.62766 0.35231 8.57126 0.819428L8.31613 2.93228C8.30908 2.99136 8.2683 3.04071 8.20972 3.06136C7.92085 3.1629 7.63367 3.28224 7.35638 3.41585C7.30284 3.44153 7.24191 3.43582 7.19727 3.40074L5.51863 2.08382C5.14836 1.79327 4.6183 1.82533 4.28563 2.158L3.75356 2.69008C3.62767 2.81596 3.62767 3.02007 3.75356 3.14578C3.87944 3.27167 4.08337 3.27167 4.20926 3.14578L4.74133 2.61388C4.84372 2.51149 5.0067 2.50159 5.12083 2.59105L6.7993 3.90797C7.03882 4.09579 7.35941 4.12987 7.63602 3.9966C7.89215 3.87323 8.15701 3.76312 8.42355 3.66946C8.71527 3.56674 8.91937 3.31397 8.95613 3.00966L9.21109 0.896637C9.22855 0.75296 9.35074 0.644531 9.49559 0.644531H12.5044C12.6491 0.644531 12.7715 0.75296 12.7889 0.896637L13.0439 3.00966C13.0806 3.31397 13.2847 3.56674 13.5764 3.6693C13.843 3.76312 14.1079 3.87323 14.364 3.9966C14.6406 4.1297 14.9612 4.09579 15.2007 3.90797L16.8792 2.59105C16.9931 2.50159 17.1563 2.51149 17.2587 2.61388L19.3861 4.74133C19.4885 4.84372 19.4984 5.00687 19.409 5.12083L18.092 6.7993C17.9042 7.03882 17.8703 7.35941 18.0034 7.63602C18.1268 7.89215 18.2369 8.15718 18.3307 8.42355C18.4333 8.71527 18.6862 8.91937 18.9903 8.95613L21.1032 9.21109C21.247 9.22855 21.3555 9.35074 21.3555 9.49559V12.5044C21.3555 12.6493 21.247 12.7715 21.1034 12.7889L18.9903 13.044C18.6862 13.0806 18.4333 13.2847 18.3307 13.5764C18.2369 13.843 18.1268 14.1079 18.0034 14.364C17.8703 14.6406 17.9042 14.9612 18.092 15.2007L19.409 16.8793C19.4984 16.9933 19.4885 17.1564 19.3861 17.2588L17.2587 19.3863C17.1563 19.4887 16.9931 19.4984 16.8792 19.4091L15.2007 18.0922C14.9612 17.9042 14.6406 17.8703 14.364 18.0036C14.1079 18.1269 13.843 18.237 13.5764 18.3307C13.2847 18.4334 13.0806 18.6862 13.0439 18.9905L12.7889 21.1034C12.7715 21.2472 12.6493 21.3556 12.5044 21.3556H9.49559C9.35074 21.3556 9.22855 21.2472 9.21109 21.1034L8.95613 18.9905C8.91937 18.6862 8.71527 18.4334 8.42355 18.3307C8.15701 18.237 7.89215 18.1269 7.63602 18.0036C7.35941 17.8703 7.03882 17.9042 6.7993 18.0922L5.12083 19.409C5.00687 19.4982 4.84372 19.4885 4.74133 19.3861L2.61388 17.2587C2.51149 17.1563 2.50159 16.9931 2.59105 16.8792L3.90797 15.2007C4.09579 14.9612 4.1297 14.6406 3.9966 14.364C3.87323 14.1079 3.76312 13.8428 3.6693 13.5764C3.56674 13.2847 3.3138 13.0806 3.00966 13.0439L0.896805 12.7889C0.75296 12.7715 0.644531 12.6493 0.644531 12.5044V9.49559C0.644531 9.35074 0.75296 9.22855 0.896637 9.21109L3.00966 8.95596C3.3138 8.91937 3.56674 8.71527 3.6693 8.42355C3.76312 8.15701 3.87323 7.89215 3.9966 7.63602C4.1297 7.35941 4.09579 7.03882 3.90797 6.7993L2.59105 5.12083C2.50159 5.00687 2.51149 4.84372 2.61388 4.74133L3.14595 4.20926C3.27167 4.08337 3.27167 3.87927 3.14595 3.75356C3.02007 3.62767 2.81596 3.62767 2.69008 3.75356L2.15817 4.28563C1.82533 4.6183 1.79344 5.14836 2.08398 5.51863L3.40091 7.19727C3.43599 7.24191 3.4417 7.30284 3.41585 7.35638C3.28224 7.63384 3.1629 7.92102 3.06136 8.20955C3.04071 8.2683 2.99136 8.30908 2.93245 8.31613L0.819428 8.57126C0.35231 8.62766 0 9.02512 0 9.49559V12.5044C0 12.9749 0.35231 13.3723 0.819428 13.4287L2.93245 13.6839C2.99136 13.6909 3.04071 13.7317 3.06136 13.7903C3.1629 14.079 3.28224 14.3662 3.41585 14.6436C3.4417 14.6972 3.43582 14.7581 3.40091 14.8027L2.08398 16.4814C1.79344 16.8516 1.82533 17.3817 2.15817 17.7144L4.28563 19.8418C4.6183 20.1747 5.14836 20.2066 5.51863 19.916L7.19727 18.5991C7.24191 18.564 7.30284 18.5583 7.35638 18.5842C7.63367 18.7178 7.92085 18.8369 8.20972 18.9386C8.2683 18.9591 8.30908 19.0086 8.31613 19.0676L8.57126 21.1804C8.62766 21.6477 9.02512 22 9.49559 22H12.5044C12.9749 22 13.3723 21.6477 13.4287 21.1806L13.6839 19.0676C13.6909 19.0086 13.7317 18.9593 13.7903 18.9386C14.0791 18.8371 14.3663 18.7178 14.6436 18.5842C14.6972 18.5583 14.7581 18.5642 14.8027 18.5993L16.4814 19.9162C16.8515 20.2066 17.3817 20.1747 17.7144 19.842L19.8418 17.7145C20.1747 17.3817 20.2066 16.8516 19.916 16.4814L18.5991 14.8029C18.564 14.7583 18.5583 14.6972 18.5842 14.6438C18.7178 14.3662 18.8369 14.0791 18.9386 13.7905C18.9591 13.7319 19.0086 13.6911 19.0676 13.6839L21.1804 13.4287C21.6477 13.3723 22 12.9749 22 12.5044V9.49559C22 9.02512 21.6477 8.62766 21.1806 8.57126Z" fill="url(#paint1_linear_1_718)"/>
<defs>
<linearGradient id="paint0_linear_1_718" x1="22" y1="11" x2="0" y2="11" gradientUnits="userSpaceOnUse">
<stop stop-color="#184385"/>
<stop offset="1" stop-color="#88D1FF"/>
</linearGradient>
<linearGradient id="paint1_linear_1_718" x1="22" y1="11" x2="0" y2="11" gradientUnits="userSpaceOnUse">
<stop stop-color="#184385"/>
<stop offset="1" stop-color="#88D1FF"/>
</linearGradient>
</defs>
</svg>
