<svg width="18" height="24" viewBox="0 0 18 24" fill="none" xmlns="http://www.w3.org/2000/svg">
<path fill-rule="evenodd" clip-rule="evenodd" d="M9.00002 4.43702C6.57254 4.43702 4.60468 6.33324 4.60468 8.67234C4.60468 11.0115 6.57254 12.9077 9.00002 12.9077C11.4275 12.9077 13.3954 11.0115 13.3954 8.67234C13.3954 6.33324 11.4275 4.43702 9.00002 4.43702ZM6.4884 8.67234C6.4884 7.33571 7.61289 6.25216 9.00002 6.25216C10.3872 6.25216 11.5117 7.33571 11.5117 8.67234C11.5117 10.009 10.3872 11.0925 9.00002 11.0925C7.61289 11.0925 6.4884 10.009 6.4884 8.67234Z" fill="white"/>
<path fill-rule="evenodd" clip-rule="evenodd" d="M8.35989 23.7584C8.36012 23.7586 8.36032 23.7588 9 23.0926L8.35989 23.7584C8.72092 24.0803 9.27865 24.0807 9.63968 23.7588L9 23.0926C9.63968 23.7588 9.63945 23.759 9.63968 23.7588L9.64072 23.7578L9.64251 23.7562L9.64826 23.7511L9.66833 23.733C9.68546 23.7174 9.71001 23.6951 9.74148 23.6661C9.80441 23.6081 9.89508 23.5235 10.0095 23.4141C10.2383 23.1954 10.5625 22.8772 10.9504 22.4734C11.7251 21.6667 12.7586 20.5133 13.7939 19.1255C15.8398 16.3827 18 12.5829 18 8.67234C18 5.95409 17.0108 3.7633 15.3421 2.25596C13.6831 0.757313 11.4259 0 9 0C6.57637 0 4.31888 0.749671 2.65871 2.24571C0.988509 3.75079 0 5.94247 0 8.67234C0 12.5829 2.16017 16.3827 4.20614 19.1255C5.2414 20.5133 6.27494 21.6667 7.04963 22.4734C7.43746 22.8772 7.76167 23.1954 7.99048 23.4141C8.10492 23.5235 8.19558 23.6081 8.25852 23.6661C8.28999 23.6951 8.31454 23.7174 8.33167 23.733L8.35174 23.7511L8.35749 23.7562L8.35989 23.7584ZM1.88372 8.67234C1.88372 6.38522 2.69909 4.69452 3.94536 3.57146C5.20166 2.43936 6.97324 1.81514 9 1.81514C11.0245 1.81514 12.7964 2.44439 14.0538 3.58022C15.3016 4.70735 16.1163 6.39895 16.1163 8.67234C16.1163 11.9973 14.2474 15.4076 12.2643 18.0661C11.285 19.3789 10.304 20.4739 9.5678 21.2405C9.35583 21.4612 9.16457 21.6543 9 21.817C8.83542 21.6543 8.64417 21.4612 8.4322 21.2405C7.69599 20.4739 6.71499 19.3789 5.73572 18.0661C3.75262 15.4076 1.88372 11.9973 1.88372 8.67234Z" fill="white"/>
</svg>
