<svg width="18" height="45" viewBox="0 0 18 45" fill="none" xmlns="http://www.w3.org/2000/svg">
<path d="M18 8.8983C18 3.99178 13.9626 0 9 0C4.0374 0 0 3.99178 0 8.8983C0 13.6049 3.717 17.4591 8.4 17.7664V44.4068C8.4 44.7348 8.6688 45 9 45C9.3312 45 9.6 44.7348 9.6 44.4068V17.7664C14.283 17.4591 18 13.6049 18 8.8983ZM6 8.8983C4.6764 8.8983 3.6 7.83407 3.6 6.52542C3.6 5.21678 4.6764 4.15254 6 4.15254C7.3236 4.15254 8.4 5.21678 8.4 6.52542C8.4 7.83407 7.3236 8.8983 6 8.8983Z" fill="white" fill-opacity="0.3"/>
</svg>
