<svg width="31" height="23" viewBox="0 0 31 23" fill="none" xmlns="http://www.w3.org/2000/svg">
<path d="M30 4.15V18.85C30 19.6854 29.6475 20.4866 29.0199 21.0774C28.3924 21.6681 27.5413 22 26.6538 22H4.34615C3.4587 22 2.60759 21.6681 1.98007 21.0774C1.35254 20.4866 1 19.6854 1 18.85V4.15M30 4.15C30 3.31457 29.6475 2.51335 29.0199 1.92261C28.3924 1.33187 27.5413 1 26.6538 1H4.34615C3.4587 1 2.60759 1.33187 1.98007 1.92261C1.35254 2.51335 1 3.31457 1 4.15M30 4.15V4.4902C30.0001 5.028 29.8539 5.55687 29.5753 6.02641C29.2968 6.49596 28.8951 6.89055 28.4087 7.1726L17.2549 13.6336C16.7272 13.9395 16.1197 14.1015 15.5 14.1015C14.8803 14.1015 14.2728 13.9395 13.7451 13.6336L2.59128 7.174C2.10486 6.89195 1.70324 6.49736 1.42469 6.02781C1.14614 5.55827 0.999937 5.0294 1 4.4916V4.15" stroke="white" stroke-width="2" stroke-linecap="round" stroke-linejoin="round"/>
</svg>
