<svg width="27" height="26" viewBox="0 0 27 26" fill="none" xmlns="http://www.w3.org/2000/svg">
<path d="M0.241977 16.8875L2.16182 17.7676C2.32776 17.8438 2.50893 17.8833 2.69236 17.8834C2.86452 17.8832 3.03481 17.8486 3.1927 17.7817C3.35059 17.7148 3.49272 17.6171 3.6103 17.4945L4.35401 18.0152C4.55351 18.2397 4.67716 18.6365 4.80773 19.0557C4.93045 19.4495 5.05672 19.854 5.26917 20.2045L5.03113 20.6008C4.87871 20.8541 4.80723 21.146 4.82581 21.4391C4.84439 21.7322 4.9522 22.0132 5.13545 22.2463C5.3187 22.4794 5.56909 22.654 5.85462 22.7477C6.14015 22.8414 6.44786 22.8501 6.73846 22.7725C6.8205 23.0909 7.00906 23.3736 7.27436 23.5759C7.53965 23.7782 7.86654 23.8886 8.20338 23.8896C8.33448 23.8895 8.46502 23.873 8.59182 23.8405C8.59612 23.8394 8.60036 23.838 8.60467 23.8369C8.68611 24.1558 8.87468 24.4389 9.14033 24.6412C9.40598 24.8435 9.73345 24.9534 10.0706 24.9533C10.403 24.9531 10.7264 24.8475 10.9917 24.6523C11.1228 24.8796 11.3135 25.0688 11.5444 25.2004C11.7754 25.332 12.0381 25.4012 12.3056 25.4011C12.6568 25.4007 12.9973 25.2829 13.2701 25.0672L14.4962 25.7768C14.7475 25.9228 15.0347 26 15.3274 26C15.4662 25.9999 15.6044 25.9828 15.7388 25.9492C16.0888 25.8628 16.3996 25.666 16.6228 25.3894C16.8459 25.1128 16.969 24.7721 16.9727 24.4202C17.2393 24.499 17.5222 24.5101 17.7945 24.4525C18.0668 24.3949 18.3194 24.2705 18.5286 24.0911C18.7377 23.9116 18.8964 23.6831 18.9896 23.4272C19.0827 23.1712 19.1073 22.8964 19.061 22.6286C19.2961 22.6148 19.5255 22.5516 19.7332 22.4434C19.941 22.3352 20.1224 22.1846 20.2649 22.0017C20.4074 21.8189 20.5077 21.6082 20.5589 21.3841C20.6101 21.1599 20.611 20.9277 20.5616 20.7032C20.6331 20.6948 20.7041 20.6819 20.7739 20.6646C20.9827 20.613 21.1789 20.5217 21.3513 20.396C21.5238 20.2703 21.6691 20.1127 21.7789 19.9322C21.8887 19.7516 21.9609 19.5517 21.9912 19.3439C22.0216 19.1362 22.0096 18.9246 21.9559 18.7213C21.9328 18.6332 21.9021 18.5472 21.8643 18.4641C22.5384 18.2745 23.1039 18.0084 23.575 17.6601C23.7862 17.8055 24.0384 17.8836 24.2969 17.8838C24.4805 17.8836 24.6618 17.8439 24.8279 17.7675L26.7473 16.8875C26.7994 16.864 26.8463 16.8307 26.8851 16.7895C26.924 16.7483 26.9541 16.7 26.9737 16.6474C26.9934 16.5948 27.0022 16.5389 26.9996 16.483C26.997 16.4271 26.983 16.3722 26.9586 16.3216C26.9342 16.2709 26.8997 16.2255 26.8572 16.1879C26.8146 16.1502 26.7649 16.1212 26.7108 16.1024C26.6567 16.0836 26.5994 16.0754 26.542 16.0782C26.4847 16.0811 26.4285 16.095 26.3766 16.1192L24.4569 16.9991C24.3653 17.0406 24.2607 17.0452 24.1657 17.0118C24.0707 16.9784 23.9931 16.9097 23.9499 16.8208L20.9775 10.6609C20.9346 10.5718 20.9296 10.4698 20.9636 10.3772C20.9977 10.2845 21.0679 10.2088 21.1591 10.1666L23.079 9.28653C23.1828 9.23818 23.2628 9.15177 23.3015 9.04615C23.3401 8.94053 23.3344 8.82428 23.2854 8.72279C23.2365 8.62131 23.1483 8.54282 23.0402 8.50448C22.932 8.46614 22.8127 8.47105 22.7083 8.51814L20.788 9.39834C20.5718 9.49806 20.3894 9.65597 20.2623 9.85343C20.1352 10.0509 20.0687 10.2797 20.0706 10.5128C19.557 10.6939 19.0167 10.8512 18.4699 10.9018C17.9163 10.9544 17.169 10.8599 16.3778 10.76C14.9437 10.5788 13.4608 10.3915 12.468 10.9616L11.9228 11.2744C11.0107 10.6322 10.1476 10.7331 9.23855 10.8401C8.65117 10.9091 8.04374 10.9806 7.32198 10.876C7.17911 10.8553 7.03378 10.827 6.88389 10.7907C6.95144 10.5175 6.9204 10.2299 6.79599 9.97637C6.67159 9.72282 6.4614 9.51876 6.20078 9.3985L4.28099 8.51814C4.17657 8.47105 4.05727 8.46614 3.94915 8.50448C3.84102 8.54282 3.75285 8.62131 3.70389 8.72279C3.65493 8.82428 3.64916 8.94053 3.68784 9.04615C3.72651 9.15177 3.80649 9.23818 3.91031 9.28653L5.82977 10.1664C5.92101 10.2085 5.99139 10.2842 6.02551 10.3769C6.05964 10.4695 6.05472 10.5715 6.01185 10.6606L3.0393 16.8208C2.99624 16.9099 2.91869 16.9787 2.82365 17.0122C2.72861 17.0456 2.62385 17.0409 2.53234 16.9992L0.612224 16.1192C0.508109 16.0741 0.390043 16.0707 0.283327 16.1095C0.176612 16.1483 0.0897358 16.2263 0.0413167 16.3267C-0.00710244 16.4272 -0.0132126 16.5422 0.0242955 16.647C0.0618035 16.7519 0.139946 16.8382 0.241977 16.8875ZM6.01484 21.8906C5.86733 21.8059 5.76021 21.6677 5.71688 21.5063C5.67355 21.3449 5.69754 21.1733 5.7836 21.029L6.15156 20.4164C6.15798 20.4065 6.16414 20.3966 6.16964 20.3863L6.87322 19.2149C6.96027 19.0721 7.1017 18.9687 7.26668 18.9271C7.43165 18.8855 7.60681 18.9091 7.75399 18.9928C7.90116 19.0766 8.00843 19.2136 8.05241 19.3741C8.09639 19.5345 8.07353 19.7054 7.9888 19.8495L6.89935 21.665C6.8124 21.8089 6.67053 21.9134 6.50475 21.9557C6.33897 21.998 6.16276 21.9746 6.01462 21.8906H6.01484ZM7.88241 22.9541C7.7349 22.8698 7.62772 22.7318 7.58438 22.5706C7.54104 22.4093 7.56508 22.2379 7.65123 22.0939L8.74095 20.2782C8.82752 20.1342 8.96922 20.0296 9.13489 19.9875C9.21692 19.9666 9.30236 19.9617 9.38633 19.973C9.47031 19.9844 9.55118 20.0117 9.62432 20.0535C9.69746 20.0952 9.76144 20.1507 9.8126 20.2165C9.86377 20.2824 9.90113 20.3575 9.92253 20.4374C9.94394 20.5174 9.94898 20.6007 9.93737 20.6825C9.92576 20.7644 9.89772 20.8432 9.85485 20.9145L8.7648 22.7294C8.67799 22.8729 8.53648 22.977 8.37115 23.0191C8.20583 23.0612 8.03013 23.0379 7.88241 22.9542V22.9541ZM9.74829 24.0191C9.6008 23.9344 9.49369 23.7962 9.45036 23.6348C9.40703 23.4734 9.43101 23.3018 9.51705 23.1576L10.6067 21.3435C10.6934 21.1994 10.8352 21.0947 11.001 21.0524C11.1669 21.0101 11.3431 21.0337 11.4911 21.1179C11.6379 21.2029 11.7444 21.3408 11.7877 21.5018C11.8309 21.6628 11.8074 21.8339 11.7223 21.9781L11.1767 22.8871L11.0019 23.1763C10.9937 23.1898 10.9863 23.2035 10.9786 23.2172L10.633 23.793C10.546 23.9369 10.4041 24.0415 10.2383 24.0838C10.0725 24.1262 9.89624 24.1029 9.74797 24.0191H9.74829ZM11.9855 24.4678C11.9122 24.4259 11.8481 24.3702 11.797 24.304C11.7459 24.2378 11.7087 24.1624 11.6875 24.0822C11.6453 23.9291 11.6648 23.766 11.742 23.6265L11.9271 23.318L12.4762 22.4096C12.5405 22.3017 12.6363 22.2148 12.7514 22.1602C12.8665 22.1055 12.9957 22.0855 13.1226 22.1027C13.2494 22.1199 13.3681 22.1735 13.4636 22.2567C13.559 22.3399 13.6269 22.4489 13.6585 22.5698C13.6802 22.6492 13.6854 22.732 13.6739 22.8134C13.6624 22.8948 13.6344 22.9731 13.5915 23.0438L12.8695 24.2406C12.7825 24.3843 12.6408 24.4888 12.4753 24.5314C12.3097 24.574 12.1336 24.5512 11.9851 24.4681L11.9855 24.4678ZM12.9104 11.693C13.6455 11.2709 15.0378 11.4467 16.2661 11.6019C17.1078 11.708 17.9028 11.8088 18.5535 11.7469C19.179 11.689 19.7746 11.5187 20.3345 11.3227L23.0612 16.9741C22.5862 17.3284 21.9796 17.5836 21.2188 17.7489C21.2142 17.7462 21.2098 17.7432 21.2052 17.7406L18.6433 16.2583C18.5666 16.214 18.4778 16.1936 18.3888 16.1999C16.573 16.331 14.6555 16.1575 12.9345 14.0192C12.8777 13.9486 12.7994 13.8974 12.711 13.8729C12.6225 13.8483 12.5283 13.8518 12.4419 13.8826L11.4019 14.2541C11.3217 14.2828 11.2518 14.3338 11.2011 14.4009L10.4956 15.3344C10.1002 15.8445 9.56099 16.0117 9.05305 15.7815C8.98244 15.7493 8.91993 15.7024 8.86994 15.644C8.81994 15.5857 8.78367 15.5174 8.76367 15.444C8.74367 15.3705 8.74043 15.2937 8.75418 15.2189C8.76793 15.144 8.79834 15.0731 8.84326 15.011L10.0466 13.3356L12.1047 12.1551L12.1054 12.1546L12.9104 11.693ZM9.34309 11.6827C10.0356 11.6013 10.553 11.5406 11.0668 11.7654L9.52364 12.6506C9.46981 12.6815 9.42339 12.7232 9.38752 12.773L8.13086 14.5224C8.0126 14.6861 7.93262 14.8731 7.89655 15.0702C7.86048 15.2673 7.8692 15.4697 7.9221 15.6631C7.97499 15.8566 8.07078 16.0364 8.2027 16.1899C8.33462 16.3434 8.49947 16.4668 8.68563 16.5514C9.56627 16.9505 10.5496 16.6735 11.1939 15.8421L11.8246 15.0078L12.45 14.7844C14.3333 16.9602 16.4565 17.1742 18.3157 17.0564L20.761 18.4707C20.9336 18.5736 21.0577 18.7387 21.1064 18.9301C21.155 19.1215 21.1244 19.3239 21.021 19.4935C20.9177 19.6631 20.75 19.7861 20.5542 19.8361C20.3585 19.886 20.1504 19.8588 19.9751 19.7603L17.9965 18.617C17.9473 18.5881 17.8927 18.5691 17.8359 18.5608C17.7791 18.5526 17.7212 18.5555 17.6655 18.5691C17.6098 18.5828 17.5574 18.6071 17.5114 18.6406C17.4654 18.6741 17.4266 18.7161 17.3973 18.7643C17.368 18.8125 17.3488 18.8658 17.3407 18.9212C17.3327 18.9766 17.3359 19.0331 17.3503 19.0873C17.3647 19.1415 17.39 19.1923 17.4247 19.237C17.4593 19.2816 17.5027 19.3191 17.5523 19.3474L19.3352 20.3776C19.3406 20.3812 19.3461 20.385 19.352 20.3882C19.5262 20.4908 19.6521 20.6561 19.7024 20.8483C19.7527 21.0406 19.7233 21.2444 19.6207 21.4158C19.5163 21.5865 19.3467 21.71 19.1491 21.7591C18.9515 21.8083 18.7419 21.7792 18.5663 21.6781L16.5982 20.5398C16.549 20.5106 16.4943 20.4913 16.4374 20.4828C16.3805 20.4744 16.3224 20.477 16.2665 20.4906C16.2106 20.5042 16.1581 20.5284 16.1119 20.5619C16.0657 20.5954 16.0267 20.6375 15.9973 20.6858C15.9679 20.734 15.9486 20.7875 15.9406 20.8431C15.9325 20.8987 15.9358 20.9553 15.9504 21.0096C15.9649 21.0639 15.9903 21.1149 16.0252 21.1595C16.06 21.2042 16.1036 21.2417 16.1535 21.2699L17.8322 22.2413C17.8341 22.2424 17.8357 22.2437 17.8376 22.2448C18.0119 22.3474 18.1378 22.5127 18.1881 22.705C18.2384 22.8972 18.209 23.1011 18.1064 23.2725C18.0019 23.4432 17.8324 23.5666 17.6347 23.6158C17.4371 23.6649 17.2276 23.6358 17.052 23.5347L16.1728 23.026L16.1711 23.025L15.3622 22.5569C15.2629 22.4995 15.1442 22.4828 15.0322 22.5106C14.9203 22.5385 14.8243 22.6085 14.7653 22.7053C14.7063 22.8021 14.6893 22.9178 14.7178 23.0269C14.7464 23.1361 14.8182 23.2296 14.9175 23.2871L15.7266 23.7552C15.8997 23.8589 16.0245 24.0242 16.0747 24.2161C16.1248 24.408 16.0963 24.6114 15.9951 24.7832C15.8905 24.9536 15.721 25.0769 15.5236 25.1262C15.3262 25.1756 15.1168 25.1469 14.9409 25.0465L13.7941 24.3831L14.3419 23.475C14.4951 23.2217 14.5671 22.9296 14.5488 22.6361C14.5305 22.3426 14.4227 22.0611 14.2392 21.8277C14.0557 21.5943 13.8048 21.4197 13.5188 21.3262C13.2328 21.2327 12.9246 21.2246 12.6338 21.303C12.6325 21.2977 12.6314 21.2924 12.6299 21.2867C12.5796 21.0978 12.4912 20.9204 12.37 20.765C12.2487 20.6095 12.097 20.4791 11.9236 20.3813C11.7502 20.2835 11.5587 20.2203 11.36 20.1952C11.1613 20.1702 10.9595 20.1838 10.7663 20.2354C10.7651 20.2309 10.7642 20.2263 10.7629 20.2217C10.7126 20.0329 10.6243 19.8556 10.5031 19.7003C10.382 19.545 10.2304 19.4147 10.0572 19.3169C9.88399 19.2191 9.69258 19.1558 9.49407 19.1306C9.29557 19.1055 9.09392 19.119 8.90081 19.1704C8.82718 18.8858 8.66828 18.629 8.44435 18.4328C8.22042 18.2365 7.94161 18.1097 7.64345 18.0685C7.3453 18.0272 7.0413 18.0735 6.77021 18.2013C6.49912 18.3291 6.27321 18.5327 6.12129 18.7861L5.80658 19.3098C5.74712 19.1481 5.69376 18.9775 5.64133 18.8091C5.4819 18.2974 5.31709 17.7684 4.96072 17.4035L4.93257 17.3747L4.03701 16.7479L6.53183 11.5781C6.74952 11.6368 6.97061 11.6827 7.19391 11.7156C8.03144 11.837 8.7281 11.755 9.34276 11.6827H9.34309ZM13.3299 9.38587C13.4355 9.4279 13.5538 9.4279 13.6594 9.38587C15.6757 8.58299 17.8301 6.14193 17.8301 1.69868C17.8301 1.58687 17.7848 1.47957 17.7042 1.40008C17.6235 1.32059 17.5139 1.27533 17.3992 1.27413C15.9454 1.25884 14.7576 0.872926 13.7681 0.0942455C13.6907 0.0332626 13.5941 0 13.4945 0C13.3949 0 13.2983 0.0332626 13.2208 0.0942455C12.2315 0.872767 11.0438 1.25868 9.58991 1.27397C9.47519 1.27517 9.3656 1.32043 9.28492 1.39992C9.20424 1.47941 9.159 1.58671 9.159 1.69852C9.159 6.14171 11.3136 8.58278 13.3299 9.38587ZM13.4947 0.957995C14.47 1.6412 15.6302 2.0268 16.9525 2.10752C16.8341 5.74789 15.139 7.79025 13.4947 8.52976C11.8503 7.79025 10.1551 5.74789 10.0368 2.10752C11.3591 2.0268 12.5192 1.6412 13.4947 0.957995ZM12.8639 5.88237L12.1262 5.1904C12.0435 5.11219 11.996 5.00527 11.9941 4.89302C11.9921 4.78078 12.0359 4.67234 12.1157 4.59145C12.1956 4.51056 12.3051 4.46379 12.4202 4.46137C12.5354 4.45896 12.6468 4.5011 12.7302 4.57857L13.1456 4.9682L14.2393 3.79962C14.2778 3.75842 14.3243 3.72503 14.3761 3.70134C14.4279 3.67765 14.484 3.66414 14.5411 3.66158C14.5983 3.65901 14.6554 3.66744 14.7092 3.68639C14.763 3.70534 14.8125 3.73443 14.8547 3.772C14.897 3.80958 14.9313 3.8549 14.9556 3.90538C14.9799 3.95586 14.9937 4.01051 14.9964 4.06621C14.999 4.12192 14.9904 4.17758 14.9709 4.23002C14.9515 4.28247 14.9216 4.33066 14.8831 4.37187L13.4879 5.86257C13.4487 5.90442 13.4013 5.93818 13.3484 5.96188C13.2956 5.98558 13.2384 5.99873 13.1803 6.00055C13.1756 6.00055 13.1709 6.00055 13.1661 6.00055C13.0535 6.00073 12.9452 5.95837 12.8639 5.88237Z" fill="white"/>
</svg>
