<svg width="29" height="25" viewBox="0 0 29 25" fill="none" xmlns="http://www.w3.org/2000/svg">
<path d="M21.719 23.292C21.7187 22.9818 21.4915 22.7055 21.1698 22.641L21.0262 22.6268H19.6367L19.4931 22.641C19.1711 22.7052 18.9432 22.9816 18.943 23.292C18.943 23.6468 19.2402 23.9581 19.6357 23.9583H21.0262C21.4219 23.9582 21.719 23.6469 21.719 23.292ZM15.5187 15.9953V14.9852C15.5188 14.9189 15.5316 14.8533 15.5561 14.7919C15.8104 14.1549 15.9507 13.5287 16.0011 12.9079C16.0244 12.6213 16.2744 12.4075 16.5593 12.4308C16.8442 12.4542 17.0567 12.7059 17.0336 12.9924C16.994 13.4805 16.9046 13.9709 16.7616 14.4643L21.5885 14.4653L21.7635 14.4735C22.6259 14.5597 23.3178 15.2764 23.3178 16.1723C23.3179 16.5118 23.216 16.8244 23.0458 17.0878C23.5421 17.3851 23.88 17.9206 23.8801 18.5455C23.8801 19.1705 23.542 19.7059 23.0458 20.0033C23.2161 20.2667 23.3178 20.5793 23.3178 20.9188C23.3179 21.5437 22.9796 22.0791 22.4835 22.3765C22.6538 22.6399 22.7545 22.9526 22.7545 23.292C22.7545 24.2478 21.9681 24.9999 21.0262 25H16.9214C16.6355 25 16.4037 24.7668 16.4036 24.4792C16.4036 24.1915 16.6354 23.9583 16.9214 23.9583H18.0439C17.9565 23.7545 17.9074 23.5295 17.9074 23.292C17.9075 22.9528 18.0074 22.6398 18.1774 22.3765C17.6819 22.079 17.3451 21.5432 17.3451 20.9188C17.3452 20.2942 17.6815 19.7574 18.1774 19.46C18.0078 19.1969 17.9074 18.8844 17.9074 18.5455C17.9074 18.2063 18.0074 17.8933 18.1774 17.63C17.6818 17.3325 17.3451 16.7968 17.3451 16.1723C17.3451 15.9347 17.3941 15.71 17.4816 15.506H16.5543V15.9953C16.5542 17.6716 15.1713 19.0074 13.4941 19.0074C13.2082 19.0074 12.9764 18.7741 12.9763 18.4865C12.9763 18.1989 13.2081 17.9657 13.4941 17.9657C14.6251 17.9657 15.5186 17.0707 15.5187 15.9953ZM5.12155 18.2404V14.1327C5.12155 13.8451 5.35346 13.612 5.63934 13.6119L9.4762 13.6098C9.61338 13.6099 9.74526 13.6649 9.84229 13.7624C9.93928 13.8601 9.99399 13.9926 9.99399 14.1307V14.7268C10.2559 14.5022 10.5152 14.2976 10.7676 14.1083C11.3275 13.6885 11.808 13.3624 12.235 12.9903C12.6488 12.6297 12.9683 12.261 13.1796 11.8062C13.3897 11.3537 13.51 10.7785 13.4678 9.98129C13.4193 9.06963 14.1582 8.33029 15.0535 8.33029C15.7375 8.33036 16.3619 8.76607 16.5694 9.43299C16.7377 9.97351 16.8712 10.5183 16.9558 11.0687C16.9994 11.353 16.8055 11.6189 16.5229 11.6628C16.2404 11.7066 15.976 11.5117 15.9323 11.2274C15.8571 10.7375 15.737 10.2442 15.5814 9.74427C15.5155 9.53261 15.3066 9.37202 15.0535 9.37196C14.7237 9.37196 14.487 9.63876 14.5024 9.92636C14.5518 10.8612 14.4131 11.6126 14.1181 12.2477C13.8241 12.8806 13.3918 13.3609 12.9136 13.7777C12.4486 14.1829 11.8954 14.5619 11.3865 14.9434C10.9115 15.2997 10.4393 15.6831 9.99399 16.156V23.0194C10.7161 23.0926 11.4085 23.2595 12.0722 23.7579C12.2436 23.8869 12.4525 23.9582 12.6658 23.9583H15.0818C15.3678 23.9583 15.5996 24.1915 15.5996 24.4792C15.5996 24.7668 15.3678 25 15.0818 25H12.6658C12.2249 24.9999 11.8002 24.8539 11.4533 24.5931L11.2419 24.4497C10.8741 24.2278 10.4787 24.1241 9.99399 24.0672V24.4771C9.99384 24.7645 9.76196 24.9978 9.4762 24.998L5.63934 25C5.50201 25.0001 5.37039 24.945 5.27325 24.8474C5.1761 24.7498 5.12158 24.6173 5.12155 24.4792V20.0419C5.12166 19.7544 5.35344 19.5211 5.63934 19.5211C5.92513 19.5212 6.15702 19.7544 6.15712 20.0419V23.9573L8.95842 23.9563V23.5311C8.95786 23.5213 8.95539 23.5115 8.95538 23.5016V15.9556C8.95538 15.9435 8.95758 15.9311 8.95842 15.919V14.6515L6.15712 14.6525V18.2404C6.15698 18.5278 5.92511 18.7611 5.63934 18.7612C5.35346 18.7612 5.12169 18.5279 5.12155 18.2404ZM6.80941 17.6392V16.5843C6.80959 16.2968 7.04134 16.0634 7.32719 16.0634C7.61294 16.0636 7.8448 16.2969 7.84498 16.5843V17.6392C7.84478 17.9266 7.61293 18.1599 7.32719 18.16C7.04135 18.16 6.8096 17.9266 6.80941 17.6392ZM2.42037 7.66603C2.73568 7.04073 3.5974 7.00157 3.98081 7.54904L4.05059 7.66603L4.55421 8.66599L5.68586 8.82773C6.4179 8.93193 6.75058 9.84203 6.18847 10.379L5.3764 11.1522L5.56854 12.2437C5.70282 13.0128 4.89253 13.5346 4.25082 13.2039L3.23548 12.6801L2.22014 13.2039C1.57842 13.5344 0.76905 13.0128 0.903426 12.2437L1.09355 11.1522L0.282489 10.379C-0.279223 9.84213 0.0529288 8.93202 0.785104 8.82773L1.91574 8.66599L2.42037 7.66603ZM24.9501 7.66603C25.2654 7.04054 26.1272 7.00164 26.5105 7.54904L26.5803 7.66603L27.0839 8.66599L28.2156 8.82773C28.9475 8.93201 29.2792 9.84103 28.7172 10.378L28.7182 10.379L27.9061 11.1522L28.0982 12.2437C28.2325 13.0127 27.4222 13.5344 26.7805 13.2039L25.7652 12.6801L24.7498 13.2039C24.1081 13.5345 23.2979 13.0128 23.4321 12.2437L23.6233 11.1522L22.8122 10.379C22.2504 9.84213 22.5826 8.93199 23.3148 8.82773L24.4454 8.66599L24.9501 7.66603ZM3.23548 8.35267L2.81073 9.19699C2.67507 9.4665 2.41573 9.64785 2.12406 9.68934L1.20176 9.81955L1.86011 10.4492C2.07683 10.6563 2.17929 10.9585 2.1271 11.2579L1.96832 12.1633L2.8168 11.7269L2.91692 11.6821C3.12227 11.6059 3.34863 11.606 3.55404 11.6821L3.65517 11.7269L4.50163 12.1633L4.34386 11.259C4.29131 10.9591 4.39424 10.6562 4.61085 10.4492L5.26819 9.81955L4.3469 9.68934C4.05527 9.64786 3.79696 9.46697 3.66124 9.19801L3.23548 8.35267ZM25.3394 9.19699C25.2038 9.4665 24.9454 9.64785 24.6538 9.68934L23.7315 9.81955L24.3898 10.4492C24.6065 10.6563 24.709 10.9586 24.6568 11.2579L24.498 12.1633L25.3455 11.7269L25.4466 11.6821C25.652 11.606 25.8783 11.6059 26.0837 11.6821L26.1849 11.7269L27.0313 12.1633L26.8736 11.259C26.821 10.9591 26.9239 10.6562 27.1405 10.4492L27.7979 9.81955L26.8766 9.68934C26.585 9.64786 26.3267 9.46693 26.1909 9.19801L26.1899 9.19699L25.7642 8.35267L25.3394 9.19699ZM7.54563 2.58791C7.9035 2.07728 8.67743 2.07725 9.03528 2.58791L9.10505 2.70591L9.60767 3.70485L10.7403 3.86659C11.4267 3.96429 11.7621 4.77027 11.338 5.31312L11.2429 5.4179L10.4319 6.19203L10.623 7.28252C10.7574 8.05174 9.94704 8.57344 9.30529 8.24281L8.28995 7.71892L7.27562 8.24281C6.63386 8.57345 5.82345 8.05175 5.95789 7.28252L6.14802 6.19203L5.33797 5.4179C4.77608 4.88112 5.10761 3.97119 5.83957 3.86659L6.97122 3.70485L7.47585 2.70591L7.54563 2.58791ZM19.9826 2.58791C20.3404 2.07718 21.1143 2.07735 21.4722 2.58791L21.543 2.70591L22.0456 3.70485L23.1783 3.86659C23.9102 3.97101 24.2422 4.88099 23.6799 5.4179L22.8688 6.19101L23.06 7.28252C23.1944 8.05168 22.385 8.57321 21.7432 8.24281L20.7279 7.71892L19.7126 8.24281C19.0708 8.57344 18.2604 8.05172 18.3948 7.28252L18.586 6.19101L17.7749 5.4179C17.213 4.88099 17.5452 3.97083 18.2775 3.86659L19.4092 3.70485L19.9128 2.70591L19.9826 2.58791ZM7.8652 4.23687C7.72952 4.50609 7.47098 4.68668 7.17954 4.7282L6.25623 4.85841L6.91458 5.48809C7.13151 5.69524 7.23395 5.99819 7.18157 6.29782L7.02279 7.20216L7.87127 6.76576L7.9724 6.721C8.17747 6.64506 8.4034 6.64502 8.60851 6.721L8.70964 6.76576L9.55711 7.20216L9.39934 6.29782C9.3468 5.99805 9.44879 5.69511 9.66531 5.48809L10.3227 4.85841L9.40137 4.7282C9.1462 4.69187 8.91664 4.54882 8.77234 4.33351L8.7157 4.23687L8.28995 3.39154L7.8652 4.23687ZM20.3021 4.23687C20.1664 4.50609 19.908 4.68674 19.6165 4.7282L18.6942 4.85841L19.3525 5.48809C19.5693 5.69523 19.6709 5.99832 19.6185 6.29782L19.4597 7.20216L20.3082 6.76576L20.4093 6.721C20.6147 6.64489 20.8411 6.64476 21.0465 6.721L21.1466 6.76576L21.9941 7.20216L21.8363 6.29782C21.7837 5.99788 21.8865 5.69511 22.1033 5.48809L22.7606 4.85841L21.8383 4.7282C21.5467 4.68658 21.2883 4.50589 21.1527 4.23687L20.7269 3.39154L20.3021 4.23687ZM13.6852 0.500505C14.0003 -0.125538 14.8623 -0.16399 15.2457 0.383521L15.3154 0.500505L15.8181 1.49945L16.9507 1.66119C17.6828 1.7654 18.0157 2.67653 17.4533 3.21352L16.6423 3.98764L16.8334 5.07712C16.9681 5.84652 16.1575 6.3691 15.5157 6.03842L14.5003 5.51454L13.485 6.03842C12.8432 6.36851 12.0336 5.84629 12.1683 5.07712L12.3584 3.98764L11.5484 3.21352C10.9864 2.67671 11.3179 1.76571 12.05 1.66119L13.1816 1.49945L13.6852 0.500505ZM14.0756 2.03147C13.94 2.30088 13.6815 2.48123 13.3899 2.5228L12.4666 2.65403L13.125 3.28269C13.3419 3.48983 13.4443 3.7928 13.3919 4.09242L13.2332 4.99676L14.0817 4.56036L14.1828 4.51662C14.4222 4.42792 14.6901 4.44195 14.92 4.56036L15.7675 4.99676L15.6097 4.09242C15.5573 3.7926 15.659 3.48965 15.8757 3.28269L16.5341 2.65403L15.6117 2.5228C15.32 2.48124 15.0617 2.30064 14.9261 2.03147L14.5003 1.18715L14.0756 2.03147ZM22.2823 20.9188C22.2821 20.6085 22.0539 20.3322 21.7321 20.2677L21.5885 20.2535H19.0734C18.6779 20.2536 18.3809 20.5641 18.3807 20.9188C18.3807 21.2736 18.6778 21.5849 19.0734 21.5851H21.5885C21.9844 21.5851 22.2823 21.2736 22.2823 20.9188ZM22.8446 18.5455C22.8444 18.1907 22.5465 17.8803 22.1508 17.8803H19.6367C19.241 17.8803 18.9431 18.1907 18.943 18.5455C18.943 18.9005 19.2409 19.2118 19.6367 19.2118H22.1508C22.5466 19.2118 22.8446 18.9005 22.8446 18.5455ZM22.2823 16.1723C22.2822 15.8174 21.9842 15.507 21.5885 15.507L19.0734 15.506C18.678 15.5061 18.3808 15.8173 18.3807 16.1723C18.3807 16.5271 18.6778 16.8384 19.0734 16.8386H21.5885C21.9844 16.8386 22.2823 16.5272 22.2823 16.1723Z" fill="url(#paint0_linear_3_961)"/>
<defs>
<linearGradient id="paint0_linear_3_961" x1="28.4805" y1="12.5" x2="0.520139" y2="12.5" gradientUnits="userSpaceOnUse">
<stop stop-color="#184385"/>
<stop offset="1" stop-color="#88D1FF"/>
</linearGradient>
</defs>
</svg>
