<svg width="23" height="24" viewBox="0 0 23 24" fill="none" xmlns="http://www.w3.org/2000/svg">
<path d="M8.0867 10.7721C7.61008 11.2694 7.61008 12.0787 8.0867 12.5761L10.1323 14.7106C10.6101 15.2091 11.3833 15.2092 11.8612 14.7106L14.8878 11.5524C15.3644 11.055 15.3644 10.2458 14.8878 9.74839C14.4101 9.24987 13.6367 9.24978 13.1589 9.74839L10.9967 12.0046L9.81561 10.7721C9.33786 10.2736 8.56453 10.2735 8.0867 10.7721ZM11.235 12.7503L13.6354 10.2456C13.8498 10.0219 14.1969 10.0218 14.4113 10.2456C14.6253 10.4688 14.6253 10.832 14.4113 11.0553L11.3847 14.2135C11.1708 14.4367 10.8227 14.4367 10.6088 14.2135L8.56323 12.0789C8.34927 11.8557 8.34927 11.4925 8.56319 11.2693C8.77764 11.0456 9.12467 11.0455 9.33912 11.2693L10.7585 12.7503C10.8901 12.8876 11.1034 12.8876 11.235 12.7503Z" fill="url(#paint0_linear_3_878)"/>
<path d="M22.0174 9.78678H20.5413C20.403 9.78678 20.2807 9.68689 20.2439 9.54383C20.0408 8.75492 19.7388 7.99508 19.3463 7.28539C19.2755 7.15738 19.2948 6.99622 19.3933 6.89342L20.4367 5.80466C20.6223 5.61102 20.7245 5.35354 20.7245 5.07965C20.7245 4.8058 20.6223 4.54832 20.4368 4.35468L18.8268 2.67473C18.4437 2.27503 17.8203 2.27503 17.4371 2.67473L16.3938 3.76354C16.2952 3.86638 16.1408 3.88649 16.0182 3.81262C15.3382 3.40307 14.61 3.08798 13.8538 2.87601C13.7167 2.83757 13.6209 2.70998 13.6209 2.5656V1.02529C13.621 0.459937 13.1802 0 12.6384 0H10.3616C9.81979 0 9.37901 0.459937 9.37901 1.02529V2.56556C9.37901 2.70989 9.28329 2.83753 9.14614 2.87596C8.38988 3.08793 7.6617 3.40307 6.98185 3.81257C6.85903 3.88654 6.70463 3.86629 6.60621 3.76354L5.56277 2.67478C5.37719 2.48114 5.13044 2.3745 4.86796 2.3745C4.60553 2.3745 4.35877 2.48114 4.17315 2.67478L2.56329 4.35468C2.18024 4.75443 2.18028 5.40486 2.56329 5.80461L3.60673 6.89342C3.7052 6.99617 3.72456 7.15738 3.65377 7.28539C3.26128 7.99503 2.95927 8.75487 2.75618 9.54387C2.71939 9.68693 2.59707 9.78683 2.45875 9.78683H0.982576C0.440773 9.78678 0 10.2467 0 10.8121V13.1879C0 13.7532 0.440773 14.2132 0.982576 14.2132H2.45866C2.59698 14.2132 2.7193 14.3131 2.75609 14.4561C2.95918 15.245 3.26115 16.0049 3.65368 16.7146C3.72447 16.8426 3.70516 17.0038 3.60664 17.1065L2.5632 18.1953C2.18015 18.595 2.18015 19.2455 2.5632 19.6453L4.1732 21.3253C4.35877 21.5189 4.60553 21.6256 4.86796 21.6256C5.13044 21.6256 5.37719 21.5189 5.56277 21.3253L6.60621 20.2365C6.70468 20.1338 6.85912 20.1136 6.9818 20.1874C7.6617 20.5969 8.38988 20.9121 9.14618 21.124C9.28329 21.1625 9.37901 21.2901 9.37901 21.4344V22.9747C9.37901 23.5401 9.81979 24 10.3616 24H12.6384C13.1802 24 13.621 23.5401 13.621 22.9747V21.4344C13.621 21.2901 13.7167 21.1625 13.8539 21.124C14.61 20.9121 15.3382 20.5969 16.0182 20.1874C16.1408 20.1136 16.2954 20.1338 16.3938 20.2365L17.4372 21.3253C17.8203 21.7251 18.4437 21.725 18.8268 21.3253L20.4368 19.6454C20.6223 19.4517 20.7245 19.1942 20.7245 18.9204C20.7245 18.6465 20.6223 18.389 20.4368 18.1954L19.3933 17.1066C19.2948 17.0038 19.2755 16.8427 19.3463 16.7146C19.7388 16.0049 20.0408 15.245 20.2439 14.4562C20.2807 14.3132 20.403 14.2132 20.5413 14.2132H22.0174C22.5592 14.2132 23 13.7533 23 13.1879V12.8203C23 12.6261 22.8492 12.4687 22.6631 12.4687C22.477 12.4687 22.3262 12.6261 22.3262 12.8203V13.1879C22.3262 13.3655 22.1877 13.5101 22.0174 13.5101H20.5413C20.0988 13.5101 19.7089 13.8241 19.5931 14.2737C19.4053 15.0035 19.1259 15.7064 18.7627 16.3631C18.5398 16.7662 18.6031 17.2764 18.9168 17.6037L19.9603 18.6925C20.0186 18.7534 20.0507 18.8342 20.0507 18.9203C20.0507 19.0064 20.0186 19.0873 19.9603 19.1481L18.3504 20.828C18.23 20.9536 18.0342 20.9537 17.9137 20.828L16.8703 19.7392C16.5566 19.4119 16.0676 19.3457 15.6814 19.5784C15.0522 19.9573 14.3785 20.2488 13.6791 20.4449C13.2481 20.5657 12.9472 20.9725 12.9472 21.4343V22.9746C12.9472 23.1523 12.8087 23.2968 12.6385 23.2968H10.3616C10.1914 23.2968 10.0529 23.1523 10.0529 22.9746V21.4343C10.0529 20.9725 9.75195 20.5657 9.32106 20.4449C8.6215 20.2488 7.9478 19.9573 7.31867 19.5783C6.93243 19.3457 6.4435 19.4119 6.12977 19.7392L5.08632 20.828C5.02802 20.8888 4.95053 20.9223 4.86805 20.9223C4.78557 20.9223 4.70804 20.8888 4.64977 20.828L3.03982 19.1481C2.91943 19.0224 2.91943 18.818 3.03982 18.6924L4.08326 17.6036C4.39691 17.2763 4.46034 16.7662 4.23744 16.363C3.87424 15.7064 3.59478 15.0034 3.40696 14.2737C3.29125 13.8241 2.90132 13.51 2.4588 13.51H0.982576C0.812322 13.51 0.673828 13.3655 0.673828 13.1878V10.812C0.673828 10.6344 0.812322 10.4899 0.982576 10.4899H2.45866C2.90123 10.4899 3.29111 10.1758 3.40683 9.72617C3.59474 8.99633 3.87411 8.29339 4.2373 7.63672C4.4602 7.2336 4.39682 6.7235 4.08313 6.39617L3.03968 5.30736C2.91929 5.18174 2.91929 4.97737 3.03968 4.85174L4.64959 3.17184C4.70795 3.11099 4.78544 3.07748 4.86791 3.07748C4.95039 3.07748 5.02793 3.11099 5.08623 3.17184L6.12963 4.2606C6.44328 4.58783 6.93216 4.65407 7.31858 4.42148C7.94767 4.04259 8.62136 3.75102 9.32088 3.55495C9.75182 3.43415 10.0528 3.02732 10.0528 2.56551V1.02529C10.0528 0.847639 10.1912 0.703124 10.3615 0.703124H12.6383C12.8086 0.703124 12.9471 0.847639 12.9471 1.02529V2.56556C12.9471 3.02737 13.248 3.4342 13.6789 3.55499C14.3784 3.75107 15.0521 4.04263 15.6812 4.42152C16.0677 4.65421 16.5564 4.58802 16.8702 4.26069L17.9135 3.17193C18.034 3.04631 18.2298 3.04631 18.3502 3.17193L19.9601 4.85183C20.0185 4.91268 20.0506 4.99358 20.0506 5.07965C20.0506 5.16571 20.0185 5.24661 19.9601 5.30746L18.9167 6.39627C18.603 6.72364 18.5396 7.23378 18.7626 7.63686C19.1258 8.29348 19.4052 8.99647 19.593 9.72626C19.7088 10.1759 20.0987 10.4899 20.5412 10.4899H22.0173C22.1875 10.4899 22.326 10.6344 22.326 10.8121V11.1797C22.326 11.3738 22.4768 11.5312 22.663 11.5312C22.8491 11.5312 22.9999 11.3738 22.9999 11.1797V10.8121C23 10.2467 22.5592 9.78678 22.0174 9.78678Z" fill="url(#paint1_linear_3_878)"/>
<path d="M10.6701 5.4553C7.53663 5.88402 5.1737 8.69759 5.1737 12C5.1737 15.6399 8.01164 18.6013 11.5 18.6013C14.9882 18.6013 17.8262 15.64 17.8262 12C17.8262 8.69759 15.4633 5.88402 12.3298 5.4553C12.1458 5.43032 11.9762 5.56565 11.952 5.75816C11.9278 5.95068 12.0577 6.12721 12.2423 6.15247C15.0415 6.53544 17.1523 9.04934 17.1523 12C17.1523 15.2522 14.6167 17.8982 11.5 17.8982C8.38319 17.8982 5.84753 15.2523 5.84753 12C5.84753 9.04934 7.9584 6.53544 10.7576 6.15247C10.9421 6.12721 11.0721 5.95068 11.0479 5.75816C11.0237 5.5656 10.8538 5.43032 10.6701 5.4553Z" fill="url(#paint2_linear_3_878)"/>
<defs>
<linearGradient id="paint0_linear_3_878" x1="23" y1="12" x2="0" y2="12" gradientUnits="userSpaceOnUse">
<stop stop-color="#184385"/>
<stop offset="1" stop-color="#88D1FF"/>
</linearGradient>
<linearGradient id="paint1_linear_3_878" x1="23" y1="12" x2="0" y2="12" gradientUnits="userSpaceOnUse">
<stop stop-color="#184385"/>
<stop offset="1" stop-color="#88D1FF"/>
</linearGradient>
<linearGradient id="paint2_linear_3_878" x1="23" y1="12" x2="0" y2="12" gradientUnits="userSpaceOnUse">
<stop stop-color="#184385"/>
<stop offset="1" stop-color="#88D1FF"/>
</linearGradient>
</defs>
</svg>
