<svg width="34" height="34" viewBox="0 0 34 34" fill="none" xmlns="http://www.w3.org/2000/svg">
<g clip-path="url(#clip0_47_480)">
<path d="M17 2.6C13.4 2.6 10.4 5.6 10.4 9.2C10.4 12.8 13.4 15.8 17 15.8C20.6 15.8 23.6 12.8 23.6 9.2C23.6 5.6 20.6 2.6 17 2.6ZM17 14C14.4 14 12.2 11.9 12.2 9.2C12.2 6.5 14.3 4.4 17 4.4C19.7 4.4 21.8 6.5 21.8 9.2C21.8 11.9 19.7 14 17 14Z" fill="white"/>
<path d="M24.5 20C22.5 18.9 19.8 18.2 17 18.2C14.2 18.2 11.5 18.8 9.49998 20C7.29998 21.2 6.09998 22.9 6.09998 24.8C6.09998 26.7 7.29998 28.4 9.49998 29.6C11.5 30.7 14.2 31.4 17 31.4C19.8 31.4 22.5 30.8 24.5 29.6C26.7 28.4 27.9 26.7 27.9 24.8C27.9 22.9 26.7 21.2 24.5 20ZM25.1 26.8C24.6 27.3 24 27.8 23.6 28C21.9 29 19.5 29.5 17 29.5C14.5 29.5 12.2 29 10.4 28C9.99998 27.8 9.39998 27.3 8.89998 26.8C8.29998 26.2 7.99998 25.5 7.99998 24.8C7.99998 24.1 8.29998 23.4 8.89998 22.8C9.39998 22.3 9.99998 21.9 10.4 21.6C12.1 20.6 14.5 20.1 17 20.1C19.5 20.1 21.8 20.6 23.6 21.6C24 21.8 24.6 22.3 25.1 22.8C25.7 23.4 26 24.1 26 24.8C26 25.5 25.7 26.2 25.1 26.8Z" fill="white"/>
</g>
<defs>
<clipPath id="clip0_47_480">
<rect width="34" height="34" fill="white"/>
</clipPath>
</defs>
</svg>
