<?xml version="1.0" encoding="utf-8"?>
<!DOCTYPE svg PUBLIC "-//W3C//DTD SVG 1.0//EN" "http://www.w3.org/TR/2001/REC-SVG-20010904/DTD/svg10.dtd">
<svg version="1.0" xmlns="http://www.w3.org/2000/svg" width="512px" height="512px" viewBox="0 0 512 512" preserveAspectRatio="xMidYMid meet">
 <g fill="#000000">
  <path d="M240.5 510.9 c-57.5 -3.2 -114.2 -27.4 -157.2 -67.1 -44.9 -41.6 -72.7 -95.3 -80.8 -156.3 -2.1 -15.9 -2.1 -47.1 0 -63 7.1 -53.6 29.7 -102.2 65.7 -141.2 41.4 -44.8 95.3 -72.7 156.3 -80.8 14.3 -1.9 45.7 -2.2 59.5 -0.5 45.8 5.5 89.8 23.1 125.2 49.8 55.5 42.1 91.2 103.5 100.3 172.7 1 7.4 1.6 19.5 1.6 31.5 0 12 -0.6 24.1 -1.6 31.5 -14.8 112.8 -100.1 201.5 -211.9 220.5 -6.5 1.1 -16.4 2.2 -22 2.5 -5.5 0.3 -12.6 0.7 -15.6 0.9 -3 0.1 -11.8 -0.1 -19.5 -0.5z m44.1 -32.4 c43 -5.7 83.1 -23.3 116.5 -51.3 34.9 -29.3 61 -71.2 72.5 -116.5 8.6 -33.9 8.6 -75.5 0 -109.4 -20.4 -80.3 -82.6 -142.5 -162.9 -162.9 -33.9 -8.6 -75.5 -8.6 -109.4 0 -80.3 20.4 -142.5 82.6 -162.9 162.9 -8.6 33.9 -8.6 75.5 0 109.4 22.4 88.2 94.7 153.6 185 167.3 15.7 2.4 45 2.6 61.2 0.5z"/>
  <path d="M172.3 349.9 c-4.4 -1.3 -9 -6.2 -10.3 -11 -2.2 -8.1 -2 -8.3 36.7 -47.1 l35.8 -35.8 -36.2 -36.2 c-33.8 -34 -36.2 -36.6 -36.8 -40.6 -1.6 -9.8 7.9 -19.3 17.7 -17.7 4 0.6 6.6 3 40.6 36.8 l36.2 36.2 36.3 -36.2 c33.9 -33.8 36.5 -36.2 40.5 -36.8 9.8 -1.6 19.3 7.9 17.7 17.7 -0.6 4 -3 6.6 -36.8 40.6 l-36.2 36.2 35.8 35.8 c38.9 38.9 38.9 38.9 36.7 47.4 -2.2 7.9 -10.9 13 -18.7 10.9 -3 -0.9 -10.8 -8.1 -39.5 -36.8 l-35.8 -35.8 -35.8 35.8 c-39.3 39.3 -39.1 39.1 -47.9 36.6z"/>
 </g>
</svg>