<svg width="74" height="74" viewBox="0 0 74 74" fill="none" xmlns="http://www.w3.org/2000/svg">
<path d="M48.2363 10.5V17.8623C48.2363 19.8461 49.8428 21.4579 51.8125 21.458H59.7373V57.4004C59.7373 60.8824 56.9184 63.7195 53.4473 63.7197H19.791C16.3197 63.7197 13.5 60.8825 13.5 57.4004V16.8184C13.5002 13.3363 16.3198 10.5 19.791 10.5H48.2363ZM42.2012 38.5342C40.2653 38.5342 38.4487 39.2908 37.0801 40.666C35.7131 42.0385 34.961 43.8655 34.9609 45.8145C34.9609 47.7636 35.7131 49.5913 37.0791 50.9639C38.4475 52.3388 40.2646 53.0956 42.1992 53.0957C43.683 53.0957 45.1046 52.6501 46.3125 51.8086L46.6934 51.5439L47.0371 51.3037L47.333 51.6006L53.1787 57.4746C53.2625 57.5587 53.3716 57.6035 53.4893 57.6035C53.6069 57.6035 53.716 57.5588 53.7998 57.4746L53.8047 57.4688C53.9722 57.2953 53.9714 57.0143 53.8008 56.8428L47.9541 50.9688L47.6621 50.6748L47.8975 50.333L48.1602 49.9502L48.3398 49.6758C50.1246 46.8143 49.719 43.0747 47.3223 40.666C46.2098 39.5482 44.8012 38.8395 43.2754 38.6133C42.9231 38.5611 42.5636 38.5342 42.2012 38.5342ZM23.1553 39.668C22.9154 39.6682 22.7149 39.8663 22.7148 40.1133C22.7148 40.3602 22.9154 40.5584 23.1553 40.5586H28.1758C28.4011 40.5586 28.5917 40.384 28.6143 40.1592C28.6153 40.1489 28.6162 40.1357 28.6162 40.1143C28.6162 40.0911 28.6151 40.0778 28.6143 40.0703V40.0674C28.5917 39.8425 28.4011 39.668 28.1758 39.668H23.1553ZM23.1553 32.874C22.9155 32.8742 22.715 33.0715 22.7148 33.3184C22.7148 33.5653 22.9154 33.7635 23.1553 33.7637H50.0811C50.321 33.7636 50.5215 33.5654 50.5215 33.3184C50.5214 33.0714 50.3209 32.8741 50.0811 32.874H23.1553ZM23.1553 26.0801C22.9154 26.0803 22.7148 26.2784 22.7148 26.5254C22.7151 26.7721 22.9155 26.9695 23.1553 26.9697H50.0811C50.3209 26.9696 50.5212 26.7722 50.5215 26.5254C50.5215 26.2784 50.321 26.0802 50.0811 26.0801H23.1553Z" stroke="#09346F"/>
<path d="M51.6934 19.9558H57.6983L49.4985 12.1426V17.7515C49.4985 18.9674 50.4833 19.9558 51.6934 19.9558Z" fill="#09346F"/>
<path d="M23.0375 27.3594H49.9627C50.4811 27.3594 50.903 26.9355 50.903 26.4146C50.903 25.8936 50.4811 25.4697 49.9627 25.4697H23.0375C22.519 25.4697 22.0972 25.8936 22.0972 26.4146C22.0972 26.9355 22.519 27.3594 23.0375 27.3594Z" fill="#09346F"/>
<path d="M23.0374 34.1534H49.9626C50.481 34.1534 50.9029 33.7295 50.9029 33.2085C50.9029 32.6876 50.481 32.2637 49.9626 32.2637H23.0374C22.5189 32.2637 22.097 32.6876 22.097 33.2085C22.097 33.7295 22.5189 34.1534 23.0374 34.1534Z" fill="#09346F"/>
<path d="M28.0577 39.0559H23.0375C22.519 39.0559 22.0972 39.4798 22.0972 40.0008C22.0972 40.5218 22.519 40.9457 23.0375 40.9457H28.0577C28.544 40.9457 28.9459 40.5731 28.9936 40.0967C28.9969 40.0655 28.998 40.0332 28.998 39.9997C28.998 39.9662 28.9969 39.935 28.9936 39.9026C28.9459 39.4263 28.544 39.0537 28.0577 39.0537V39.0559Z" fill="#09346F"/>
<path d="M48.4527 50.1224C50.5776 47.0312 50.2013 42.8591 47.5568 40.2019C46.3689 39.0083 44.8624 38.2497 43.2293 38.0076C42.853 37.9519 42.4689 37.9229 42.0814 37.9229C40.0132 37.9229 38.0681 38.7327 36.606 40.2019C35.1461 41.6688 34.3412 43.6232 34.3412 45.7037C34.3412 47.7842 35.145 49.7386 36.6049 51.2056C38.067 52.6758 40.012 53.4846 42.0803 53.4846C43.6645 53.4846 45.1855 53.0083 46.4788 52.108L46.8596 51.8425L52.7047 57.7158C52.8824 57.8943 53.1188 57.9925 53.3697 57.9925C53.6206 57.9925 53.8571 57.8943 54.0347 57.7158C54.4011 57.3477 54.4011 56.7476 54.0347 56.3794L48.1885 50.505L48.4516 50.1224H48.4527ZM46.2657 49.8301L46.2057 49.8915C45.2388 50.853 43.9976 51.4365 42.6598 51.567C42.4689 51.586 42.2757 51.5949 42.0814 51.5949C40.5161 51.5949 39.044 50.9825 37.9371 49.8703C35.9366 47.8601 35.6868 44.7477 37.1866 42.4631C37.4009 42.1362 37.6507 41.8272 37.9371 41.5394C39.0451 40.4272 40.5172 39.8148 42.0825 39.8148C43.6479 39.8148 45.12 40.4272 46.2279 41.5394C48.4994 43.8229 48.5127 47.531 46.2668 49.8301H46.2657Z" fill="#1FAE1A"/>
</svg>
