<svg width="34" height="34" viewBox="0 0 34 34" fill="none" xmlns="http://www.w3.org/2000/svg">
<g clip-path="url(#clip0_47_449)">
<path d="M17.0001 2.59998C13.4001 2.59998 10.4001 5.59998 10.4001 9.19998C10.4001 12.8 13.4001 15.8 17.0001 15.8C20.6001 15.8 23.6001 12.8 23.6001 9.19998C23.6001 5.59998 20.6001 2.59998 17.0001 2.59998ZM17.0001 14C14.4001 14 12.2001 11.9 12.2001 9.19998C12.2001 6.49998 14.3001 4.39998 17.0001 4.39998C19.7001 4.39998 21.8001 6.49998 21.8001 9.19998C21.8001 11.9 19.7001 14 17.0001 14Z" fill="#1FAE1A"/>
<path d="M24.5001 20C22.5001 18.9 19.8001 18.2 17.0001 18.2C14.2001 18.2 11.5001 18.8 9.5001 20C7.3001 21.2 6.1001 22.8999 6.1001 24.7999C6.1001 26.6999 7.3001 28.4 9.5001 29.6C11.5001 30.7 14.2001 31.4 17.0001 31.4C19.8001 31.4 22.5001 30.8 24.5001 29.6C26.7001 28.4 27.9001 26.6999 27.9001 24.7999C27.9001 22.8999 26.7001 21.2 24.5001 20ZM25.1001 26.7999C24.6001 27.2999 24.0001 27.8 23.6001 28C21.9001 29 19.5001 29.5 17.0001 29.5C14.5001 29.5 12.2001 29 10.4001 28C10.0001 27.8 9.4001 27.2999 8.9001 26.7999C8.3001 26.1999 8.0001 25.4999 8.0001 24.7999C8.0001 24.0999 8.3001 23.3999 8.9001 22.7999C9.4001 22.2999 10.0001 21.9 10.4001 21.6C12.1001 20.6 14.5001 20.1 17.0001 20.1C19.5001 20.1 21.8001 20.6 23.6001 21.6C24.0001 21.8 24.6001 22.2999 25.1001 22.7999C25.7001 23.3999 26.0001 24.0999 26.0001 24.7999C26.0001 25.4999 25.7001 26.1999 25.1001 26.7999Z" fill="#1FAE1A"/>
</g>
<defs>
<clipPath id="clip0_47_449">
<rect width="34" height="34" fill="white"/>
</clipPath>
</defs>
</svg>
