<svg width="34" height="34" viewBox="0 0 34 34" fill="none" xmlns="http://www.w3.org/2000/svg">
<g clip-path="url(#clip0_47_469)">
<path d="M29.7535 21.125C29.2108 18.0317 28.6681 14.8841 28.1254 11.7908C27.9626 10.814 27.7998 9.78287 27.5827 8.80603C27.2571 6.9609 25.8461 5.38711 23.9467 5.0615C23.0242 4.89869 22.0473 4.95296 21.179 4.95296C19.551 4.95296 17.9229 4.95296 16.2406 4.95296C14.7753 4.95296 13.3643 4.95296 11.8991 4.95296C10.5966 4.95296 9.40273 5.00723 8.26309 5.76699C7.28625 6.47248 6.63503 7.44932 6.41796 8.64322C5.60393 13.3103 4.73563 17.9774 3.97587 22.5903C3.59599 24.8153 4.57282 27.0946 6.52649 28.2342C7.61187 28.8854 8.80578 28.994 9.99969 28.994H18.8997H23.2412C24.1638 28.994 25.0864 29.0482 25.9547 28.8312C28.2339 28.2885 29.862 26.2263 30.0248 23.8927C30.1876 23.0244 29.9163 22.0476 29.7535 21.125ZM27.0943 26.5519C26.226 27.3116 25.1406 27.3659 24.0553 27.3659C22.9156 27.3659 21.776 27.3659 20.5821 27.3659C17.543 27.3659 14.504 27.3659 11.5192 27.3659C10.7594 27.3659 10.054 27.3659 9.29419 27.3659C7.39479 27.3659 5.76673 26.0092 5.54966 24.1098C5.44112 23.2958 5.6582 22.4817 5.821 21.722C6.03808 20.3652 6.30942 19.0085 6.52649 17.6518C6.90637 14.7756 7.5576 11.9536 8.04602 9.07737C8.37163 7.44931 9.61981 6.58102 11.2479 6.58102H14.6125H22.8071C24.3266 6.58102 25.6291 7.34078 26.0089 8.8603C26.1717 9.51152 26.226 10.1627 26.3345 10.814C26.8772 13.7987 27.3656 16.7292 27.9083 19.714C28.2882 22.0476 29.2108 24.8153 27.0943 26.5519Z" fill="#1FAE1A"/>
<path d="M20.5279 9.18585V11.1938C20.4736 12.3334 19.8767 13.4731 18.8456 14.07C16.7291 15.3725 13.8529 14.07 13.473 11.5737C13.3645 10.8139 13.4187 9.99988 13.4187 9.24012C13.4187 8.20901 11.7907 8.20901 11.7907 9.24012C11.7907 10.1084 11.7364 10.9767 11.8449 11.7907C12.062 13.3645 13.0388 14.7755 14.3956 15.5895C17.2718 17.2176 21.0706 15.6438 21.9389 12.442C22.2102 11.4109 22.1017 10.3255 22.1017 9.24012C22.156 8.10048 20.5279 8.10048 20.5279 9.18585Z" fill="#1FAE1A"/>
</g>
<defs>
<clipPath id="clip0_47_469">
<rect width="34" height="34" fill="white"/>
</clipPath>
</defs>
</svg>
