<svg width="74" height="74" viewBox="0 0 74 74" fill="none" xmlns="http://www.w3.org/2000/svg">
<path d="M63.6775 25.9375C61.7775 25.9375 60.2313 27.4838 60.2313 29.3838V41.0988C59.735 40.8263 59.1763 40.6813 58.5925 40.6813C57.6813 40.6813 56.8263 41.035 56.185 41.675L47.01 50.85C46.2163 51.6437 45.8138 52.6163 45.8138 53.7388V58.8975H44.52C44.1063 58.8975 43.77 59.2337 43.77 59.6475V66.375C43.77 66.7887 44.1063 67.125 44.52 67.125H59.99C60.4038 67.125 60.74 66.7887 60.74 66.375V59.65C60.74 59.2363 60.4038 58.9 59.99 58.9H58.6963V57.9675L65.8775 51.0337C66.6938 50.245 67.125 49.2288 67.125 48.095V29.385C67.1238 27.4838 65.5775 25.9375 63.6775 25.9375ZM59.2388 60.4V65.625H45.2688V60.4H59.2388ZM65.6238 48.095C65.6238 48.8338 65.365 49.4425 64.8338 49.955L57.4238 57.11C57.2775 57.2513 57.195 57.4463 57.195 57.65V58.9H47.3125V53.7412C47.3125 53.02 47.56 52.4225 48.07 51.9125L57.245 42.7375C57.6025 42.38 58.0813 42.1825 58.5925 42.1825C59.1038 42.1825 59.5813 42.38 59.94 42.7375C60.2975 43.095 60.495 43.5737 60.495 44.085C60.495 44.5962 60.2975 45.075 59.94 45.4325L55.5688 49.8037C55.2763 50.0962 55.2763 50.5713 55.5688 50.8638C55.8613 51.1563 56.3363 51.1563 56.63 50.8638L61.0013 46.4925C61.6425 45.8513 61.995 44.9962 61.995 44.085C61.995 43.6237 61.9038 43.1762 61.7313 42.765V29.385C61.7313 28.3113 62.605 27.4387 63.6775 27.4387C64.75 27.4387 65.6238 28.3113 65.6238 29.385V48.095Z" fill="#09346F"/>
<path d="M29.4788 58.9H28.185V53.7412C28.185 52.6187 27.7825 51.6462 26.9888 50.8525L17.8138 41.6775C17.1725 41.0362 16.3175 40.6837 15.4062 40.6837C14.8225 40.6837 14.2637 40.8287 13.7675 41.1012V29.385C13.7675 27.485 12.2212 25.9387 10.3212 25.9387C8.42125 25.9387 6.875 27.485 6.875 29.385V48.095C6.875 49.23 7.30625 50.2462 8.1225 51.0337L15.3038 57.9675V58.9H14.0087C13.595 58.9 13.2587 59.2362 13.2587 59.65V66.375C13.2587 66.7887 13.595 67.125 14.0087 67.125H29.4788C29.8925 67.125 30.2288 66.7887 30.2288 66.375V59.65C30.2288 59.235 29.8925 58.9 29.4788 58.9ZM9.1625 49.955C8.63125 49.4425 8.3725 48.8337 8.3725 48.095V29.385C8.3725 28.3112 9.24625 27.4387 10.3187 27.4387C11.3912 27.4387 12.265 28.3125 12.265 29.385V42.765C12.0925 43.1775 12.0012 43.6237 12.0012 44.085C12.0012 44.9962 12.3537 45.8512 12.995 46.4925L17.3663 50.8637C17.6588 51.1562 18.1337 51.1562 18.4275 50.8637C18.72 50.5712 18.72 50.0962 18.4275 49.8037L14.0563 45.4325C13.6988 45.075 13.5012 44.5962 13.5012 44.085C13.5012 43.5737 13.6988 43.095 14.0563 42.7375C14.4138 42.38 14.8925 42.1825 15.4038 42.1825C15.915 42.1825 16.3925 42.38 16.7513 42.7375L25.9263 51.9125C26.4363 52.4225 26.6838 53.02 26.6838 53.7412V58.9H16.8025V57.65C16.8025 57.4462 16.72 57.2512 16.5725 57.11L9.1625 49.955ZM28.7288 65.625H14.7587V60.4H28.7288V65.625Z" fill="#09346F"/>
<path d="M43.8563 39.4238L42.8825 37.7862C42.12 36.5037 40.875 35.7187 39.4238 35.5812V17.4438C40.1538 16.8713 40.6763 16.0462 40.8588 15.1012H46.49C46.9525 15.1012 47.3288 15.4775 47.3288 15.94V16.0837C47.3288 17.0537 47.9213 17.8863 48.7638 18.2413L45.0263 28.715C44.8363 29.2475 44.7513 29.7363 44.7513 30.3013V30.5088C44.7513 33.2713 46.9988 35.5187 49.7625 35.5187C52.5263 35.5187 54.7725 33.2713 54.7725 30.5088V30.3013C54.7725 29.7363 54.6875 29.2475 54.4975 28.715L50.76 18.2413C51.6025 17.8875 52.195 17.0537 52.195 16.0837V15.94C52.195 15.5262 51.8588 15.19 51.445 15.19C51.0313 15.19 50.695 15.5262 50.695 15.94V16.0837C50.695 16.5462 50.3188 16.9225 49.8563 16.9225H49.665C49.2025 16.9225 48.8263 16.5462 48.8263 16.0837V15.94C48.8263 14.65 47.7775 13.6013 46.4875 13.6013H40.8563C40.6725 12.6563 40.15 11.8325 39.4213 11.2587V9.29875C39.4213 7.9625 38.335 6.875 36.9988 6.875C35.6625 6.875 34.575 7.9625 34.575 9.29875V11.2587C33.845 11.8312 33.3225 12.6563 33.14 13.6013H27.5088C26.2188 13.6013 25.17 14.65 25.17 15.94V16.0837C25.17 16.5462 24.7938 16.9225 24.3313 16.9225H24.14C23.6775 16.9225 23.3013 16.5462 23.3013 16.0837V15.94C23.3013 15.5262 22.965 15.19 22.5513 15.19C22.1375 15.19 21.8013 15.5262 21.8013 15.94V16.0837C21.8013 17.0537 22.3938 17.8863 23.2363 18.2413L19.4988 28.715C19.3088 29.2475 19.2238 29.7363 19.2238 30.3013V30.5088C19.2238 33.2713 21.4713 35.5187 24.2338 35.5187C26.9963 35.5187 29.245 33.2713 29.245 30.5088V30.3013C29.245 29.7363 29.16 29.2463 28.97 28.715L25.2325 18.2413C26.075 17.8875 26.6675 17.0537 26.6675 16.0837V15.94C26.6675 15.4775 27.0438 15.1012 27.5063 15.1012H33.1375C33.3213 16.0462 33.8438 16.87 34.5725 17.4438V35.5812C33.1213 35.7187 31.8763 36.5037 31.1138 37.7862L30.14 39.4238C30.0025 39.655 29.9988 39.9438 30.1325 40.1775C30.2663 40.4113 30.515 40.5563 30.785 40.5563H43.21C43.48 40.5563 43.7288 40.4113 43.8625 40.1775C43.9963 39.9438 43.9938 39.6563 43.8563 39.4238ZM53.2725 30.5088C53.2725 32.4438 51.6988 34.0187 49.7625 34.0187C47.8263 34.0187 46.2513 32.4438 46.2513 30.5088V30.365H53.2725V30.5088ZM49.7625 19.9038L52.9588 28.8638H46.565L49.7625 19.9038ZM27.7463 30.5088C27.7463 32.4438 26.1713 34.0187 24.235 34.0187C22.2988 34.0187 20.725 32.4438 20.725 30.5088V30.365H27.7463V30.5088ZM27.4313 28.8638H21.0375L24.235 19.9038L27.4313 28.8638ZM36.075 9.29875C36.075 8.78875 36.49 8.375 36.9988 8.375C37.5075 8.375 37.9225 8.79 37.9225 9.29875V10.53C37.6263 10.4587 37.3163 10.4188 36.9988 10.4188C36.6813 10.4188 36.3713 10.4575 36.075 10.53V9.29875ZM34.5663 14.3513C34.5663 13.01 35.6575 11.92 36.9988 11.92C38.34 11.92 39.4313 13.0113 39.4313 14.3525C39.4313 15.6937 38.34 16.7837 36.9988 16.7837C35.6575 16.7837 34.5663 15.6925 34.5663 14.3513ZM37.9225 18.1725V35.5575H36.0738V18.1725C36.3713 18.2437 36.68 18.2837 36.9988 18.2837C37.3175 18.2837 37.6263 18.245 37.9225 18.1725ZM32.105 39.0575L32.405 38.5537C32.9788 37.5887 33.9138 37.0575 35.0363 37.0575H38.96C40.0825 37.0575 41.0175 37.5887 41.5913 38.5537L41.8913 39.0575H32.105Z" fill="#1FAE1A"/>
</svg>
