<svg width="74" height="74" viewBox="0 0 74 74" fill="none" xmlns="http://www.w3.org/2000/svg">
<g clip-path="url(#clip0_2099_422)">
<path d="M53.5731 16.4406H47.8929V13.7458C47.8929 13.2423 47.1809 13.0602 46.7035 13.0602H42.3196L42.2244 12.7955C41.3718 10.422 39.2054 9.00444 36.4304 9.00444H36.4153C33.84 8.90941 31.5122 10.4344 30.6352 12.7989L30.5376 13.0602H26.2258C25.81 13.0602 25.1049 13.205 25.1049 13.7458V16.4406H19.4224C16.5219 16.4711 14.1395 18.7055 13.9977 21.5303V60.2575C13.9977 62.8719 16.4313 64.9999 19.4224 64.9999H53.5731C56.5642 64.9999 58.9977 62.8731 58.9977 60.2575V21.5303C58.856 18.7066 56.4748 16.4722 53.572 16.4406H53.5731ZM27.0691 14.9733H31.2671C31.7492 14.9065 32.1267 14.5513 32.2126 14.0829L32.2173 14.0637C32.6703 12.1438 34.3987 10.7659 36.4211 10.7139H36.4327H36.4443C38.455 10.7727 40.1556 12.1529 40.5772 14.0682L40.5796 14.0806C40.6702 14.5648 41.0825 14.9291 41.5843 14.9721H45.931V21.1728H27.0691V14.9721V14.9733ZM53.5754 63.088H19.4247C17.723 63.088 15.9643 62.0291 15.9643 60.2586V21.4862C16.1269 19.7327 17.6103 18.3853 19.4177 18.3536H25.1072V22.1775C25.1688 22.7171 25.6497 23.1142 26.2061 23.087H26.227H46.7255C47.2936 23.1164 47.8035 22.716 47.8929 22.1684V18.3536H53.5754C55.3898 18.3864 56.8744 19.7327 57.0347 21.4862V21.5213L57.0358 60.2586C57.0358 62.0302 55.276 63.088 53.5754 63.088Z" fill="#09346F"/>
<path d="M31.1741 39.8124C31.1846 39.5748 31.0998 39.3485 30.9348 39.1732C30.9151 39.1528 30.8976 39.1358 30.8802 39.12L30.8593 39.1008C30.4934 38.7252 29.8766 38.7037 29.4852 39.0532L24.7563 43.4427L22.6016 41.2661C22.2368 40.8916 21.6282 40.8679 21.2355 41.2073C20.8569 41.6044 20.8603 42.2175 21.2448 42.6112L24.1 45.4599C24.2661 45.642 24.5066 45.7393 24.7552 45.7336C25.0235 45.7303 25.2674 45.6284 25.4498 45.4463L25.4602 45.4361L30.8744 40.4334C31.0591 40.2683 31.1637 40.0499 31.1741 39.8124Z" fill="#1FAE1A"/>
<path d="M51.0768 42.1306H35.1119C34.5706 42.1306 34.1304 42.5594 34.1304 43.0866C34.1304 43.6138 34.5706 44.0425 35.1119 44.0425H51.0768C51.6181 44.0425 52.0584 43.6138 52.0584 43.0866C52.0584 42.5594 51.6181 42.1306 51.0768 42.1306Z" fill="#09346F"/>
<path d="M31.1741 28.9959C31.1846 28.7583 31.0998 28.532 30.9348 28.3567C30.9151 28.3363 30.8976 28.3193 30.8802 28.3024L30.8593 28.2831C30.4934 27.9075 29.8766 27.886 29.4852 28.2356L24.7563 32.6251L22.6016 30.4485C22.2368 30.074 21.6282 30.0502 21.2355 30.3896C20.8569 30.7867 20.8603 31.3999 21.2448 31.7936L24.1 34.6422C24.2661 34.8244 24.5066 34.9239 24.7552 34.916C25.0235 34.9126 25.2674 34.8108 25.4498 34.6287L25.4602 34.6185L30.8744 29.6158C31.0591 29.4506 31.1637 29.2323 31.1741 28.9947V28.9959Z" fill="#1FAE1A"/>
<path d="M51.0768 31.314H35.1119C34.5706 31.314 34.1304 31.7427 34.1304 32.2699C34.1304 32.7971 34.5706 33.2259 35.1119 33.2259H51.0768C51.6181 33.2259 52.0584 32.7971 52.0584 32.2699C52.0584 31.7427 51.6181 31.314 51.0768 31.314Z" fill="#09346F"/>
<path d="M31.1741 50.6289C31.1846 50.3913 31.0998 50.1651 30.9348 49.9897C30.9162 49.9694 30.8976 49.9524 30.8791 49.9354L30.8593 49.9162C30.4934 49.5406 29.8766 49.5191 29.4852 49.8687L24.7563 54.2582L22.6016 52.0815C22.2368 51.7071 21.6282 51.6822 21.2355 52.0227C20.8569 52.4198 20.8603 53.033 21.2448 53.4267L24.1 56.2753C24.2661 56.4574 24.5066 56.5547 24.7552 56.5491C25.0235 56.5457 25.2674 56.4439 25.4498 56.2617L25.4602 56.2515L30.8744 51.2489C31.0591 51.0837 31.1637 50.8654 31.1741 50.6278V50.6289Z" fill="#1FAE1A"/>
<path d="M51.0768 52.947H35.1119C34.5706 52.947 34.1304 53.3758 34.1304 53.903C34.1304 54.4302 34.5706 54.8589 35.1119 54.8589H51.0768C51.6181 54.8589 52.0584 54.4302 52.0584 53.903C52.0584 53.3758 51.6181 52.947 51.0768 52.947Z" fill="#09346F"/>
</g>
<defs>
<clipPath id="clip0_2099_422">
<rect width="45" height="56" fill="white" transform="translate(14 9)"/>
</clipPath>
</defs>
</svg>
