<svg width="50" height="50" viewBox="0 0 50 50" fill="none" xmlns="http://www.w3.org/2000/svg">
<path d="M39.2266 29.3775L40.3192 28.7288C42.2557 27.5788 43.0447 25.1521 42.1545 23.0814L41.6508 21.9144C41.2997 21.098 41.2997 20.1614 41.6508 19.3456L42.1545 18.1768C43.0447 16.1079 42.2557 13.6806 40.3204 12.5313L39.2266 11.8819C38.462 11.4276 37.912 10.6698 37.7156 9.80273L37.4364 8.56193C36.9401 6.36506 34.8682 4.86088 32.6342 5.07244L31.3684 5.18951C30.483 5.26998 29.5904 4.9822 28.9234 4.39627L27.9685 3.55728C26.2759 2.07075 23.7242 2.07075 22.031 3.55728L21.0761 4.39627C20.4085 4.9822 19.5201 5.27243 18.6323 5.18951L17.3665 5.07244C15.1264 4.85719 13.0588 6.36567 12.5631 8.56253L12.2832 9.80274C12.0875 10.6698 11.5375 11.4276 10.7729 11.8819L9.6803 12.5313C7.74378 13.6812 6.95541 16.1086 7.84559 18.1774L8.34801 19.345C8.69924 20.1614 8.69924 21.098 8.34801 21.9144L7.84559 23.082C6.95541 25.1508 7.74378 27.5788 9.6803 28.7288L10.7729 29.3775C11.5369 29.8323 12.0875 30.5896 12.2832 31.4567L12.3073 31.5634L8.06598 39.9627C7.64453 40.7986 7.73585 41.7819 8.30476 42.5264C8.88071 43.2709 9.80783 43.608 10.7209 43.4113L14.2889 42.6528L15.799 45.975C16.1853 46.8319 17.0071 47.3727 17.9483 47.3938H17.9974C18.9175 47.3938 19.7393 46.8881 20.1537 46.0663L23.8945 38.663C24.258 38.7547 24.6271 38.8173 24.9998 38.8173C25.3727 38.8173 25.7419 38.7546 26.1054 38.6629L29.8464 46.0663C30.2607 46.8881 31.0825 47.3938 31.9956 47.3938H32.0518C32.9929 47.3727 33.8147 46.8319 34.201 45.975L35.7041 42.6528L39.2721 43.4114C40.1922 43.608 41.1193 43.2709 41.6882 42.5264C42.2642 41.7819 42.3555 40.7986 41.934 39.9628L37.691 31.5663L37.7156 31.4567C37.912 30.5896 38.462 29.8323 39.2266 29.3775ZM19.0369 45.5044C18.8332 45.9118 18.4259 46.2138 17.9693 46.1436C17.5128 46.1365 17.1265 45.8767 16.9369 45.4623L15.2231 41.6836C15.1177 41.4518 14.893 41.3113 14.6542 41.3113C14.612 41.3113 14.5629 41.3183 14.5207 41.3253L10.461 42.1892C10.0115 42.2876 9.57604 42.1261 9.29513 41.7608C9.01417 41.3956 8.97202 40.932 9.1757 40.5246L12.7844 33.377C13.5131 35.1898 15.3603 36.3588 17.3666 36.1869L18.6329 36.0699C19.5165 35.9821 20.4073 36.2747 21.0761 36.8638L22.031 37.7027C22.2489 37.894 22.4819 38.0586 22.7247 38.2007L19.0369 45.5044ZM22.8553 36.7637L21.9005 35.9248C21.0786 35.2041 20.0146 34.8065 18.9293 34.8065C18.7921 34.8065 18.6549 34.8138 18.5177 34.826L17.2519 34.9431C15.6263 35.0992 14.1398 34.0078 13.7813 32.4213L13.5015 31.1811C13.2307 29.9811 12.4686 28.9324 11.4107 28.3044L10.3181 27.6556C8.91932 26.824 8.34925 25.0704 8.9931 23.5759L9.49552 22.4083C9.98148 21.2778 9.98148 19.9816 9.49552 18.8511L8.9931 17.6835C8.34985 16.189 8.91932 14.4355 10.3181 13.6044L11.4107 12.955C12.4686 12.3264 13.2307 11.2777 13.5015 10.0771L13.7813 8.83755C14.1392 7.24981 15.6288 6.16141 17.2519 6.3163L18.5177 6.43338C19.7426 6.54675 20.9762 6.14619 21.9005 5.33403L22.8553 4.49564C24.0797 3.4213 25.9235 3.42314 27.1442 4.49504L28.099 5.33403C29.0246 6.14618 30.2611 6.5425 31.483 6.43336L32.7488 6.31628C34.3768 6.1602 35.8596 7.251 36.2194 8.8369L36.4986 10.0771C36.7694 11.2776 37.5315 12.327 38.5888 12.955L39.6826 13.6044C41.0801 14.4355 41.6496 16.189 41.0082 17.6829L40.5046 18.8511C40.018 19.9816 40.018 21.2778 40.5046 22.4089L41.0082 23.5753C41.6508 25.071 41.0801 26.8252 39.6826 27.6556L38.59 28.3044C37.5315 28.9324 36.7694 29.9811 36.4986 31.1823L36.2194 32.4213C35.8596 34.0078 34.3683 35.0992 32.7488 34.9431L31.483 34.826C30.2648 34.7163 29.0246 35.1138 28.099 35.9248L27.1442 36.7637C25.9235 37.8393 24.0785 37.8381 22.8553 36.7637ZM40.6979 41.7608C40.417 42.1261 39.9745 42.2876 39.532 42.1892L35.4723 41.3253C35.1843 41.2762 34.8964 41.4167 34.7769 41.6836L33.0632 45.4623C32.8735 45.8767 32.4872 46.1365 32.0237 46.1436H31.9956C31.5531 46.1436 31.1598 45.9048 30.9561 45.5044L27.2696 38.2032C27.5142 38.0605 27.749 37.8954 27.9685 37.7027L28.9234 36.8638C29.5904 36.276 30.4733 35.9821 31.3684 36.0699L32.6342 36.1869C34.6392 36.3574 36.4796 35.195 37.2112 33.3884L40.8173 40.5246C41.028 40.932 40.9788 41.3956 40.6979 41.7608ZM37.0815 20.6297C37.0815 13.9666 31.661 8.54608 24.9985 8.54608C18.3354 8.54608 12.9143 13.9666 12.9143 20.6297C12.9143 27.2934 18.3354 32.7139 24.9985 32.7139C31.661 32.7139 37.0815 27.2934 37.0815 20.6297ZM24.9985 31.4652C19.0238 31.4652 14.163 26.6044 14.163 20.6297C14.163 14.6555 19.0238 9.7948 24.9985 9.7948C30.972 9.7948 35.8328 14.6555 35.8328 20.6297C35.8328 26.6044 30.972 31.4652 24.9985 31.4652ZM30.9318 17.5402L28.1075 16.9042L26.6283 14.4135C26.2838 13.8318 25.6741 13.4843 24.9979 13.4843C24.3223 13.4843 23.7126 13.8318 23.3675 14.4135L21.8901 16.9042L19.0634 17.5402C18.4043 17.689 17.886 18.1615 17.6769 18.8042C17.4683 19.4468 17.6098 20.134 18.0561 20.6413L19.9689 22.8174L19.7 25.7014C19.6378 26.374 19.9262 27.013 20.4731 27.4105C21.0194 27.8081 21.7176 27.8824 22.3383 27.6178L24.9985 26.4715L27.6588 27.6178C27.9027 27.7227 28.1588 27.7751 28.4124 27.7751C28.8051 27.7751 29.1917 27.652 29.5245 27.4093C30.0709 27.0117 30.3599 26.374 30.2965 25.7014L30.0282 22.8174L31.9415 20.6413C32.3866 20.1334 32.5281 19.4462 32.3196 18.8036C32.111 18.1609 31.5916 17.689 30.9318 17.5402ZM31.0025 19.8169L28.9124 22.1949C28.799 22.3235 28.7441 22.4936 28.76 22.665L29.0526 25.8179C29.0843 26.1483 28.8794 26.3349 28.7892 26.3996C28.7002 26.4666 28.4563 26.6008 28.1527 26.4715L25.2455 25.2185C25.1668 25.1844 25.0827 25.1673 24.9985 25.1673C24.9144 25.1673 24.8303 25.1844 24.7516 25.2185L21.8444 26.4715C21.5383 26.6032 21.2969 26.4666 21.2072 26.3996C21.1176 26.3349 20.9128 26.1483 20.9438 25.8173L21.2371 22.665C21.253 22.4936 21.1975 22.3241 21.0841 22.1949L18.9939 19.8169C18.7744 19.5669 18.8305 19.295 18.8646 19.1901C18.8988 19.0846 19.0134 18.8316 19.3378 18.7585L22.4267 18.0633C22.5944 18.0255 22.7389 17.9207 22.8267 17.7725L24.4419 15.0501C24.6114 14.7641 24.8876 14.733 24.9979 14.733C25.1089 14.733 25.3851 14.7641 25.5546 15.0501L27.171 17.7731C27.2588 17.9207 27.4027 18.0255 27.571 18.0633L30.6586 18.7585C30.983 18.8316 31.0977 19.0846 31.1318 19.1901C31.1659 19.295 31.2221 19.5676 31.0025 19.8169Z" fill="white"/>
</svg>
