<svg width="22" height="23" viewBox="0 0 22 23" fill="none" xmlns="http://www.w3.org/2000/svg">
<path d="M2.74217 0.731014C3.34757 0.0924861 4.33095 0.0260437 5.01366 0.551327L5.14647 0.664608L8.70897 4.41265C9.33096 5.06789 9.33157 6.0949 8.70995 6.75055L7.20507 8.33648C8.27919 11.3323 10.5335 13.7114 13.3525 14.8521L13.3711 14.8599L14.7656 13.3912C15.371 12.7527 16.3544 12.6862 17.0371 13.2115L17.1699 13.3248L20.7324 17.0728C21.3544 17.728 21.355 18.755 20.7334 19.4107L19.8525 20.3394C18.0955 22.1926 15.4164 22.7134 13.0723 21.6646C9.98318 20.2825 7.46953 18.5845 5.54784 16.5611C3.62676 14.5383 2.01586 11.8935 0.704089 8.64508C-0.241405 6.30357 0.162629 3.63602 1.74608 1.79156L1.75389 1.78277L1.94139 1.57476L1.95018 1.56597L2.74217 0.731014ZM4.45507 1.38824C4.17361 1.12615 3.73279 1.13914 3.46776 1.41851L2.67577 2.25347L2.50487 2.44293L2.26659 2.74176C1.1361 4.27294 0.869031 6.38455 1.63085 8.27105C2.90793 11.4335 4.45906 13.9612 6.27342 15.8716C8.08718 17.7814 10.484 19.4118 13.4805 20.7525C15.4414 21.6298 17.6643 21.1934 19.126 19.6519L20.0078 18.7222C20.2633 18.4525 20.2627 18.0307 20.0068 17.7613L16.4785 14.0484C16.197 13.7863 15.7562 13.7993 15.4912 14.0787L13.8672 15.7916C13.7279 15.9383 13.514 15.9863 13.3252 15.9136L12.9834 15.7828L12.9756 15.7798C9.78514 14.4888 7.27873 11.7638 6.15917 8.36969C6.10152 8.19491 6.14485 8.00226 6.27147 7.86871L7.98436 6.06207C8.23987 5.79232 8.23927 5.37057 7.98339 5.10113L4.45507 1.38824Z" fill="black"/>
<path d="M2.59717 0.593419C3.23148 -0.0755532 4.23673 -0.182452 4.98877 0.290684L5.13525 0.393224L5.14404 0.399083L5.27588 0.512364C5.28118 0.516889 5.2867 0.521958 5.2915 0.527013L8.854 4.27506L8.97607 4.41666C9.54662 5.1489 9.50647 6.20119 8.85498 6.88834L7.43506 8.38346C8.49263 11.2361 10.6425 13.5017 13.3208 14.6217L14.6206 13.2536C15.2549 12.5846 16.2602 12.4777 17.0122 12.9508L17.1587 13.0534L17.1675 13.0592L17.2993 13.1725C17.3046 13.177 17.3101 13.1821 17.3149 13.1872L20.8774 16.9352L20.9995 17.0768C21.5701 17.8091 21.5299 18.8613 20.8784 19.5485L19.9976 20.4772C18.1816 22.3925 15.4114 22.9303 12.9907 21.8473C9.88316 20.4569 7.34613 18.745 5.40283 16.6989C3.46049 14.6537 1.8377 11.9857 0.519041 8.72037C-0.453013 6.31309 -0.0403386 3.56481 1.59424 1.6608L1.59619 1.65885L1.604 1.65006L1.60498 1.64908L1.79248 1.44108L1.79931 1.43326L1.80908 1.42447L2.59717 0.593419ZM4.88623 0.705724C4.28423 0.246885 3.41982 0.307041 2.88721 0.86881L2.09521 1.70377L2.09033 1.70865L1.90283 1.91471L1.89599 1.92447C0.365461 3.70922 -0.029195 6.29536 0.889159 8.56998C2.19402 11.8013 3.79315 14.4232 5.69287 16.4235C7.59293 18.4241 10.0833 20.1083 13.1538 21.4821C15.4213 22.4967 18.0096 21.9927 19.7075 20.2018L20.5884 19.2731C21.1024 18.7309 21.1341 17.9009 20.6841 17.3229L20.5874 17.2106L17.0308 13.4694L16.9097 13.3659C16.3077 12.9071 15.4432 12.9672 14.9106 13.529L13.5161 14.9977C13.4588 15.058 13.3701 15.0768 13.2935 15.0446L13.2749 15.0368C10.4022 13.8733 8.10927 11.4501 7.01709 8.40397C6.99161 8.33291 7.0081 8.25365 7.06006 8.19889L8.56494 6.61295C9.07891 6.07079 9.11061 5.24075 8.66064 4.66276L8.56396 4.55045L5.00732 0.809239L4.88623 0.705724ZM3.32275 1.28092C3.66347 0.92178 4.22973 0.905201 4.59131 1.24186L4.6001 1.25065L8.12842 4.96354C8.45735 5.30996 8.45813 5.85281 8.12939 6.19986L6.4165 8.00651C6.34051 8.08677 6.31462 8.20268 6.34912 8.30729C7.45053 11.6461 9.91435 14.3236 13.0454 15.5924L13.0532 15.5954L13.0552 15.5963L13.397 15.7272L13.4839 15.7467C13.5718 15.7529 13.6596 15.7198 13.7222 15.654L15.3462 13.9411C15.6869 13.5819 16.2532 13.5654 16.6147 13.902L16.6235 13.9108L20.1519 17.6237C20.4808 17.9701 20.4816 18.513 20.1528 18.86L19.271 19.7897C17.7503 21.3933 15.4364 21.8467 13.3989 20.9352C10.3839 19.5862 7.96374 17.9419 6.12842 16.0094C4.29283 14.0766 2.72979 11.5258 1.4458 8.34635C0.658938 6.39783 0.932656 4.21188 2.10596 2.62272L2.10986 2.61686L2.34814 2.31803L2.35596 2.30826L2.52685 2.11979L2.53076 2.11588L3.32275 1.28092ZM4.23877 1.4733C4.04094 1.35212 3.7785 1.38163 3.61279 1.55631L2.82373 2.38639L2.82471 2.38736L2.66162 2.56803L2.42334 2.86686C1.33947 4.3395 1.08031 6.37406 1.81592 8.19596C3.08605 11.3412 4.62541 13.846 6.41846 15.734C8.21063 17.6211 10.5842 19.2376 13.562 20.57C15.4462 21.413 17.5783 20.9936 18.981 19.5143L19.8628 18.5846L19.9224 18.5075C20.0246 18.3455 20.0241 18.1382 19.9214 17.9762L19.8618 17.8991L16.3423 14.195L16.2622 14.1335C16.0644 14.0123 15.8019 14.0418 15.6362 14.2165L14.0122 15.9294C13.8415 16.1092 13.5909 16.1829 13.354 16.1305L13.2534 16.1003L12.9136 15.9694L12.9058 15.9674L12.9009 15.9655C9.6536 14.6515 7.1064 11.8798 5.96924 8.43229C5.88849 8.18743 5.94934 7.91793 6.12646 7.73111L7.83935 5.92447L7.89892 5.84733C8.0012 5.68531 8.00069 5.47809 7.89795 5.31608L7.83838 5.23893L4.31885 1.53483L4.23877 1.4733Z" fill="black"/>
</svg>
