<svg width="26" height="26" viewBox="0 0 26 26" fill="none" xmlns="http://www.w3.org/2000/svg">
<path d="M17.9971 17.4892H16.4387L15.6291 17.1289V16.146C16.7626 15.5215 17.6518 14.5065 18.1145 13.2835H18.809C20.4628 13.2835 21.8083 11.938 21.8083 10.2843C21.8083 9.21637 21.2469 8.27763 20.4041 7.74611V7.4041C20.4042 3.32144 17.0827 0 13 0C8.91734 0 5.59584 3.32144 5.59584 7.40415V7.7459C4.75287 8.27743 4.19128 9.21622 4.19128 10.2843C4.19128 11.938 5.53678 13.2835 7.19057 13.2835H7.88541C8.34813 14.5065 9.23736 15.5215 10.3709 16.146V17.1249L9.55221 17.4892H8.00287C3.59008 17.4892 0 21.0794 0 25.4921C0 25.7726 0.227348 26 0.507812 26H10.7148C10.9953 26 11.2227 25.7726 11.2227 25.4921C11.2227 25.2117 10.9953 24.9843 10.7148 24.9843H1.03386C1.28705 21.4749 4.14365 18.6757 7.67686 18.5126C7.67554 18.5168 7.67371 18.5209 7.67249 18.5252C7.63131 18.6699 7.65644 18.8254 7.74104 18.9498L10.1433 22.4813C10.2284 22.6064 10.3648 22.6871 10.5154 22.7013C10.5314 22.7028 10.5473 22.7035 10.5632 22.7035C10.6972 22.7035 10.8266 22.6505 10.9222 22.5548L12.9955 20.4816L15.0687 22.5548C15.1643 22.6505 15.2937 22.7035 15.4277 22.7035C15.4435 22.7035 15.4595 22.7028 15.4754 22.7013C15.6261 22.6871 15.7626 22.6064 15.8477 22.4813L18.2499 18.9498C18.3345 18.8254 18.3596 18.6698 18.3185 18.5252C18.3172 18.5208 18.3154 18.5166 18.314 18.5123C21.8514 18.671 24.7127 21.472 24.9661 24.9844H15.2852C15.0047 24.9844 14.7773 25.2118 14.7773 25.4922C14.7773 25.7726 15.0047 26 15.2852 26H25.4922C25.7726 26 26 25.7726 26 25.4922C26 21.0794 22.4099 17.4892 17.9971 17.4892ZM17.4402 7.90241C16.3969 7.75916 15.4178 7.34346 14.5859 6.68534C14.4036 6.54102 14.1464 6.53909 13.9618 6.68072C12.8709 7.51769 11.5659 7.9601 10.188 7.9601C9.63503 7.9601 9.08974 7.88642 8.56157 7.74326V7.48509C8.56157 5.03785 10.5525 3.04687 12.9998 3.04687C15.447 3.04687 17.4381 5.03785 17.4381 7.48509C17.4381 7.48509 17.4391 7.8888 17.4402 7.90241ZM18.8091 12.268H18.4659V8.30059H18.8091C19.9029 8.30059 20.7927 9.19042 20.7927 10.2843C20.7927 11.3781 19.9029 12.268 18.8091 12.268ZM13 1.01562C16.5017 1.01562 19.354 3.84764 19.3877 7.34153C19.2004 7.30477 19.007 7.28496 18.809 7.28496H18.4496C18.3439 4.37007 15.9401 2.03125 12.9998 2.03125C10.0595 2.03125 7.65568 4.37007 7.54995 7.28496H7.19063C6.99278 7.28496 6.79956 7.30472 6.61228 7.34148C6.6461 3.84764 9.49833 1.01562 13 1.01562ZM7.5337 12.268H7.19063C6.0968 12.268 5.20696 11.3781 5.20696 10.2843C5.20696 9.19042 6.0968 8.30054 7.19063 8.30054H7.53375L7.5337 12.268ZM8.54933 11.3549V8.78844C9.08436 8.91275 9.63305 8.97572 10.188 8.97572C11.6616 8.97572 13.0637 8.54078 14.2667 7.71406C15.2123 8.38052 16.3001 8.79428 17.4503 8.92702V11.3822C17.4474 11.8583 17.3694 12.3168 17.2275 12.7465H14.8025C14.5927 12.1532 14.0264 11.7268 13.3622 11.7268H12.6824C11.8401 11.7268 11.1549 12.4121 11.1549 13.2543C11.1549 14.0966 11.8401 14.7818 12.6824 14.7818H13.3622C14.0264 14.7818 14.5928 14.3555 14.8025 13.7622H16.7418C15.9488 14.9906 14.5678 15.8055 13 15.8055C10.5459 15.8055 8.54933 13.809 8.54933 11.3549ZM13.8741 13.2543C13.8741 13.5366 13.6445 13.7662 13.3622 13.7662H12.6824C12.4002 13.7662 12.1706 13.5366 12.1706 13.2543C12.1706 12.972 12.4002 12.7425 12.6824 12.7425H13.3622C13.6445 12.7425 13.8741 12.972 13.8741 13.2543ZM13 16.8212C13.5614 16.8212 14.1033 16.7359 14.6135 16.578V17.4272L12.9955 19.0452L11.3865 17.4362V16.578C11.8967 16.7359 12.4386 16.8212 13 16.8212ZM10.6379 21.4028L8.92262 18.8811L10.6335 18.1197L12.2773 19.7634L10.6379 21.4028ZM15.353 21.4028L13.7136 19.7634L15.3574 18.1197L17.0683 18.8811L15.353 21.4028Z" fill="white"/>
<path d="M13 24.9843C12.8664 24.9843 12.7354 25.0386 12.641 25.1331C12.5465 25.2276 12.4922 25.3586 12.4922 25.4921C12.4922 25.6257 12.5465 25.7567 12.641 25.8511C12.7354 25.9456 12.8664 26 13 26C13.1336 26 13.2646 25.9456 13.359 25.8511C13.4535 25.7567 13.5078 25.6257 13.5078 25.4921C13.5078 25.3586 13.4535 25.2276 13.359 25.1331C13.2646 25.0386 13.1336 24.9843 13 24.9843Z" fill="white"/>
</svg>
