<svg width="32" height="32" viewBox="0 0 32 32" fill="none" xmlns="http://www.w3.org/2000/svg">
<g clip-path="url(#clip0_14_4439)">
<path d="M16 32C24.8366 32 32 24.8366 32 16C32 7.16344 24.8366 0 16 0C7.16344 0 0 7.16344 0 16C0 24.8366 7.16344 32 16 32Z" fill="#1877F2"/>
<path d="M13.9874 17.0882H11.8947C11.5663 17.0882 11.4484 16.9682 11.4484 16.6377C11.4484 15.7858 11.4484 14.9345 11.4484 14.084C11.4484 13.7556 11.5726 13.6314 11.8968 13.6314H13.9874V11.7893C13.9626 10.9618 14.1611 10.1429 14.5621 9.41873C14.979 8.68759 15.647 8.13254 16.4421 7.85663C16.9581 7.66887 17.5035 7.57476 18.0526 7.57873H20.1221C20.419 7.57873 20.5432 7.70926 20.5432 7.99979V10.4019C20.5432 10.7029 20.4168 10.8229 20.1221 10.8229C19.5558 10.8229 18.9895 10.8229 18.4253 10.8461C17.8611 10.8693 17.5537 11.1261 17.5537 11.7156C17.5411 12.3472 17.5537 12.9661 17.5537 13.6103H19.9853C20.3305 13.6103 20.4484 13.7282 20.4484 14.0756C20.4484 14.9177 20.4484 15.764 20.4484 16.6145C20.4484 16.9577 20.339 17.065 19.9916 17.0672H17.5411V23.9177C17.5411 24.284 17.4274 24.3998 17.0653 24.3998H14.4295C14.1116 24.3998 13.9874 24.2756 13.9874 23.9577V17.0882Z" fill="white"/>
</g>
<defs>
<clipPath id="clip0_14_4439">
<rect width="32" height="32" fill="white"/>
</clipPath>
</defs>
</svg>
