<svg width="59" height="56" viewBox="0 0 59 56" fill="none" xmlns="http://www.w3.org/2000/svg">
<path d="M23.4308 16.2898L24.4355 17.2715L27.6254 14.1548M7.08724 45.8866V8.22982C7.08724 4.18167 10.4459 0.900018 14.589 0.900018H50.4589C54.5684 0.900018 57.8999 4.15503 57.8999 8.17041V9.37176H47.522M50.738 0.899902C46.6286 0.899902 43.2971 4.15491 43.2971 8.1703V47.5701C43.2971 51.6183 39.9384 54.8999 35.7953 54.8999H35.7069C31.5974 54.8999 28.2659 51.6449 28.2659 47.6295V46.4282H0.899902V47.6295C0.899902 51.6448 4.23127 54.8999 8.34086 54.8999H35.3427M13.2647 28.5347H36.8319M13.2647 34.2694H36.8319M13.2647 40.0042H31.1928M25.2011 22.6231C25.2011 22.6231 19.3924 20.1893 19.3924 17.1871V10.6778L25.1795 8.73296L30.9667 10.6778V17.1871C30.9664 20.1892 25.2011 22.6231 25.2011 22.6231Z" stroke="#CA0000" stroke-width="1.8" stroke-miterlimit="10" stroke-linecap="round" stroke-linejoin="round"/>
</svg>
