<svg width="23" height="27" viewBox="0 0 23 27" fill="none" xmlns="http://www.w3.org/2000/svg">
<path d="M20.7998 10.8613C20.7998 5.71123 16.4998 1.50021 11.1504 1.5C5.80079 1.5 1.5 5.71111 1.5 10.8613C1.50005 11.6479 1.74713 12.6015 2.20801 13.6777C2.6657 14.7464 3.3147 15.8904 4.06934 17.0439C5.57878 19.3513 7.4751 21.6405 9.00488 23.3623C9.62374 24.0588 10.0308 24.514 10.3877 24.8066C10.7153 25.0752 10.9281 25.1455 11.1504 25.1455C11.3725 25.1454 11.5848 25.075 11.9121 24.8066C12.2691 24.514 12.677 24.0589 13.2959 23.3623C14.8256 21.6406 16.7221 19.3512 18.2314 17.0439C18.986 15.8905 19.6342 14.7463 20.0918 13.6777C20.5527 12.6015 20.7998 11.6479 20.7998 10.8613ZM22.2998 10.8613C22.2998 11.9339 21.9707 13.1011 21.4707 14.2686C20.9673 15.444 20.2699 16.6674 19.4863 17.8652C17.9193 20.2607 15.9687 22.612 14.417 24.3584C13.8308 25.0182 13.3335 25.5813 12.8633 25.9668C12.364 26.3761 11.8262 26.6454 11.1504 26.6455C10.4744 26.6455 9.93592 26.3762 9.43652 25.9668C8.9663 25.5813 8.46905 25.0182 7.88281 24.3584C6.33117 22.612 4.38049 20.2606 2.81348 17.8652C2.0299 16.6674 1.33249 15.4439 0.829102 14.2686C0.329118 13.1011 4.44952e-05 11.9339 0 10.8613C0 4.84313 5.01247 0 11.1504 0C17.2881 0.000205673 22.2998 4.84325 22.2998 10.8613Z" fill="#4E535C"/>
<path d="M14.2998 11.1504C14.2998 9.41082 12.8899 8.00021 11.1504 8C9.41069 8 8 9.41069 8 11.1504C8.00021 12.8899 9.41082 14.2998 11.1504 14.2998C12.8898 14.2996 14.2996 12.8898 14.2998 11.1504ZM15.7998 11.1504C15.7996 13.7182 13.7182 15.7996 11.1504 15.7998C8.5824 15.7998 6.50021 13.7183 6.5 11.1504C6.5 8.58227 8.58227 6.5 11.1504 6.5C13.7183 6.50021 15.7998 8.5824 15.7998 11.1504Z" fill="#4E535C"/>
</svg>
