<svg width="48" height="54" viewBox="0 0 48 54" fill="none" xmlns="http://www.w3.org/2000/svg">
<path d="M46.4516 43.7168H48V45.2988H46.4516V43.7168Z" fill="#CA0000"/>
<path d="M47.2258 3.09846C45.8243 3.09846 44.7393 2.3817 43.5905 1.62285C42.3827 0.825082 41.1335 0 39.4839 0C37.8342 0 36.5852 0.825082 35.3773 1.62295C34.2285 2.3818 33.1435 3.09846 31.7419 3.09846C30.3404 3.09846 29.2554 2.3817 28.1066 1.62285C26.8988 0.825082 25.6497 0 24 0C22.3503 0 21.1013 0.825082 19.8935 1.62295C18.7447 2.3818 17.6597 3.09846 16.2581 3.09846C14.8566 3.09846 13.7716 2.3817 12.6228 1.62285C11.4148 0.825082 10.1658 0 8.51613 0C6.86648 0 5.61745 0.825082 4.4096 1.62295C3.2608 2.3818 2.17569 3.09846 0.774194 3.09846H0V7.05354H1.54839V4.62649C3.02947 4.4183 4.19995 3.64532 5.25027 2.95144C6.36263 2.21664 7.32335 1.58203 8.51613 1.58203C9.7089 1.58203 10.6696 2.21664 11.7821 2.95154C12.8322 3.64521 14.0033 4.41608 15.4839 4.62449V22.8901H17.0323V4.62449C18.5129 4.41619 19.684 3.64521 20.7341 2.95144C21.5961 2.38201 22.3675 1.87418 23.2258 1.67379V39.8274H24.7742V1.67389C25.6325 1.87429 26.4038 2.38212 27.2659 2.95154C28.316 3.64521 29.4871 4.41619 30.9676 4.62459V22.8902H32.516V4.62449C33.9967 4.41619 35.1678 3.64521 36.2179 2.95144C37.3305 2.21664 38.2912 1.58203 39.4839 1.58203C40.6765 1.58203 41.6374 2.21664 42.7498 2.95144C43.8002 3.64532 44.9705 4.4183 46.4516 4.62649V42.1348H48V3.09846H47.2258Z" fill="#CA0000"/>
<path d="M46.4516 49.1796C45.4058 48.9774 44.5189 48.3916 43.5905 47.7784C42.5792 47.1104 41.5381 46.4252 40.2582 46.2194V7.60029H38.7098V46.2194C37.4298 46.4253 36.3887 47.1104 35.3774 47.7784C34.449 48.3916 33.5621 48.9769 32.5162 49.1791V29.2181H30.9678V49.1791C29.9221 48.9769 29.035 48.3916 28.1067 47.7784C26.8988 46.9805 25.6499 46.1555 24.0002 46.1555C22.3506 46.1555 21.1015 46.9805 19.8937 47.7784C18.9653 48.3916 18.0783 48.9769 17.0325 49.1791V29.2181H15.4841V49.1791C14.4383 48.9769 13.5513 48.3916 12.623 47.7784C11.6117 47.1104 10.5705 46.4252 9.29053 46.2194V7.60029H7.74214V46.2194C6.46224 46.4253 5.42111 47.1104 4.40981 47.7784C3.48129 48.3917 2.59458 48.9775 1.54859 49.1796V8.63557H0.000206535V54H0.774194C3.33182 54 5.34173 52.7201 6.80919 51.7856C7.45992 51.3712 8.19737 50.9015 8.51613 50.9015C8.83489 50.9015 9.57244 51.3712 10.2231 51.7856C11.6905 52.7201 13.7004 54 16.2581 54C18.8157 54 20.8256 52.7201 22.2931 51.7856C22.9438 51.3712 23.6812 50.9015 24.0001 50.9015C24.3189 50.9015 25.0563 51.3712 25.707 51.7856C27.1745 52.7201 29.1843 54 31.7419 54C34.2996 54 36.3095 52.7201 37.7769 51.7856C38.4276 51.3712 39.1651 50.9015 39.4839 50.9015C39.8026 50.9015 40.5401 51.3712 41.1908 51.7856C42.6584 52.7201 44.6682 54 47.2258 54H48V46.8809H46.4516V49.1796ZM46.4516 52.3692C44.6868 52.1477 43.219 51.213 42.0099 50.443C41.0243 49.8153 40.2458 49.3195 39.484 49.3195C38.7222 49.3195 37.9436 49.8153 36.9579 50.443C35.5763 51.3229 33.8565 52.418 31.7419 52.418C29.6274 52.418 27.9077 51.3229 26.526 50.443C25.5404 49.8153 24.7619 49.3195 24.0001 49.3195C23.2383 49.3195 22.4598 49.8153 21.4741 50.443C20.0923 51.3229 18.3727 52.418 16.2581 52.418C14.1434 52.418 12.4238 51.3229 11.0422 50.443C10.0565 49.8152 9.27794 49.3195 8.51613 49.3195C7.75432 49.3195 6.97579 49.8153 5.99019 50.443C4.78111 51.213 3.31324 52.1478 1.54839 52.3692V50.7819C3.02947 50.5737 4.19995 49.8008 5.25027 49.107C6.36274 48.3722 7.32335 47.7376 8.51613 47.7376C9.7089 47.7376 10.6696 48.3722 11.7821 49.107C13.009 49.9174 14.3997 50.8359 16.2581 50.8359C18.1165 50.8359 19.5072 49.9174 20.7341 49.1069C21.8466 48.3721 22.8073 47.7375 24.0001 47.7375C25.1929 47.7375 26.1536 48.3721 27.266 49.1069C28.4929 49.9174 29.8836 50.8359 31.7419 50.8359C33.6004 50.8359 34.9911 49.9174 36.218 49.1069C37.3305 48.3721 38.2912 47.7375 39.484 47.7375C40.6768 47.7375 41.6375 48.3721 42.7499 49.1069C43.8003 49.8008 44.9706 50.5737 46.4517 50.7818V52.3692H46.4516Z" fill="#CA0000"/>
<path d="M43.3548 5.95266H44.9032V7.53469H43.3548V5.95266Z" fill="#CA0000"/>
<path d="M43.3548 9.11672H44.9032V10.6988H43.3548V9.11672Z" fill="#CA0000"/>
</svg>
