<svg width="56" height="57" viewBox="0 0 56 57" fill="none" xmlns="http://www.w3.org/2000/svg">
<path d="M23.8152 11.7758C22.0576 10.1939 19.6849 9.49091 17.3121 9.75454C13.3576 10.2818 10.2818 13.4455 10.2818 17.2242V17.4C10.3697 18.8939 11.1606 23.7273 16.8727 24.6939C17.4 24.7818 17.8394 24.8697 18.3667 24.8697C20.3 24.8697 22.1455 24.1667 23.6394 22.9364C25.397 21.5303 26.3636 19.4212 26.3636 17.3121C26.3636 15.1152 25.4849 13.1818 23.8152 11.7758ZM22.497 21.5303C21.003 22.7606 19.0697 23.2879 17.1364 22.9364C12.8303 22.2333 12.1273 18.7182 12.0394 17.2242C12.0394 17.2242 12.0394 17.2242 12.0394 17.1364C12.0394 14.2364 14.4121 11.7758 17.4879 11.4242C19.3333 11.1606 21.2667 11.7758 22.6727 13.0061C23.903 14.1485 24.6061 15.6424 24.6061 17.2242C24.6061 18.8939 23.8152 20.4758 22.497 21.5303Z" fill="#CA0000"/>
<path d="M29.6152 31.0212L33.0424 27.7697C33.3939 27.5061 33.3939 26.9788 33.1303 26.6273L30.6697 23.2C31.0212 22.497 31.3727 21.7939 31.5485 21.0909L35.9424 20.3C36.3818 20.2121 36.6455 19.8606 36.6455 19.4212V14.8515C36.6455 14.4121 36.2939 14.0606 35.9424 13.9727L31.4606 13.1818C31.197 12.4788 30.9333 11.7758 30.4939 11.0727L32.9545 7.64545C33.2182 7.29394 33.1303 6.76667 32.8667 6.50303C32.7788 6.41515 29.6152 3.51515 29.3515 3.33939C29.0879 3.16364 28.8242 3.07576 28.4727 3.16364C28.3848 3.16364 28.2091 3.25152 28.1212 3.33939L24.7818 5.44848C24.6939 5.53636 24.6061 5.53636 24.5182 5.62424C23.8152 5.27273 23.1121 5.00909 22.4091 4.83333L21.5303 0.70303C21.4424 0.263636 21.0909 0 20.6515 0H15.8182C15.3788 0 15.0273 0.351515 14.9394 0.790909L14.0606 4.83333C13.2697 5.09697 12.4788 5.36061 11.7758 5.71212C9.84243 4.48182 8.78788 3.86667 8.17273 3.51515C8.08485 3.42727 8.08485 3.42727 7.99697 3.33939V3.42727C7.4697 3.16364 7.38182 3.25152 7.11818 3.33939C7.11818 3.42727 6.94243 3.51515 6.94243 3.60303L3.60303 6.67879C3.25152 7.0303 3.25152 7.55758 3.60303 7.90909C3.86667 8.26061 4.65758 9.31515 5.27273 10.1939L5.97576 11.3364C5.62424 12.0394 5.27273 12.7424 5.09697 13.4455L0.70303 14.2364C0.263636 14.3242 0 14.6758 0 15.1152V19.6848C0 20.0364 0.175758 20.3 0.439394 20.4758C0.615152 20.5636 0.70303 20.6515 0.878788 20.5636L5.18485 21.2667C5.36061 21.7939 5.62424 22.497 6.15152 23.3758C4.92121 25.1333 4.21818 26.1 3.86667 26.7152C3.77879 26.803 3.77879 26.803 3.69091 26.8909C3.42727 27.4182 3.42727 27.5061 3.60303 27.7697C3.69091 27.9455 3.77879 28.0333 3.95455 28.1212C4.5697 28.6485 7.11818 31.0212 7.29394 31.197C7.55758 31.3727 7.82121 31.4606 8.17273 31.3727C8.26061 31.3727 8.43636 31.2848 8.52424 31.197L12.1273 28.8242C12.8303 29.1758 13.5333 29.4394 14.2364 29.6152L15.1152 33.7455C15.203 34.1848 15.5545 34.4485 15.9939 34.4485H20.8273C21.2667 34.4485 21.6182 34.1848 21.7061 33.7455L22.5848 29.6152C23.3758 29.3515 24.1667 29.0879 24.8697 28.7364L28.6485 31.1091C28.8242 31.3727 29.2636 31.2848 29.6152 31.0212ZM24.4303 26.9788C23.5515 27.5061 22.5849 27.8576 21.5303 28.1212C21.1788 28.2091 20.9152 28.4727 20.9152 28.8242L20.0364 32.6909H16.6091L15.8182 28.7364C15.7303 28.3848 15.4667 28.1212 15.203 28.0333C14.2364 27.7697 13.2697 27.4182 12.4788 26.9788C12.2152 26.803 11.8636 26.803 11.6 26.9788L7.99697 29.2636C7.4697 29 6.67879 28.297 5.53636 27.2424C6.32727 26.1 7.82121 23.9909 7.82121 23.903C7.99697 23.6394 7.99697 23.2 7.82121 22.9364C7.20606 21.8818 6.94243 21.2667 6.67879 20.5636L6.59091 20.2121C6.50303 19.9485 6.23939 19.6848 5.88788 19.6848L1.6697 18.9818C1.6697 18.3667 1.6697 17.3121 1.6697 15.9061L5.88788 15.1152C6.23939 15.0273 6.50303 14.7636 6.59091 14.5C6.76667 13.8848 7.11818 12.9182 7.64545 12.0394C7.99697 11.7758 8.08485 11.5121 7.64545 10.897C7.64545 10.8091 7.55758 10.8091 7.55758 10.7212C7.38182 10.3697 7.0303 10.0182 6.67879 9.40303L5.36061 7.4697C5.8 7.0303 6.50303 6.41515 7.4697 5.44848L7.73333 5.27273C8.87576 5.97576 11.2485 7.4697 11.3364 7.55758C11.6 7.73333 11.9515 7.73333 12.2152 7.55758C13.0939 7.11818 14.0606 6.67879 15.1152 6.41515C15.4667 6.32727 15.7303 6.06364 15.7303 5.71212L16.6091 1.75758H20.0364L20.8273 5.71212C20.9152 6.06364 21.1788 6.32727 21.4424 6.41515C22.4091 6.67879 23.2 6.94242 24.0788 7.38182C24.3424 7.55758 24.7818 7.64545 25.0455 7.38182L28.6485 5.09697C29.0879 5.53636 29.8788 6.23939 31.0212 7.29394L28.6485 10.6333C28.4727 10.897 28.4727 11.3364 28.6485 11.6C29.1758 12.4788 29.6152 13.3576 29.8788 14.2364C29.9667 14.5879 30.2303 14.7636 30.5818 14.8515L34.8 15.5545V18.6303L30.5818 19.4212C30.2303 19.5091 29.9667 19.6848 29.8788 20.0364C29.7909 21.0909 29.3515 21.9697 28.8242 22.7606C28.6485 23.0242 28.6485 23.4636 28.8242 23.7273L31.197 26.9788L28.8242 29.1758L25.3091 26.9788C25.0455 26.8909 24.6939 26.803 24.4303 26.9788Z" fill="#CA0000"/>
<path d="M48.4212 40.7758C47.8061 37.7 44.994 35.4152 41.9182 35.4152C38.2273 35.4152 35.2394 38.403 35.2394 42.094V42.1818C35.2394 44.203 36.1182 45.9606 37.7 47.2788C38.9303 48.2455 40.4243 48.7727 41.9182 48.7727C43.1485 48.7727 44.2909 48.4212 45.4334 47.8061C47.8061 46.4 48.9485 43.5879 48.4212 40.7758ZM44.4667 46.3121C43.0606 47.1909 40.7758 47.5424 38.8424 45.9606C37.7 44.9939 37.0849 43.6758 37.0849 42.1818C37.0849 42.1818 37.0849 42.1818 37.0849 42.094C37.0849 39.3697 39.2818 37.1727 42.0061 37.1727C44.2909 37.1727 46.3121 38.8424 46.8394 41.0394C47.1909 43.6758 45.8727 45.4333 44.4667 46.3121Z" fill="#CA0000"/>
<path d="M55.8909 40.1606C55.8909 39.7212 55.6273 39.3697 55.1879 39.2818L51.9364 38.6667C51.7606 38.1394 51.5848 37.6121 51.3212 37.1727L53.0788 34.4485C53.3424 34.097 53.2545 33.6576 52.9909 33.3061C51.6727 32.0758 50.9697 31.2849 50.5303 30.9333C50.5303 30.8455 50.4424 30.7576 50.3545 30.7576C49.9152 30.4061 49.8273 30.4061 49.5636 30.494C49.3879 30.494 49.3 30.5818 49.2121 30.6697C48.7727 30.9333 47.5424 31.8121 46.7515 32.3394L46.6636 32.4273C46.2242 32.1636 45.7848 31.9879 45.2576 31.9L44.6424 28.6485C44.5545 28.2091 44.203 27.9455 43.7636 27.9455H40.0727C39.6333 27.9455 39.2818 28.297 39.1939 28.7364L38.5788 31.9C38.0515 32.0758 37.5242 32.2515 37.0848 32.5152C36.2939 31.9879 34.5364 30.8455 34.3606 30.6697C33.9212 30.4061 33.3939 30.4939 33.1303 30.8455L31.6364 32.5152C31.5485 32.603 31.5485 32.603 31.4606 32.6909L30.5818 33.5697C30.3182 33.8333 30.2303 34.3606 30.4939 34.7121C30.4939 34.8 31.7242 36.5576 32.3394 37.4364C32.0758 37.9636 31.9 38.4909 31.7242 39.0182L28.5606 39.5455C28.1212 39.6333 27.8576 39.9849 27.8576 40.4243V44.1152C27.9455 44.6424 28.0333 44.7303 28.297 44.9061C28.3848 44.9939 28.5606 44.994 28.7364 44.994L31.8121 45.5212C31.9879 45.9606 32.1636 46.4 32.4273 47.0152C31.9879 47.6303 31.2848 48.6849 30.9333 49.3L30.6697 49.7394C30.4061 50.1788 30.4939 50.7061 30.9333 50.9697L33.4818 53.4303C33.7455 53.6061 34.0091 53.694 34.3606 53.694C34.4485 53.694 34.6242 53.6061 34.7121 53.5182L37.3485 51.6727C37.7879 51.8485 38.2273 52.1121 38.7545 52.2L39.3697 55.4515C39.4576 55.8909 39.8091 56.1546 40.2485 56.1546H43.7636C44.203 56.1546 44.5545 55.8909 44.6424 55.4515L45.2576 52.2C45.7848 52.0243 46.3121 51.8485 46.7515 51.5849L49.4758 53.4303C49.8273 53.694 50.2667 53.6061 50.6182 53.3424L53.1667 50.7061C53.4303 50.4424 53.5182 49.9152 53.2545 49.5637L51.4091 46.8394C51.6727 46.3121 51.8485 45.8727 52.0242 45.2576L55.1879 44.6424C55.6273 44.5546 55.8909 44.203 55.8909 43.7636V40.1606ZM51.1455 43.7636C50.7939 43.8515 50.5303 44.1152 50.4424 44.3788C50.2667 45.1697 49.9151 45.8727 49.5636 46.4879C49.3879 46.7515 49.3879 47.103 49.5636 47.4546L51.3212 50.003L49.7394 51.5849L47.1909 49.8273C46.9273 49.6515 46.5758 49.6515 46.2242 49.8273C45.6091 50.1788 44.8182 50.5303 44.1152 50.7061C43.7636 50.794 43.5879 51.0576 43.5 51.4091L42.9727 54.4849H40.7758L40.1606 51.497C40.0727 51.1455 39.8091 50.8818 39.5455 50.794C38.8424 50.6182 38.1394 50.3546 37.5242 50.003C37.2606 49.8273 36.9091 49.8273 36.5576 50.0909L34.0091 51.8485C33.6576 51.497 33.1303 50.9697 32.4273 50.2667C33.0424 49.3879 34.097 47.8061 34.097 47.7182C34.2727 47.4546 34.2727 47.103 34.097 46.7515C33.6576 45.9606 33.4818 45.4333 33.3061 44.9061L33.2182 44.6424C33.2182 44.203 32.9545 43.9394 32.603 43.9394L29.6152 43.4121C29.6152 42.797 29.6152 41.8303 29.6152 41.2152L32.603 40.6C32.9545 40.5121 33.2182 40.2485 33.3061 39.897C33.3939 39.4576 33.7454 38.5788 34.097 37.8758C34.097 37.7879 34.1848 37.7879 34.1848 37.7C34.2727 37.4364 34.3606 37.3485 34.097 36.8212C34.097 36.7333 34.0091 36.7333 33.9212 36.6455C33.6576 36.2061 33.2182 35.503 32.3394 34.2727C32.3394 34.2727 32.3394 34.2727 32.4273 34.1849L34.0091 32.603C34.5364 33.0424 35.4151 33.5697 36.5576 34.3606C36.8212 34.5364 37.1727 34.5364 37.5242 34.3606C38.1394 34.0091 38.8424 33.6576 39.6333 33.4818C39.9848 33.3939 40.1606 33.1303 40.2485 32.7788L40.8636 29.7909H43.0606L43.6758 32.7788C43.7636 33.1303 43.9394 33.3939 44.2909 33.4818C44.9939 33.6576 45.5212 33.9212 46.1364 34.1849C46.4879 34.5364 46.8394 34.4485 47.1909 34.1849C47.5424 33.9212 47.2788 34.097 47.2788 34.097C47.4545 34.0091 47.5424 33.9212 47.7182 33.8333C48.2455 33.4818 49.1242 32.8667 49.6515 32.4273L51.2333 34.0091L49.5636 36.5576C49.3879 36.8212 49.3879 37.1727 49.5636 37.5243C49.9151 38.2273 50.2667 38.9303 50.4424 39.6333C50.5303 39.9849 50.7939 40.1606 51.1455 40.2485L54.1333 40.7758V42.9727L51.1455 43.7636Z" fill="#CA0000"/>
<path d="M23.5515 50.7939C15.6424 50.6182 9.05152 44.7303 7.82121 37.0849L9.22727 38.4909C9.57879 38.8424 10.1061 38.8424 10.4576 38.4909C10.8091 38.1394 10.8091 37.6121 10.4576 37.2606L7.29394 34.1849C6.94243 33.8333 6.41515 33.8333 6.06364 34.1849L2.98788 37.3485C2.63636 37.7 2.63636 38.2273 2.98788 38.5788C3.33939 38.9303 3.86667 38.9303 4.21818 38.5788L5.97576 36.8212C7.11818 45.5212 14.4121 52.3758 23.5515 52.6394C24.0788 52.6394 24.4303 52.2 24.4303 51.7606C24.4303 51.1455 24.0788 50.7939 23.5515 50.7939Z" fill="#CA0000"/>
<path d="M55.1879 22.8485C54.8364 22.497 54.3091 22.497 53.9576 22.8485L52.2879 24.5182C52.5515 15.7303 46.4 7.9091 37.7 6.15152C37.2606 6.06364 36.7333 6.41516 36.7333 6.94243C36.6455 7.38182 36.997 7.82122 37.4364 7.9091C45.2576 9.49091 50.7939 16.5212 50.6182 24.4303L48.9485 22.8485C48.597 22.497 48.0697 22.497 47.7182 22.8485C47.3667 23.2 47.3667 23.7273 47.7182 24.0788L50.794 27.1545C50.9697 27.3303 51.1455 27.4182 51.4091 27.4182C51.6727 27.4182 51.8485 27.3303 52.0243 27.1545L55.1 24.0788C55.5394 23.7273 55.5394 23.2 55.1879 22.8485Z" fill="#CA0000"/>
</svg>
