<svg width="60" height="60" viewBox="0 0 60 60" fill="none" xmlns="http://www.w3.org/2000/svg">
<path d="M42.6203 9.09727C38.7207 9.34359 35.5942 12.4698 35.3478 16.3691C35.0513 21.0601 38.9249 24.9482 43.6294 24.65C47.5289 24.4037 50.6554 21.2775 50.9019 17.3782C51.1984 12.688 47.326 8.79926 42.6203 9.09727ZM49.1476 17.2673C48.9568 20.2854 46.537 22.7051 43.5185 22.8959C39.8575 23.1248 36.873 20.1062 37.1021 16.48C37.2929 13.4618 39.7128 11.0421 42.7312 10.8513C46.3726 10.6223 49.3778 13.6235 49.1476 17.2673Z" fill="#CA0000"/>
<path d="M56.5435 12.7336C55.2767 12.7288 54.6497 11.2046 55.5453 10.309C56.1971 9.65742 56.5559 8.79105 56.5559 7.86949C56.5559 6.94793 56.1971 6.08168 55.5453 5.43012L54.5298 4.41469C53.1892 3.07418 51.0612 3.0934 49.6857 4.45852C48.7866 5.35066 47.2653 4.71645 47.2653 3.44977C47.2652 1.54758 45.7175 0 43.815 0H42.4347C40.5322 0 38.9845 1.54758 38.9845 3.44988C38.9845 4.71773 37.459 5.35336 36.5597 4.45418C35.9081 3.8025 35.0417 3.44367 34.1201 3.44367C33.1985 3.44367 32.3322 3.8025 31.6805 4.45418L30.7045 5.43012C30.4365 5.69813 30.2182 6.00445 30.0537 6.33656C28.7895 5.56055 27.3035 5.11219 25.7145 5.11219H18.0408C16.3051 5.11219 14.7546 6.2127 14.1824 7.85074C14.1427 7.96453 14.0306 8.04105 13.9035 8.04105C11.6358 8.04105 9.7909 9.88582 9.7909 12.1533C9.7909 12.6387 10.1844 13.0321 10.6698 13.0321C11.1552 13.0321 11.5486 12.6386 11.5486 12.1533C11.5486 10.855 12.6049 9.79875 13.9034 9.79875C14.7768 9.79875 15.5558 9.24891 15.8418 8.43035C16.1678 7.49695 17.0514 6.86988 18.0407 6.86988H25.7144C29.3326 6.86988 32.2763 9.81328 32.2763 13.4311V18.1847C30.9151 18.5671 30.7334 19.077 29.6944 19.1316V15.1512C29.6944 13.1302 28.05 11.4859 26.0288 11.4859H25.9953C24.4903 11.4859 23.8756 12.112 22.0848 12.112H21.7405C19.9683 12.112 19.323 11.4859 17.8299 11.4859H17.7964C15.7752 11.4859 14.1308 13.1302 14.1308 15.1512V18.5774C13.2987 18.2254 12.2828 18.0922 11.549 18.0432V16.3113C11.549 15.8259 11.1554 15.4325 10.6701 15.4325C10.1847 15.4325 9.79125 15.8261 9.79125 16.3113V18.432C9.1939 18.9282 8.83914 19.6659 8.83914 20.463V22.4208C8.83914 23.8268 9.94173 24.98 11.3277 25.0617C11.5912 27.6088 12.7785 29.9425 14.6589 31.5615C14.9437 31.8067 15.2352 32.0344 15.5322 32.2473V35.9439C15.5322 36.2921 15.2713 36.5886 14.9252 36.6336H14.925C12.3507 36.9676 7.64689 37.6996 5.06609 38.8486C1.98849 40.2188 1.99127e-08 43.2806 1.99127e-08 46.6492V55.3879C-0.000234375 57.9311 2.06888 60 4.61218 60H39.2125C41.7558 60 43.8249 57.9311 43.8249 55.388V52.4201C43.8249 51.9347 43.4313 51.5413 42.946 51.5413C42.4607 51.5413 42.0672 51.9348 42.0672 52.4201V55.388C42.0672 56.9619 40.7865 58.2423 39.2126 58.2423H36.9543V53.4499C36.9543 52.9645 36.5608 52.5711 36.0755 52.5711C35.5901 52.5711 35.1966 52.9646 35.1966 53.4499V58.2423H26.0602L24.4383 46.2554L25.2613 45.0995C25.4752 45.1575 25.6941 45.1882 25.9133 45.1882C26.4948 45.1882 27.0745 44.9848 27.5429 44.5827L31.494 41.1916C32.1566 40.6229 32.4653 39.7855 32.3424 38.943C34.3689 39.3095 36.6161 39.8186 38.0441 40.4543C40.4882 41.5424 42.0674 43.974 42.0674 46.6492V48.3131C42.0674 48.7985 42.4609 49.1919 42.9463 49.1919C43.4316 49.1919 43.8251 48.7984 43.8251 48.3131V46.6492C43.8251 43.2806 41.8365 40.2188 38.759 38.8486C36.1782 37.6997 31.4744 36.9677 28.9002 36.6336H28.9C28.554 36.5886 28.2931 36.2923 28.2931 35.9439V32.2473C28.5901 32.0344 28.8815 31.8067 29.1663 31.5615C30.0336 30.8148 30.7512 29.9148 31.3009 28.9133L31.6805 29.2929C33.0289 30.6411 35.2114 30.6414 36.5598 29.2929C37.4565 28.3963 38.9846 29.0255 38.9846 30.2972C38.9846 32.1995 40.5323 33.7471 42.4348 33.7471H43.8152C45.7176 33.7471 47.2653 32.1995 47.2653 30.2972C47.2653 29.0288 48.7915 28.3942 49.6902 29.2929C50.3418 29.9446 51.2082 30.3034 52.1298 30.3034C53.0515 30.3034 53.9178 29.9446 54.5694 29.293L55.5454 28.3171C56.8906 26.9719 56.8906 24.7833 55.5454 23.4382C54.6497 22.5425 55.2769 21.0184 56.5436 21.0136C58.4818 21.0063 60 19.5154 60 17.6196V16.1277C59.9999 14.2318 58.4817 12.741 56.5435 12.7336ZM23.0675 45.15H20.7574L20.0839 44.2039L21.9125 42.8875L23.7411 44.2039L23.0675 45.15ZM18.3474 43.2884C18.0674 43.4902 17.6889 43.4739 17.427 43.2491L13.4758 39.858C13.1386 39.5686 13.2146 39.1939 13.2459 39.086C13.2769 38.9789 13.4115 38.6275 13.8419 38.5582C14.2105 38.5041 14.5476 38.4571 14.8396 38.4179L20.3369 41.856L18.3474 43.2884ZM1.75761 55.388V46.6493C1.75761 43.9741 3.33684 41.5426 5.78088 40.4544C7.20893 39.8187 9.45607 39.3096 11.4826 38.9432C11.3596 39.7856 11.6684 40.623 12.3309 41.1918L16.2821 44.5828C16.7505 44.9849 17.3301 45.1883 17.9116 45.1883C18.1307 45.1883 18.3497 45.1576 18.5636 45.0996L19.3865 46.2555L17.7647 58.2424H8.6283V53.45C8.6283 52.9646 8.23475 52.5713 7.74944 52.5713C7.26413 52.5713 6.87058 52.9648 6.87058 53.45V58.2424H4.61218C3.03822 58.2423 1.75761 56.9618 1.75761 55.388ZM19.5384 58.2423L21.0721 46.9077H22.7526L24.2862 58.2423H19.5384ZM30.5789 39.0859C30.6102 39.1938 30.686 39.5686 30.3488 39.8579L26.3978 43.249C26.1358 43.4736 25.7574 43.4899 25.4775 43.2882L23.4879 41.8557L28.9851 38.4177C29.2772 38.4568 29.6144 38.5038 29.9831 38.558C30.4133 38.6275 30.5478 38.9789 30.5789 39.0859ZM27.1109 37.5168L21.9124 40.768L16.7137 37.5168C17.0734 37.0879 17.2897 36.5379 17.2897 35.944V33.2856C20.2393 34.6835 23.585 34.6836 26.5351 33.2856V35.944C26.5351 36.5379 26.7513 37.088 27.1109 37.5168ZM28.0193 30.2297C24.3901 33.3544 19.4354 33.355 15.8056 30.2297C14.0937 28.7558 13.0826 26.5466 13.0315 24.1688C13.0213 23.6909 12.6309 23.3088 12.1529 23.3088H11.4846C10.995 23.3088 10.5966 22.9105 10.5966 22.4209V20.4632C10.5966 20.1923 10.7205 19.9431 10.9265 19.7762C11.9376 19.7989 13.4128 20.0029 13.8498 20.4339C14.1953 20.7745 14.7073 20.8739 15.1544 20.6869C15.6004 20.5003 15.8886 20.0672 15.8886 19.5834V15.1513C15.8886 14.0994 16.7443 13.2437 17.7963 13.2437C19.4125 13.3624 19.7902 13.8698 21.7403 13.8698H22.0847C24.1021 13.8698 24.8648 13.2437 25.9952 13.2437H26.0287C27.0807 13.2437 27.9364 14.0994 27.9364 15.1513V19.2625C27.9364 20.1614 28.6679 20.8928 29.5701 20.8928C31.2334 20.8928 31.6827 20.12 32.9565 19.8259C33.1277 19.9907 33.2283 20.2186 33.2283 20.4633V22.421C33.2283 22.9106 32.8299 23.3089 32.3403 23.3089H31.672C31.1939 23.3089 30.8036 23.691 30.7934 24.1689C30.7423 26.5467 29.7312 28.7558 28.0193 30.2297ZM58.242 17.6196C58.242 18.5336 57.493 19.2524 56.5368 19.256C53.7092 19.2667 52.3047 22.6838 54.3023 24.6812C54.9622 25.341 54.9622 26.4145 54.3023 27.0744L53.3263 28.0504C53.0067 28.3699 52.5818 28.5461 52.1296 28.5461C51.6776 28.5461 51.2526 28.37 50.9329 28.0504C48.9314 26.049 45.5074 27.463 45.5074 30.2975C45.5074 31.2306 44.7482 31.9897 43.815 31.9897H42.4347C41.5016 31.9897 40.7424 31.2306 40.7424 30.2975C40.7424 27.4665 37.3209 26.0464 35.3167 28.0504C34.6553 28.7118 33.5849 28.7118 32.9234 28.0504L32.0495 27.1766C32.2696 26.4966 32.4223 25.7885 32.4974 25.0621C33.8834 24.9804 34.986 23.8271 34.986 22.4211V20.4634C34.986 19.6664 34.6312 18.9286 34.0339 18.4323V13.4314C34.0339 11.093 33.0624 8.9782 31.5036 7.46531C31.5761 7.16695 31.7271 6.89332 31.9472 6.67324L32.9233 5.6973C33.2429 5.37773 33.6679 5.2016 34.1199 5.2016C34.5719 5.2016 34.997 5.37762 35.3166 5.6973C37.3182 7.69863 40.7421 6.28465 40.7421 3.45012C40.7421 2.51707 41.5013 1.75793 42.4345 1.75793H43.8148C44.7479 1.75793 45.5071 2.51707 45.5071 3.45012C45.5071 6.27855 48.9193 7.69535 50.9235 5.70633C51.6023 5.03297 52.6402 5.01152 53.2865 5.6577L54.302 6.67324C54.6216 6.99281 54.7977 7.41773 54.7977 7.86973C54.7977 8.32172 54.6217 8.74676 54.302 9.06633C52.3017 11.0664 53.7126 14.4807 56.5365 14.4914C57.4927 14.495 58.2417 15.2139 58.2417 16.1278V17.6196H58.242Z" fill="#CA0000"/>
</svg>
