<svg width="32" height="32" viewBox="0 0 32 32" fill="none" xmlns="http://www.w3.org/2000/svg">
<circle cx="16" cy="16" r="16" fill="#FF0000"/>
<path d="M16 9.27441C16 9.27441 21.6479 9.27445 23.0566 9.6543C23.8336 9.86335 24.4455 10.4788 24.6533 11.2607C25.0291 12.6724 25.0312 15.6115 25.0312 15.6367C25.0312 15.6367 25.0308 18.5949 24.6533 20.0127C24.4456 20.7948 23.8337 21.411 23.0566 21.6201C21.6476 21.9999 16 22 16 22C15.9991 22 10.3522 21.9999 8.94336 21.6201C8.16627 21.411 7.55444 20.7948 7.34668 20.0127C6.96924 18.5949 6.96875 15.6367 6.96875 15.6367C6.96876 15.6115 6.97086 12.6724 7.34668 11.2607C7.55452 10.4788 8.16637 9.86331 8.94336 9.6543C10.352 9.27448 15.999 9.27441 16 9.27441ZM14.1523 18.3223L18.874 15.6367L14.1523 12.9512V18.3223Z" fill="white"/>
</svg>
