<svg width="41" height="41" viewBox="0 0 41 41" fill="none" xmlns="http://www.w3.org/2000/svg">
<path fill-rule="evenodd" clip-rule="evenodd" d="M20.512 9.97167C14.6949 9.97167 9.97557 14.6892 9.97557 20.504C9.97557 26.3188 14.6949 31.0363 20.512 31.0363C26.3291 31.0363 31.0485 26.3188 31.0485 20.504C31.0485 14.6892 26.3291 9.97167 20.512 9.97167ZM20.512 27.336C16.7381 27.336 13.6773 24.2764 13.6773 20.504C13.6773 16.7316 16.7381 13.672 20.512 13.672C24.2859 13.672 27.3467 16.7316 27.3467 20.504C27.3467 24.2764 24.2859 27.336 20.512 27.336Z" fill="white"/>
<path d="M31.4651 12.0141C32.8192 12.0141 33.9249 10.9168 33.9249 9.55521C33.9249 8.20163 32.8192 7.09633 31.4651 7.09633C30.111 7.09633 29.0053 8.19362 29.0053 9.55521C29.0053 10.9088 30.103 12.0141 31.4651 12.0141Z" fill="white"/>
<path fill-rule="evenodd" clip-rule="evenodd" d="M20.512 0C14.9433 0 14.2462 0.0240281 12.0588 0.120141C9.87942 0.216253 8.38108 0.568666 7.08306 1.07326C5.72894 1.60188 4.58315 2.29869 3.44538 3.44403C2.29959 4.58136 1.6025 5.72671 1.07368 7.07228C0.568888 8.37781 0.216338 9.86755 0.120188 12.0461C0.0240375 14.2407 0 14.9375 0 20.504C0 26.0705 0.0240375 26.7673 0.120188 28.9539C0.216338 31.1324 0.568888 32.6302 1.07368 33.9277C1.6025 35.2813 2.29959 36.4266 3.44538 37.564C4.58315 38.7013 5.72894 39.4061 7.07504 39.9267C8.38108 40.4313 9.87141 40.7837 12.0508 40.8799C14.2382 40.976 14.9353 41 20.504 41C26.0727 41 26.7698 40.976 28.9572 40.8799C31.1366 40.7837 32.6349 40.4313 33.933 39.9267C35.2791 39.4061 36.4249 38.7013 37.5626 37.564C38.7004 36.4266 39.4055 35.2813 39.9263 33.9357C40.4311 32.6302 40.7837 31.1405 40.8798 28.9619C40.976 26.7753 41 26.0785 41 20.512C41 14.9455 40.976 14.2487 40.8798 12.0621C40.7837 9.88357 40.4311 8.38582 39.9263 7.0883C39.4215 5.7267 38.7244 4.58136 37.5787 3.44403C36.4409 2.3067 35.2951 1.60188 33.949 1.08127C32.643 0.576675 31.1526 0.224263 28.9732 0.12815C26.7778 0.0240281 26.0807 0 20.512 0ZM20.512 3.69232C25.9926 3.69232 26.6416 3.71635 28.797 3.81246C30.8001 3.90057 31.8818 4.23696 32.6029 4.51729C33.5564 4.88572 34.2455 5.33425 34.9586 6.04708C35.6797 6.76792 36.1204 7.44872 36.489 8.40184C36.7694 9.12268 37.1059 10.212 37.1941 12.2063C37.2902 14.3688 37.3142 15.0176 37.3142 20.488C37.3142 25.9664 37.2902 26.6152 37.1941 28.7697C37.1059 30.772 36.7694 31.8533 36.489 32.5741C36.1204 33.5273 35.6717 34.2161 34.9586 34.9289C34.2374 35.6497 33.5564 36.0903 32.6029 36.4587C31.8818 36.739 30.7921 37.0754 28.797 37.1635C26.6336 37.2596 25.9846 37.2837 20.512 37.2837C15.0315 37.2837 14.3825 37.2596 12.2271 37.1635C10.224 37.0754 9.14227 36.739 8.42114 36.4587C7.46766 36.0903 6.77858 35.6417 6.06547 34.9289C5.34434 34.2081 4.90365 33.5273 4.53508 32.5741C4.25464 31.8533 3.91812 30.764 3.82998 28.7697C3.73383 26.6072 3.70979 25.9584 3.70979 20.488C3.70979 15.0096 3.73383 14.3608 3.82998 12.2063C3.91812 10.2039 4.25464 9.12268 4.53508 8.40184C4.90365 7.44872 5.35235 6.75991 6.06547 6.04708C6.78659 5.32624 7.46766 4.88572 8.42114 4.51729C9.14227 4.23696 10.232 3.90057 12.2271 3.81246C14.3825 3.71635 15.0315 3.69232 20.512 3.69232Z" fill="white"/>
</svg>
