<svg width="57" height="48" viewBox="0 0 57 48" fill="none" xmlns="http://www.w3.org/2000/svg">
<path d="M52.8373 27.5697L51.366 21.6846C51.7683 21.5991 52.0701 21.2423 52.0701 20.8147V19.8659C52.0701 17.8057 50.394 16.1296 48.3339 16.1296H41.6324V14.1725C41.6324 13.1587 40.8077 12.334 39.7939 12.334H27.3331L34.9055 9.30511C35.3616 9.12269 35.5835 8.60492 35.401 8.14874C35.2186 7.69267 34.7012 7.47063 34.2446 7.65316L28.0445 10.1331C29.9338 8.92095 31.8031 7.58681 32.5147 6.6538C33.9001 4.8374 33.5492 2.23259 31.7328 0.847178C29.9164 -0.538343 27.3116 -0.187357 25.9262 1.62904C24.914 2.95642 23.5784 6.6861 22.714 9.31433C21.8495 6.68632 20.5139 2.95642 19.5017 1.62904C18.1164 -0.187357 15.5115 -0.538121 13.6951 0.847178C11.8787 2.23248 11.5279 4.83729 12.9132 6.6538C13.6248 7.58692 15.494 8.92095 17.3834 10.1331L11.1833 7.65316C10.7269 7.4704 10.2093 7.69256 10.0269 8.14874C9.84434 8.60492 10.0663 9.12269 10.5225 9.30511L18.0948 12.334H5.63396C4.62018 12.334 3.79548 13.1587 3.79548 14.1725V30.3036C3.79548 30.7949 4.19374 31.1933 4.68509 31.1933C5.17634 31.1933 5.57471 30.795 5.57471 30.3036V14.1725C5.57471 14.1398 5.60123 14.1133 5.63396 14.1133H39.7938C39.8266 14.1133 39.8531 14.1398 39.8531 14.1725V30.3039C39.8531 30.7951 40.2513 31.1935 40.7427 31.1935C41.234 31.1935 41.6323 30.7952 41.6323 30.3039V29.2954H52.1259L52.1287 29.2956L52.1316 29.2955C53.4228 29.2965 54.5191 30.1441 54.8955 31.3119H52.1294C51.6381 31.3119 51.2397 31.7101 51.2397 32.2015V34.0992C51.2397 35.6362 52.4901 36.8866 54.0271 36.8866H55.0353V40.8007H52.7093C51.9452 38.5945 49.8478 37.0051 47.3849 37.0051C44.922 37.0051 42.8245 38.5944 42.0605 40.8007H41.6322V34.0991C41.6322 33.6079 41.234 33.2095 40.7426 33.2095C40.2513 33.2095 39.853 33.6078 39.853 34.0991V40.8006H21.3961C20.632 38.5944 18.5346 37.005 16.0718 37.005C13.6089 37.005 11.5114 38.5942 10.7474 40.8006H5.63396C5.60123 40.8006 5.57471 40.7741 5.57471 40.7413V38.7842H9.42955C9.9208 38.7842 10.3192 38.386 10.3192 37.8946C10.3192 37.4033 9.92091 37.005 9.42955 37.005H0.889614C0.398368 37.005 0 37.4033 0 37.8946C0 38.386 0.398257 38.7842 0.889614 38.7842H3.79559V40.7413C3.79559 41.7551 4.62029 42.5798 5.63407 42.5798H10.4393C10.4391 42.5996 10.4378 42.6192 10.4378 42.6391C10.4378 45.7456 12.9653 48.273 16.0718 48.273C19.1782 48.273 21.7057 45.7456 21.7057 42.6391C21.7057 42.6191 21.7044 42.5996 21.7042 42.5798H41.7524C41.7522 42.5996 41.7508 42.6192 41.7508 42.6391C41.7508 45.7456 44.2783 48.273 47.3848 48.273C50.4913 48.273 53.0188 45.7456 53.0188 42.6391C53.0188 42.6191 53.0174 42.5996 53.0172 42.5798H55.9248C56.4161 42.5798 56.8145 42.1816 56.8145 41.6902V32.2014C56.8146 29.8585 55.086 27.9119 52.8373 27.5697ZM19.186 9.16275C15.6769 6.98215 14.6361 5.97891 14.3279 5.57477C13.5375 4.53846 13.7377 3.05229 14.7741 2.26188C15.2013 1.93609 15.7049 1.77863 16.2048 1.77863C16.9174 1.77863 17.6225 2.09887 18.0871 2.70808C18.9477 3.83638 20.2953 7.63397 21.1851 10.3705C20.5846 10.017 19.8944 9.60317 19.186 9.16275ZM24.2431 10.3704C25.1328 7.63397 26.4805 3.83649 27.3409 2.70797C28.1313 1.67166 29.6175 1.47158 30.6538 2.26188C31.6902 3.05229 31.8903 4.53846 31.1 5.57477C30.7918 5.9788 29.751 6.98215 26.2421 9.16263C25.5338 9.60295 24.8436 10.0169 24.2431 10.3704ZM41.6324 17.9086H48.3339C49.413 17.9086 50.291 18.7866 50.291 19.8657V19.925H41.6324V17.9086ZM41.6324 27.5162V21.7042H49.5371L50.9901 27.5162H41.6324ZM16.0718 46.4939C13.9462 46.4939 12.2169 44.7646 12.2169 42.6391C12.2169 40.5135 13.9462 38.7842 16.0718 38.7842C18.1973 38.7842 19.9266 40.5135 19.9266 42.6391C19.9266 44.7646 18.1973 46.4939 16.0718 46.4939ZM47.385 46.4939C45.2595 46.4939 43.5302 44.7646 43.5302 42.6391C43.5302 40.5135 45.2595 38.7842 47.385 38.7842C49.5106 38.7842 51.2399 40.5135 51.2399 42.6391C51.2399 44.7646 49.5106 46.4939 47.385 46.4939ZM55.0354 35.1073H54.0272C53.4713 35.1073 53.019 34.655 53.019 34.099V33.0908H55.0353L55.0354 35.1073Z" fill="#C4A22A"/>
<path d="M16.0718 40.8006C15.058 40.8006 14.2333 41.6253 14.2333 42.6391C14.2333 43.6529 15.058 44.4776 16.0718 44.4776C17.0855 44.4776 17.9102 43.6529 17.9102 42.6391C17.9102 41.6253 17.0855 40.8006 16.0718 40.8006Z" fill="#C4A22A"/>
<path d="M47.385 40.8006C46.3712 40.8006 45.5465 41.6253 45.5465 42.6391C45.5465 43.6529 46.3712 44.4776 47.385 44.4776C48.3988 44.4776 49.2235 43.6529 49.2235 42.6391C49.2235 41.6253 48.3988 40.8006 47.385 40.8006Z" fill="#C4A22A"/>
<path d="M36.9472 37.005H23.6628C23.1716 37.005 22.7732 37.4033 22.7732 37.8946C22.7732 38.386 23.1715 38.7842 23.6628 38.7842H36.9472C37.4385 38.7842 37.8368 38.386 37.8368 37.8946C37.8368 37.4033 37.4386 37.005 36.9472 37.005Z" fill="#C4A22A"/>
<path d="M14.174 33.2095H2.78735C2.29611 33.2095 1.89774 33.6078 1.89774 34.0991C1.89774 34.5905 2.296 34.9887 2.78735 34.9887H14.174C14.6653 34.9887 15.0636 34.5905 15.0636 34.0991C15.0636 33.6078 14.6653 33.2095 14.174 33.2095Z" fill="#C4A22A"/>
<path d="M14.174 19.925H10.3784C9.88718 19.925 9.48881 20.3233 9.48881 20.8146V28.4057C9.48881 28.8969 9.88707 29.2953 10.3784 29.2953C10.8698 29.2953 11.268 28.897 11.268 28.4057V25.4997H13.2251C13.7164 25.4997 14.1148 25.1015 14.1148 24.6101C14.1148 24.1187 13.7165 23.7205 13.2251 23.7205H11.268V21.7042H14.174C14.6653 21.7042 15.0636 21.306 15.0636 20.8146C15.0635 20.3234 14.6653 19.925 14.174 19.925Z" fill="#C4A22A"/>
<path d="M21.1747 25.9168C22.065 25.3337 22.6547 24.3281 22.6547 23.1868C22.6547 21.3882 21.1915 19.925 19.3929 19.925H17.0206C16.5294 19.925 16.131 20.3233 16.131 20.8146V28.4057C16.131 28.8969 16.5293 29.2953 17.0206 29.2953C17.512 29.2953 17.9102 28.897 17.9102 28.4057V26.4486H19.3912L21.0248 28.899C21.1963 29.1561 21.4782 29.2953 21.7657 29.2953C21.9354 29.2953 22.1068 29.2469 22.2583 29.1457C22.6672 28.8733 22.7776 28.3209 22.505 27.9122L21.1747 25.9168ZM19.3929 24.6695H17.9102V21.7042H19.3929C20.2105 21.7042 20.8755 22.3692 20.8755 23.1868C20.8755 24.0044 20.2105 24.6695 19.3929 24.6695Z" fill="#C4A22A"/>
<path d="M28.4073 27.5162H25.5013V25.4968C25.521 25.4982 25.5406 25.4998 25.5606 25.4998H27.4583C27.9496 25.4998 28.3479 25.1016 28.3479 24.6102C28.3479 24.1188 27.9497 23.7206 27.4583 23.7206H25.5606C25.5405 23.7206 25.521 23.7223 25.5013 23.7236V21.7042H28.4073C28.8985 21.7042 29.2969 21.306 29.2969 20.8146C29.2969 20.3234 28.8986 19.925 28.4073 19.925H24.6117C24.1204 19.925 23.7221 20.3233 23.7221 20.8146V28.4057C23.7221 28.8969 24.1203 29.2953 24.6117 29.2953H28.4073C28.8985 29.2953 29.2969 28.897 29.2969 28.4057C29.2969 27.9143 28.8985 27.5162 28.4073 27.5162Z" fill="#C4A22A"/>
<path d="M35.0495 27.5162H32.1435V25.4998H33.1517C33.643 25.4998 34.0414 25.1016 34.0414 24.6102C34.0414 24.1188 33.6431 23.7206 33.1517 23.7206H32.1435V21.7042H35.0495C35.5407 21.7042 35.9391 21.306 35.9391 20.8146C35.9391 20.3234 35.5408 19.925 35.0495 19.925H31.2539C30.7626 19.925 30.3643 20.3233 30.3643 20.8146V28.4057C30.3643 28.8969 30.7625 29.2953 31.2539 29.2953H35.0495C35.5407 29.2953 35.9391 28.897 35.9391 28.4057C35.9391 27.9143 35.5407 27.5162 35.0495 27.5162Z" fill="#C4A22A"/>
</svg>
