<svg width="50" height="48" viewBox="0 0 50 48" fill="none" xmlns="http://www.w3.org/2000/svg">
<path d="M49.1989 24.1231C50.3885 21.8076 49.8959 19.0592 47.9732 17.2836L45.1825 14.7065C44.5387 14.1122 44.1453 13.4415 43.9439 12.5957L43.0708 8.92947C42.4695 6.4034 40.2964 4.60936 37.6633 4.46529L33.8421 4.25615C32.9606 4.2079 32.2208 3.94299 31.5141 3.42257L28.4501 1.16605C26.3393 -0.388586 23.5024 -0.388784 21.3913 1.16605L18.3273 3.42247C17.6206 3.94299 16.8808 4.2079 15.9994 4.25615L12.1781 4.46529C9.54519 4.60936 7.37209 6.4034 6.77067 8.92947L5.89759 12.5958C5.69628 13.4415 5.30271 14.1122 4.65908 14.7066L1.86828 17.2836C-0.0544656 19.0591 -0.547037 21.8076 0.642531 24.1231L2.36919 27.4836C2.76749 28.2588 2.90418 29.0215 2.79935 29.884L2.34507 33.623C2.0322 36.199 3.45052 38.616 5.87448 39.6374L9.39273 41.1199C10.2042 41.4618 10.8072 41.9596 11.2905 42.6865L13.3854 45.838C14.8285 48.0093 17.4941 48.9639 20.0184 48.2133L23.682 47.124C24.5271 46.8726 25.3143 46.8727 26.1592 47.124L29.8228 48.2133C30.3972 48.384 30.9786 48.4666 31.5515 48.4665C33.4965 48.4664 35.3411 47.5153 36.4559 45.838L38.5508 42.6865C39.034 41.9596 39.637 41.4617 40.4485 41.1198L43.9668 39.6373C46.3907 38.6159 47.8091 36.1989 47.4962 33.6229L47.0419 29.8838C46.9371 29.0214 47.0738 28.2587 47.4721 27.4835L49.1989 24.1231ZM46.0372 26.77C45.4967 27.8218 45.3032 28.9018 45.4454 30.0718L45.8997 33.8107C46.1307 35.7128 45.1236 37.429 43.3339 38.1832L39.8156 39.6656C38.7146 40.1296 37.8607 40.8345 37.2051 41.8207L35.1102 44.9722C34.0447 46.5753 32.1517 47.253 30.2881 46.6989L26.6246 45.6096C26.0513 45.4391 25.4862 45.3539 24.9207 45.3539C24.3555 45.3539 23.7901 45.4391 23.2169 45.6096L19.5533 46.6989C17.6897 47.2529 15.7969 46.5753 14.7312 44.9722L12.6364 41.8207C11.9807 40.8344 11.1267 40.1295 10.0258 39.6656L6.50755 38.1832C4.71777 37.4291 3.71072 35.7128 3.94178 33.8107L4.39606 30.0718C4.53827 28.9017 4.3447 27.8217 3.80429 26.7699L2.07763 23.4093C1.19942 21.6997 1.54908 19.7482 2.9687 18.4372L5.7595 15.8602C6.63278 15.0538 7.19008 14.104 7.46325 12.9566L8.33633 9.29029C8.78035 7.42526 10.3234 6.15135 12.2673 6.04505L16.0886 5.83591C17.2845 5.77045 18.332 5.39529 19.2909 4.68916L22.3549 2.43265C23.9135 1.28481 25.9279 1.28471 27.4865 2.43265L30.5505 4.68916C31.5094 5.39529 32.5569 5.77045 33.7527 5.83591L37.574 6.04505C39.518 6.15145 41.061 7.42526 41.505 9.29039L42.3781 12.9566C42.6513 14.1041 43.2087 15.0539 44.0819 15.8602L46.8726 18.4372C48.2923 19.7481 48.6419 21.6997 47.7637 23.4093L46.0372 26.77ZM24.9208 8.06009C15.8574 8.06009 8.48377 15.3147 8.48377 24.232C8.48377 33.1493 15.8574 40.404 24.9208 40.404C33.9843 40.404 41.3579 33.1493 41.3579 24.232C41.3579 15.3147 33.9843 8.06009 24.9208 8.06009ZM24.9208 38.8218C16.7441 38.8218 10.0918 32.2769 10.0918 24.232C10.0918 16.1872 16.7441 9.64222 24.9208 9.64222C33.0975 9.64222 39.7498 16.1872 39.7498 24.232C39.7498 32.2769 33.0975 38.8218 24.9208 38.8218ZM31.7645 16.9018C31.7605 16.9018 31.7564 16.9018 31.7525 16.9018C30.9491 16.9049 30.1956 17.2156 29.6311 17.7767L22.9635 24.402L20.2099 21.6927C19.6412 21.1332 18.885 20.8251 18.0806 20.8251C17.2761 20.8251 16.52 21.1332 15.9512 21.6928C14.7772 22.848 14.7772 24.7275 15.9512 25.8826L20.8419 30.6943C21.4289 31.2718 22.2 31.5607 22.9711 31.5607C23.7423 31.5607 24.5135 31.2719 25.1005 30.6943C26.9547 28.8699 28.8256 27.0028 30.635 25.1973C31.7221 24.1123 32.8095 23.0273 33.8994 21.945C35.0654 20.7872 35.0593 18.9112 33.8857 17.763C33.3179 17.2073 32.5651 16.9018 31.7645 16.9018ZM32.7571 20.8312C31.6663 21.9146 30.578 23.0005 29.4897 24.0865C27.6825 25.8901 25.8136 27.7551 23.9634 29.5755C23.4163 30.1138 22.5259 30.1138 21.979 29.5755L17.0884 24.7637C16.5414 24.2255 16.5414 23.3496 17.0884 22.8113C17.3534 22.5506 17.7057 22.407 18.0806 22.407C18.4554 22.407 18.8079 22.5506 19.0728 22.8113L22.3978 26.0827C22.5486 26.2311 22.753 26.3144 22.9663 26.3144H22.9683C23.1823 26.3139 23.3872 26.2295 23.5377 26.08L30.7738 18.8897C31.0357 18.6293 31.3856 18.4851 31.7587 18.4838H31.7644C32.1371 18.4838 32.4876 18.626 32.7519 18.8845C33.2977 19.4189 33.3002 20.292 32.7571 20.8312Z" fill="#C4A22A"/>
</svg>
