<svg width="69" height="44" viewBox="0 0 69 44" fill="none" xmlns="http://www.w3.org/2000/svg">
<path d="M1.37223 10.4501C3.48406 16.5163 5.29609 22.6515 9.46626 27.6475C10.7366 29.1694 14.792 34.5604 17.1327 34.3226C23.515 33.674 21.4367 16.7092 21.6453 12.9873C22.1815 3.41749 25.9291 -2.62555 35.3495 4.47035C45.5114 12.1247 56.439 24.6897 62.6771 35.8609C64.3273 38.8162 69.8114 44.2672 63.6352 41.6134C61.4176 40.6605 51.9977 36.8475 59.5943 39.0441C60.2712 39.2398 67.4383 42.5694 67.5833 42.2318C67.9343 41.4148 65.9922 36.9227 65.9698 35.6098C65.9311 33.3343 65.4416 31.7076 66.3657 29.5571" stroke="#676161" stroke-width="2.74374" stroke-linecap="round"/>
</svg>
