<svg width="50" height="50" viewBox="0 0 50 50" fill="none" xmlns="http://www.w3.org/2000/svg">
<path d="M16.7037 13.1248C16.8122 13.29 16.9924 13.3797 17.1762 13.3797C17.2825 13.3797 17.39 13.3497 17.4854 13.287C17.7461 13.116 17.8187 12.766 17.6476 12.5053L14.5716 7.81883C14.4005 7.55815 14.0505 7.4855 13.7899 7.65663C13.5292 7.82773 13.4567 8.17768 13.6277 8.43832L16.7037 13.1248Z" fill="white"/>
<path d="M24.9451 13.287C25.0406 13.3497 25.148 13.3797 25.2543 13.3797C25.4381 13.3797 25.6184 13.29 25.7268 13.1248L28.8028 8.43832C28.9739 8.17768 28.9013 7.82773 28.6406 7.65663C28.3801 7.48546 28.03 7.55823 27.8589 7.81883L24.7829 12.5053C24.6118 12.766 24.6844 13.116 24.9451 13.287Z" fill="white"/>
<path d="M21.2153 12.7159C21.5271 12.7159 21.7798 12.4632 21.7798 12.1514V5.40314C21.7798 5.09135 21.5271 4.83862 21.2153 4.83862C20.9035 4.83862 20.6508 5.09135 20.6508 5.40314V12.1514C20.6508 12.4632 20.9035 12.7159 21.2153 12.7159Z" fill="white"/>
<path d="M38.393 28.7972C38.3909 28.795 38.3886 28.7928 38.3864 28.7906L38.3564 28.7616C37.8881 28.2947 37.2853 28.0118 36.6356 27.9489C37.2628 26.8659 37.114 25.453 36.1884 24.527L36.156 24.4947C35.6665 24.005 35.0289 23.7175 34.3442 23.6725C34.8483 22.6194 34.6654 21.3169 33.7943 20.4455L33.762 20.4133C33.3165 19.9675 32.772 19.6741 32.2011 19.5653L37.1181 14.6467C38.221 13.5434 38.2211 11.7473 37.1183 10.6429C37.1162 10.6407 37.1139 10.6385 37.1117 10.6364L37.0819 10.6075C36.5476 10.0747 35.8381 9.78125 35.0835 9.78125C34.3276 9.78125 33.6167 10.0758 33.0813 10.6114L18.8922 24.8582C18.5012 22.8429 17.68 18.609 17.6701 18.5582C17.53 17.7886 17.0962 17.1232 16.4485 16.6848C15.8015 16.2467 15.0236 16.0911 14.2598 16.2463L14.2119 16.2559C12.6834 16.5662 11.6673 18.0676 11.9471 19.6028C12.6107 23.2421 12.4286 29.0407 12.3509 31.5168C12.3352 32.0153 12.3239 32.3755 12.3243 32.5683C12.3258 33.3428 11.7726 34.3084 11.3687 35.0135C11.3216 35.0956 11.2766 35.1743 11.2345 35.2489C10.8609 35.9113 10.7103 36.6732 10.8106 37.3944C10.8752 37.8592 11.0313 38.2182 11.2775 38.4647L17.5813 44.6758C17.9037 44.9983 18.4148 45.1611 19.1026 45.1611C19.1802 45.1611 19.2602 45.1591 19.3423 45.1549C19.8197 45.1308 20.2872 45.0038 20.7321 44.7775C21.0193 44.6314 21.2971 44.4774 21.5658 44.3284C22.4437 43.8419 23.2728 43.3824 24.2555 43.2957C24.4986 43.2742 24.7342 43.2581 24.962 43.2425C26.0633 43.1671 27.1036 43.0959 28.301 42.4412C30.0464 41.4869 31.4014 40.0038 32.7119 38.5695C33.1864 38.0501 33.6347 37.5595 34.0978 37.0964L38.393 32.8008C39.4952 31.6969 39.4952 29.901 38.393 28.7972ZM37.5943 32.0027L33.2994 36.298C32.8183 36.7792 32.3404 37.3022 31.8784 37.8079C30.6302 39.174 29.3397 40.5866 27.7593 41.4507C26.7794 41.9864 25.9433 42.0437 24.8849 42.1161C24.6516 42.132 24.4104 42.1486 24.1563 42.171C22.935 42.2787 21.9607 42.8187 21.0185 43.341C20.7584 43.4851 20.4895 43.6342 20.2202 43.7712C19.9177 43.9251 19.6032 44.0112 19.2853 44.0273C18.754 44.0543 18.4656 43.9634 18.3768 43.8745L12.0731 37.6635C12.0252 37.6157 11.9623 37.479 11.9289 37.2389C11.8625 36.7614 11.9651 36.2517 12.2179 35.8036C12.2588 35.731 12.3026 35.6546 12.3483 35.5748C12.8156 34.7592 13.4555 33.6423 13.4533 32.5661C13.453 32.3921 13.4646 32.0215 13.4794 31.5523C13.5582 29.0402 13.7429 23.1576 13.0578 19.4003C12.8874 18.4655 13.506 17.5513 14.4351 17.3626L14.483 17.353C14.9486 17.2584 15.4219 17.3531 15.8155 17.6197C16.2098 17.8866 16.474 18.2918 16.5605 18.7668L17.9706 26.036C18.0733 26.5648 18.4416 26.588 18.5947 26.5729C18.7256 26.5604 18.848 26.5025 18.9408 26.4093L33.8805 11.4089C34.2019 11.0874 34.6292 10.9103 35.0835 10.9103C35.5379 10.9103 35.9652 11.0874 36.2867 11.4089C36.2888 11.411 36.2909 11.4132 36.2931 11.4153L36.3225 11.4438C36.9827 12.1083 36.9818 13.1861 36.3197 13.8485L25.1919 24.9799C25.0265 25.1454 24.9852 25.3879 25.0681 25.5918C25.0956 25.6601 25.1371 25.7242 25.1924 25.7795C25.413 26.0001 25.7705 25.9999 25.9908 25.7794L30.6834 21.0854C30.9925 20.7761 31.3753 20.6253 31.791 20.6491C32.2086 20.6731 32.625 20.8728 32.9635 21.2115L32.9959 21.2438C33.6594 21.9076 33.6594 22.9876 32.9959 23.6514L28.4295 28.2193C28.2091 28.4399 28.2092 28.7973 28.4296 29.0177C28.6363 29.2244 28.9634 29.2373 29.1851 29.0564C29.1999 29.0443 29.2142 29.0314 29.2279 29.0176L32.9513 25.293C33.2726 24.9715 33.6999 24.7945 34.1545 24.7945C34.609 24.7945 35.0363 24.9715 35.3576 25.293L35.39 25.3253C36.0535 25.9891 36.0535 27.0691 35.39 27.7329L34.389 28.7342C34.3783 28.7446 34.3672 28.7544 34.3567 28.765L31.6662 31.4564C31.5008 31.6218 31.4596 31.8643 31.5423 32.0681C31.5699 32.1365 31.6113 32.2005 31.6667 32.2559C31.7769 32.3661 31.9214 32.4212 32.0658 32.4212C32.2103 32.4212 32.3548 32.366 32.465 32.2558L35.1716 29.5482C35.4912 29.2366 35.9113 29.0645 36.3582 29.0645C36.8126 29.0645 37.2398 29.2416 37.5613 29.5632C37.5634 29.5653 37.5656 29.5674 37.5677 29.5695L37.5971 29.598C38.257 30.2622 38.2559 31.3401 37.5943 32.0027Z" fill="white"/>
</svg>
