<svg width="34" height="34" viewBox="0 0 34 34" fill="none" xmlns="http://www.w3.org/2000/svg">
<g clip-path="url(#clip0_15_774)">
<path d="M24.8 11C22.9 6.3 17.9 3.7 12.9 4.6C8.00002 5.6 4.40002 9.99999 4.40002 15C4.5 19 5.70422 20.7042 7.50002 22.5C11.1 26.1 16.7 26.6 20.9 23.8C25.1 21 26.7 15.6 24.8 10.9V11ZM19.9 22.4C18.4 23.4 16.7 23.9 15 23.9C13.3 23.9 10.4 23 8.70002 21.3C7.00002 19.6 6.10002 17.4 6.10002 15C6.10002 10.8 9.10002 7.1 13.2 6.3C17.3 5.5 21.5 7.7 23.1 11.6C23.6 12.7 23.8 13.8 23.8 15C23.8 17.9 22.4 20.7 19.9 22.4ZM29.3 28L24.9 23.6C24.7 23.4 24.5 23.3 24.3 23.3C24.1 23.3 23.8 23.3 23.6 23.6C23.4 23.8 23.3 24 23.3 24.3C23.3 24.6 23.3 24.8 23.6 24.9L28 29.3C28.3 29.7 28.9 29.7 29.3 29.3C29.7 28.9 29.7 28.3 29.3 28Z" fill="white"/>
<path d="M24.8 41C22.9 36.3 17.9 33.7 12.9 34.6C8.00002 35.6 4.40002 40 4.40002 45C4.5 49 5.70422 50.7042 7.50002 52.5C11.1 56.1 16.7 56.6 20.9 53.8C25.1 51 26.7 45.6 24.8 40.9V41ZM19.9 52.4C18.4 53.4 16.7 53.9 15 53.9C13.3 53.9 10.4 53 8.70002 51.3C7.00002 49.6 6.10002 47.4 6.10002 45C6.10002 40.8 9.10002 37.1 13.2 36.3C17.3 35.5 21.5 37.7 23.1 41.6C23.6 42.7 23.8 43.8 23.8 45C23.8 47.9 22.4 50.7 19.9 52.4ZM29.3 58L24.9 53.6C24.7 53.4 24.5 53.3 24.3 53.3C24.1 53.3 23.8 53.3 23.6 53.6C23.4 53.8 23.3 54 23.3 54.3C23.3 54.6 23.3 54.8 23.6 54.9L28 59.3C28.3 59.7 28.9 59.7 29.3 59.3C29.7 58.9 29.7 58.3 29.3 58Z" fill="#FFD73C"/>
</g>
<defs>
<clipPath id="clip0_15_774">
<rect width="34" height="34" fill="white"/>
</clipPath>
</defs>
</svg>
