<svg width="50" height="50" viewBox="0 0 50 50" fill="none" xmlns="http://www.w3.org/2000/svg">
<path d="M24.9759 34.1042C23.4418 34.1085 22.2043 35.3592 22.2054 36.9031C22.2065 38.4634 23.4539 39.6998 25.023 39.6932C26.5603 39.6878 27.7979 38.4393 27.7935 36.8976C27.7902 35.3362 26.5417 34.0987 24.9759 34.1042ZM24.9858 38.2938C24.222 38.285 23.6115 37.6767 23.6049 36.9162C23.5972 36.1415 24.2242 35.5036 24.9945 35.5014C25.7692 35.5014 26.3962 36.1284 26.3962 36.9053C26.3962 37.6821 25.7659 38.3025 24.9858 38.2938Z" fill="white"/>
<path d="M29.1449 32.3129C28.8855 32.6466 28.4719 32.6642 28.0561 32.36C26.1139 30.9408 23.9124 30.9408 21.9439 32.36C21.5215 32.6652 21.1156 32.6477 20.8552 32.3129C20.5904 31.9737 20.6899 31.5547 21.1199 31.2286C22.2776 30.3489 23.5852 29.9079 24.9825 29.9068C26.4805 29.9211 27.7705 30.3719 28.9096 31.2516C29.3123 31.5623 29.3998 31.9847 29.1449 32.3129Z" fill="white"/>
<path d="M31.6987 28.596C31.6626 29.1344 31.075 29.4134 30.6045 29.1125C30.3638 28.9582 30.146 28.7689 29.9097 28.6081C26.8076 26.4952 22.6288 26.6221 19.6592 28.9177C19.5837 28.9757 19.5114 29.0403 19.4327 29.0928C19.077 29.3302 18.6831 29.281 18.4468 28.9746C18.2082 28.6639 18.2498 28.2689 18.5814 27.9921C19.3812 27.3213 20.2763 26.8027 21.2458 26.4186C22.4494 25.9427 23.7001 25.6943 25 25.7052C27.358 25.7205 29.4676 26.4515 31.3245 27.91C31.5521 28.0883 31.7195 28.2951 31.6987 28.596Z" fill="white"/>
<path d="M33.8707 25.7064C33.5698 25.9832 33.2361 25.9602 32.8072 25.6199C31.6736 24.7227 30.4327 24.0159 29.054 23.5782C24.814 22.2291 20.8967 22.8845 17.3143 25.5247C17.2366 25.5805 17.1655 25.6462 17.0878 25.7009C16.6895 25.9865 16.2989 25.9504 16.0417 25.6068C15.7977 25.2807 15.8612 24.9011 16.2256 24.6034C17.1502 23.8485 18.1579 23.2259 19.2456 22.7368C21.0762 21.915 22.9976 21.5069 25.2232 21.496C28.2531 21.5365 31.1659 22.5344 33.7176 24.5575C34.1706 24.9164 34.2264 25.3781 33.8707 25.7064Z" fill="white"/>
<path d="M45.3468 17.6619C44.9211 17.3654 44.4911 17.0721 44.0654 16.7756C40.6679 14.4089 37.2551 12.0652 33.8565 9.70066C31.5685 8.10864 29.2751 6.52317 26.9816 4.9399C26.4411 4.56678 25.9531 4.07331 25.2462 4H24.7538C24.4956 4.07112 24.2319 4.09519 23.9944 4.25932C22.9845 4.9585 21.9756 5.66206 20.9624 6.35905C20.0411 6.99148 19.1285 7.63705 18.1623 8.29136C18.1142 8.06378 18.0802 7.87886 18.0387 7.69723C17.81 6.72341 16.904 5.95311 15.8535 6.01766C15.2134 6.05705 14.5678 6.05705 13.9277 6.01876C12.5326 5.9356 11.5544 7.09433 11.5938 8.35154C11.6354 9.68972 11.596 11.0301 11.608 12.3683C11.6113 12.702 11.5052 12.9241 11.2229 13.1167C9.03444 14.6113 6.86244 16.1301 4.6795 17.6335C4.32826 17.8753 4.06784 18.1674 4 18.6018V19.3404C4.19367 20.1085 4.71999 20.6807 5.18831 21.276C5.58003 21.7738 6.36348 21.892 6.95764 21.6381C7.39204 21.4521 7.39642 21.4543 7.40298 21.9237C7.40517 22.0463 7.40298 22.1688 7.40298 22.2925C7.40298 29.0107 7.40407 35.7301 7.40189 42.4483C7.40189 42.8466 7.4183 43.2394 7.56055 43.618C8.06169 44.9441 8.93377 45.8238 10.3978 46H39.5201C39.9283 45.9125 40.355 45.919 40.7325 45.6882C41.9328 44.9551 42.597 43.9189 42.597 42.4899C42.5959 39.1986 42.597 35.9073 42.597 32.616C42.597 29.0796 42.5959 25.5422 42.597 22.0058C42.597 21.4587 42.5992 21.4587 43.0796 21.6546C43.6529 21.8876 44.4331 21.7607 44.8128 21.276C45.2789 20.6807 45.8063 20.1085 46 19.3404V18.6018C45.9376 18.1805 45.6838 17.8961 45.3468 17.6619ZM13.106 8.24213C13.1093 7.77163 13.3686 7.51778 13.8489 7.51012C14.5175 7.50027 15.1861 7.50027 15.8546 7.51012C16.3109 7.51669 16.5571 7.7585 16.602 8.20711C16.6074 8.26182 16.5976 8.31762 16.6063 8.37124C16.7508 9.18312 16.4729 9.73021 15.72 10.1471C14.9125 10.5924 14.1882 11.1855 13.4222 11.7074C13.3314 11.7698 13.2603 11.9032 13.1027 11.8442C13.1027 10.6428 13.0972 9.44134 13.106 8.24103V8.24213ZM38.764 44.6159C34.1705 44.582 29.5771 44.6027 24.9847 44.6027C20.3923 44.6027 15.8251 44.6027 11.2458 44.6027C9.74786 44.6027 8.90751 43.7668 8.90751 42.2743C8.90642 35.0429 8.90861 27.8115 8.90095 20.5801C8.90095 20.3076 8.97426 20.1424 9.20623 19.9827C14.3545 16.4364 19.4983 12.8825 24.6345 9.3177C24.9289 9.11309 25.1083 9.11419 25.4038 9.31989C30.5246 12.8814 35.6543 16.431 40.7894 19.9739C41.0203 20.1336 41.0991 20.2945 41.0991 20.5691C41.0914 27.8005 41.0761 35.0331 41.1078 42.2645C41.1144 43.7175 40.0552 44.6257 38.764 44.6159ZM43.6693 20.1358C43.2787 20.277 42.8651 19.7069 42.4734 19.4367C37.0374 15.6836 31.6068 11.9218 26.1752 8.16225C25.1959 7.48496 24.8096 7.48496 23.8478 8.15131C18.135 12.1057 12.421 16.0567 6.71582 20.0209C6.3985 20.2409 6.23437 20.2617 6.04179 19.9006C5.87 19.5778 5.44435 19.2561 5.48593 18.9913C5.52642 18.7364 6.0199 18.5493 6.32081 18.3403C12.4495 14.1014 18.5792 9.8637 24.7046 5.62048C24.9157 5.47386 25.0558 5.42024 25.3009 5.58984C31.6462 9.99609 37.9992 14.3914 44.3499 18.7889C44.4287 18.8436 44.502 18.9049 44.5929 18.9749C44.2898 19.3841 44.0644 19.9925 43.6693 20.1358Z" fill="white"/>
<path d="M33.8707 25.7064C33.5698 25.9832 33.2361 25.9602 32.8072 25.6199C31.6736 24.7227 30.4327 24.0159 29.054 23.5782C24.814 22.2291 20.8967 22.8845 17.3143 25.5247C17.2366 25.5805 17.1655 25.6462 17.0878 25.7009C16.6895 25.9865 16.2989 25.9504 16.0417 25.6068C15.7977 25.2807 15.8612 24.9011 16.2256 24.6034C17.1502 23.8485 18.1579 23.2259 19.2456 22.7368C21.0762 21.915 22.9976 21.5069 25.2232 21.496C28.2531 21.5365 31.1659 22.5344 33.7176 24.5575C34.1706 24.9164 34.2264 25.3781 33.8707 25.7064Z" fill="white"/>
<path d="M31.6987 28.596C31.6626 29.1344 31.075 29.4134 30.6045 29.1125C30.3638 28.9582 30.146 28.7689 29.9097 28.6081C26.8076 26.4952 22.6288 26.6221 19.6592 28.9177C19.5837 28.9757 19.5114 29.0403 19.4327 29.0928C19.077 29.3302 18.6831 29.281 18.4468 28.9746C18.2082 28.6639 18.2498 28.2689 18.5814 27.9921C19.3812 27.3213 20.2763 26.8027 21.2458 26.4186C22.4494 25.9427 23.7001 25.6943 25 25.7052C27.358 25.7205 29.4676 26.4515 31.3245 27.91C31.5521 28.0883 31.7195 28.2951 31.6987 28.596Z" fill="white"/>
<path d="M24.9759 34.1042C23.4418 34.1085 22.2043 35.3592 22.2054 36.9031C22.2065 38.4634 23.4539 39.6998 25.023 39.6932C26.5603 39.6878 27.7979 38.4393 27.7935 36.8976C27.7902 35.3362 26.5417 34.0987 24.9759 34.1042ZM24.9858 38.2938C24.222 38.285 23.6115 37.6767 23.6049 36.9162C23.5972 36.1415 24.2242 35.5036 24.9945 35.5014C25.7692 35.5014 26.3962 36.1284 26.3962 36.9053C26.3962 37.6821 25.7659 38.3025 24.9858 38.2938Z" fill="white"/>
<path d="M29.1449 32.3129C28.8855 32.6466 28.4719 32.6642 28.0561 32.36C26.1139 30.9408 23.9124 30.9408 21.9439 32.36C21.5215 32.6652 21.1156 32.6477 20.8552 32.3129C20.5904 31.9737 20.6899 31.5547 21.1199 31.2286C22.2776 30.3489 23.5852 29.9079 24.9825 29.9068C26.4805 29.9211 27.7705 30.3719 28.9096 31.2516C29.3123 31.5623 29.3998 31.9847 29.1449 32.3129Z" fill="white"/>
</svg>
