<svg width="50" height="50" viewBox="0 0 50 50" fill="none" xmlns="http://www.w3.org/2000/svg">
<path d="M23.3355 4.34424H26.6276C26.8488 4.42131 27.1195 4.45464 27.3552 4.47796C28.5445 4.59567 29.72 4.85178 30.8669 5.19495C36.2449 6.81535 40.7352 10.5486 43.3102 15.5403C44.2065 17.2796 44.8457 19.1399 45.2073 21.0629C45.2869 21.5025 45.4834 23.1316 45.5738 23.4017V26.4772L45.5622 26.5137C45.4392 26.9116 45.3608 27.9324 45.2817 28.389C45.1446 29.1804 44.9815 29.8885 44.7561 30.6625C43.1947 35.9648 39.5796 40.4236 34.7147 43.0476C32.9375 44.0149 30.9971 44.7086 29.0141 45.1189C28.5898 45.2069 26.9216 45.3881 26.6807 45.4918H23.3781C23.1871 45.4146 21.4015 45.1796 21.032 45.1112C19.5555 44.8267 18.1163 44.3751 16.742 43.7652C11.3007 41.3631 7.15455 36.738 5.35919 31.0676C5.10014 30.2325 4.89216 29.3826 4.73642 28.5223C4.65695 28.0611 4.58639 26.9692 4.42627 26.5926V23.2054C4.54208 22.9949 4.68979 21.608 4.75219 21.2392C4.82156 20.8502 4.90407 20.4637 4.99959 20.0802C5.35176 18.6125 5.86861 17.1892 6.5403 15.8375C9.06356 10.6998 13.6141 6.84641 19.0973 5.20411C19.9808 4.94132 20.8799 4.73388 21.7893 4.583C22.1958 4.51717 22.9707 4.47723 23.3355 4.34424ZM26.1049 44.0807C36.6908 43.4688 44.775 34.3889 44.1584 23.8032C43.5419 13.2176 34.4584 5.13745 23.873 5.75856C13.2942 6.37929 5.22011 15.456 5.83623 26.0351C6.45234 36.6142 15.5255 44.6921 26.1049 44.0807Z" fill="white"/>
<path d="M24.4904 7.09593C26.823 7.02906 29.146 7.42162 31.3271 8.25125C35.7788 9.95271 39.3692 13.3576 41.3041 17.7128C43.2096 22.0122 43.3329 26.8916 41.6471 31.2817C41.1333 32.6186 39.3405 36.1985 38.0697 36.7639C37.4449 36.5447 36.9421 35.9175 36.4732 35.4443L34.6587 33.6249C33.0226 31.9469 31.2962 30.2616 29.6359 28.6014L19.6936 18.6579L15.5721 14.5364C14.8607 13.8265 14.1409 13.1234 13.4439 12.4003C13.1402 12.0852 13.1275 11.6325 13.4651 11.3384C16.5575 8.64467 20.432 7.27043 24.4904 7.09593ZM14.9165 11.961C15.6509 12.6014 16.7423 13.7583 17.4611 14.4774L22.0952 19.1108C22.455 19.4718 24.077 21.1379 24.3435 21.3006C24.8115 20.8306 25.4302 20.245 25.867 19.7657C25.5617 18.0244 25.7238 16.522 26.7679 15.0352C27.6629 13.7645 29.0311 12.9069 30.5649 12.6551C31.4215 12.5089 33.1339 12.3957 33.3247 13.5734C33.4492 14.3416 32.7481 14.8325 32.2839 15.318C31.6613 15.9761 30.9152 16.5975 30.3337 17.2906C30.5472 17.8278 30.7712 18.3609 31.0054 18.8894C31.4475 19.0924 32.1912 19.4506 32.6469 19.5554C33.6711 18.6289 34.5648 17.4544 35.6899 16.6723C36.0387 16.4297 36.7552 16.6682 37.0117 16.9871C37.4068 17.4785 37.3695 18.2479 37.3218 18.8291C37.2137 20.1656 36.6522 21.425 35.7305 22.3989C34.1534 23.9668 32.3231 24.5062 30.1482 24.0657C29.7894 24.381 28.8716 25.262 28.5929 25.6333C29.3829 26.3442 30.3522 27.3681 31.1185 28.1346L35.7588 32.7766C36.4229 33.4408 37.306 34.3777 37.99 34.9817C40.5583 31.8618 41.7662 27.3551 41.3782 23.3528C40.9584 18.9927 38.8164 14.9803 35.4272 12.2055C32.1461 9.50599 28.4396 8.3887 24.231 8.50326C21.4431 8.62763 18.733 9.46034 16.3563 10.9228C15.944 11.1764 15.2451 11.6362 14.9165 11.961ZM31.4086 13.9639C30.093 14.0566 29.0153 14.4996 28.1379 15.5145C27.3937 16.3839 27.021 17.511 27.1 18.6528C27.1399 19.188 27.292 19.5688 27.3525 20.0299C27.1202 20.6145 25.8164 21.7824 25.2945 22.2942C25.7671 22.7866 26.2466 23.2723 26.7328 23.7513C26.9784 23.996 27.3789 24.4122 27.6393 24.6172C28.1247 24.0642 29.2167 22.804 29.8645 22.5687C30.9815 22.7905 31.6235 22.9595 32.7656 22.6546C34.7515 21.9638 35.9876 20.3877 35.9728 18.2503L35.9415 18.2731C35.0009 18.9676 34.239 20.1992 33.2044 20.7992C32.531 21.1897 30.3341 20.3085 29.9208 19.7117C29.5046 19.1109 28.9074 17.7549 29.0334 17.0056C29.1905 16.1467 30.5047 15.2196 31.0952 14.5447C31.2397 14.3795 31.5005 14.2001 31.6043 14.0139L31.565 13.9663L31.4086 13.9639Z" fill="white"/>
<path d="M11.7286 13.154C12.0939 13.1116 12.2635 13.1568 12.5327 13.4218C13.6394 14.5114 14.7329 15.6153 15.8312 16.7135L22.441 23.3231L31.8375 32.7218C33.3764 34.2433 34.9072 35.773 36.4298 37.3108C37.2389 38.1385 36.4744 38.5917 35.7654 39.1196C34.3634 40.1739 32.819 41.0241 31.1782 41.6447C27.444 43.0352 23.3499 43.1252 19.5582 41.9003C15.0424 40.4416 11.2893 37.2518 9.12187 33.0301C6.97421 28.8275 6.58224 23.9443 8.03203 19.4529C8.65554 17.546 9.58755 15.7542 10.7909 14.149C11.0175 13.8442 11.3943 13.3249 11.7286 13.154ZM35.0644 37.8908C33.742 36.5991 32.4255 35.2612 31.1173 33.952L25.686 28.5306C25.0699 29.0676 24.3704 29.803 23.7826 30.3906L20.6988 33.4755C19.5641 34.612 18.5707 36.0249 16.8263 35.8801C15.4829 35.7687 14.3478 34.8076 14.088 33.469C13.7325 31.5596 15.0252 30.6047 16.2397 29.3916L19.719 25.9168C20.1054 25.531 21.0935 24.5941 21.3981 24.2208C20.4617 23.3124 12.1928 14.937 11.9866 14.8883C9.37177 18.0782 8.22969 22.5422 8.63224 26.6192C9.08538 30.9602 11.2451 34.9431 14.636 37.6911C17.997 40.4275 22.3052 41.7208 26.6176 41.288C29.1754 41.0357 31.6373 40.1824 33.8026 38.7977C34.131 38.5881 34.797 38.1435 35.0644 37.8908ZM17.6768 34.385C18.165 34.137 19.4671 32.7492 19.9465 32.2684L22.8987 29.3141C23.4594 28.7539 24.1087 28.0727 24.6957 27.5532C24.4368 27.2611 22.5373 25.2875 22.3233 25.2655C21.7886 25.8407 21.1551 26.4426 20.5947 27.0013L17.5209 30.0711C17.1377 30.4539 16.7515 30.8355 16.3707 31.2205C15.8531 31.7436 15.3722 32.138 15.4061 32.9446C15.4223 33.3784 15.6117 33.7875 15.9317 34.0807C16.2692 34.3817 16.7149 34.5322 17.1658 34.4971C17.3473 34.4841 17.5068 34.4464 17.6768 34.385Z" fill="white"/>
</svg>
