<svg width="11" height="11" viewBox="0 0 11 11" fill="none" xmlns="http://www.w3.org/2000/svg">
<path d="M8.70215 0.224609C9.09487 -0.0958607 9.67385 -0.0730522 10.04 0.292969C10.4061 0.658985 10.4295 1.23809 10.1094 1.63086L10.04 1.70703L1.70703 10.04C1.31651 10.4306 0.683493 10.4306 0.292969 10.04C-0.0973928 9.6495 -0.0975013 9.01645 0.292969 8.62598L8.62598 0.292969L8.70215 0.224609Z" fill="black"/>
<path d="M8.33301 9.33301V2H1C0.447715 2 0 1.55228 0 1C0 0.447715 0.447715 0 1 0H9.33301L9.43555 0.00488281C9.93983 0.0560659 10.333 0.482213 10.333 1V9.33301C10.333 9.88529 9.88529 10.333 9.33301 10.333C8.78087 10.3328 8.33301 9.88518 8.33301 9.33301Z" fill="black"/>
</svg>
