<svg width="24" height="24" viewBox="0 0 24 24" fill="none" xmlns="http://www.w3.org/2000/svg">
<path d="M14.672 9.77068L11.066 13.1766L9.33539 11.3962C9.14353 11.1987 8.82761 11.1942 8.63029 11.386C8.43276 11.5781 8.42827 11.8938 8.62013 12.0913L10.6958 14.2221C10.8886 14.4161 11.2002 14.4227 11.4011 14.2369L15.3674 10.4959C15.4637 10.4051 15.5199 10.2796 15.5237 10.1474C15.5274 10.0151 15.4783 9.88673 15.3873 9.79061C15.1943 9.58996 14.876 9.58117 14.672 9.77068Z" fill="white"/>
<path d="M11.9962 4.529C7.87497 4.529 4.52392 7.88005 4.52392 12.0013C4.52392 16.1227 7.87497 19.4737 11.9962 19.4737C16.1176 19.4737 19.4686 16.1227 19.4686 12.0013C19.4686 7.88005 16.1176 4.529 11.9962 4.529ZM11.9962 18.4734C8.42514 18.4734 5.52424 15.5674 5.52424 12.0013C5.52424 8.43511 8.42514 5.52932 11.9962 5.52932C15.5707 5.52932 18.4683 8.4269 18.4683 12.0013C18.4683 15.5756 15.5707 18.4734 11.9962 18.4734Z" fill="white"/>
<path d="M22.2795 9.2504L22.4446 6.28444C22.4561 6.08535 22.3479 5.89838 22.1695 5.80929L19.5286 4.47391L18.1932 1.83304C18.1024 1.65623 17.9166 1.54858 17.7181 1.55796L14.747 1.71816L12.2713 0.0824965C12.1044 -0.0274988 11.8881 -0.0274988 11.7211 0.0824965L9.24532 1.71816L6.27955 1.55307C6.08027 1.54135 5.89349 1.64959 5.8044 1.82816L4.46883 4.46902L1.82816 5.8044C1.65115 5.89506 1.5437 6.08086 1.55307 6.27955L1.71797 9.24552L0.0824965 11.7213C-0.0274988 11.8881 -0.0274988 12.1044 0.0824965 12.2715L1.71308 14.7521L1.54799 17.7181C1.53647 17.9172 1.64451 18.1041 1.82308 18.1932L4.46394 19.5286L5.79932 22.1695C5.88998 22.3465 6.07578 22.4539 6.27447 22.4446L9.24044 22.2795L11.7162 23.9149C11.8821 24.0285 12.1005 24.0285 12.2664 23.9149L14.7422 22.2795L17.7081 22.4446C17.9072 22.4561 18.094 22.3479 18.1833 22.1695L19.5187 19.5286L22.1595 18.1932C22.3363 18.1024 22.444 17.9168 22.4346 17.7181L22.2695 14.7521L23.905 12.2763C24.015 12.1095 24.015 11.893 23.905 11.7262L22.2795 9.2504ZM21.3491 14.342C21.2881 14.4315 21.2598 14.5392 21.2692 14.6472L21.4241 17.453L18.9284 18.7133C18.8333 18.761 18.7561 18.8384 18.7084 18.9335L17.4479 21.4292L14.6421 21.2743C14.5347 21.2704 14.4286 21.2981 14.337 21.3542L11.9962 22.8998L9.65561 21.3542C9.57433 21.2993 9.4786 21.2696 9.38052 21.2692H9.35551L6.54956 21.4243L5.2892 18.9284C5.24153 18.8333 5.16436 18.7561 5.06902 18.7084L2.56823 17.453L2.72336 14.6472C2.72727 14.5398 2.69933 14.4337 2.64326 14.342L1.09785 12.0013L2.64326 9.66049C2.70441 9.57121 2.73274 9.46336 2.72336 9.35551L2.56823 6.54956L5.06413 5.2892C5.15928 5.24153 5.23645 5.16436 5.28412 5.06921L6.54448 2.57331L9.35043 2.72844C9.45769 2.73215 9.56378 2.70441 9.65561 2.64834L11.9962 1.10293L14.337 2.64834C14.4264 2.70949 14.5343 2.73782 14.6421 2.72844L17.4479 2.57331L18.7084 5.06921C18.7561 5.16436 18.8333 5.24153 18.9284 5.2892L21.4241 6.54956L21.2692 9.35551C21.2653 9.46277 21.2932 9.56886 21.3491 9.66049L22.8947 12.0013L21.3491 14.342Z" fill="white"/>
</svg>
