<svg width="26" height="26" viewBox="0 0 26 26" fill="none" xmlns="http://www.w3.org/2000/svg">
<path d="M20.5592 16.1061C20.0261 15.5518 19.3831 15.2555 18.7017 15.2555C18.0258 15.2555 17.3773 15.5464 16.8223 16.1006L15.0857 17.8291C14.9428 17.7523 14.7999 17.681 14.6625 17.6096C14.4647 17.5109 14.2779 17.4176 14.1185 17.3188C12.4918 16.2872 11.0135 14.9427 9.59572 13.2032C8.90878 12.3362 8.44716 11.6064 8.11194 10.8655C8.56257 10.454 8.98022 10.026 9.38689 9.6144C9.54076 9.46075 9.69464 9.30161 9.84851 9.14796C11.0026 7.99559 11.0026 6.503 9.84851 5.35063L8.34825 3.85255C8.17789 3.68244 8.00203 3.50684 7.83717 3.33124C7.50744 2.99101 7.16122 2.63982 6.80402 2.31057C6.27096 1.78377 5.63348 1.50391 4.96304 1.50391C4.29259 1.50391 3.64413 1.78377 3.09458 2.31057C3.08908 2.31606 3.08908 2.31606 3.08359 2.32154L1.21513 4.20375C0.51171 4.90614 0.110541 5.76219 0.022613 6.75542C-0.109278 8.35777 0.363332 9.85036 0.726033 10.8271C1.6163 13.2252 2.9462 15.4476 4.93007 17.8291C7.33708 20.6991 10.2332 22.9654 13.5415 24.5623C14.8054 25.1604 16.4925 25.8683 18.3775 25.989C18.4929 25.9945 18.6138 26 18.7237 26C19.9931 26 21.0593 25.5445 21.8946 24.6391C21.9001 24.6281 21.9111 24.6226 21.9166 24.6117C22.2023 24.266 22.532 23.9532 22.8783 23.6184C23.1146 23.3934 23.3564 23.1575 23.5927 22.9106C24.1367 22.3453 24.4225 21.6868 24.4225 21.0119C24.4225 20.3314 24.1312 19.6784 23.5762 19.1297L20.5592 16.1061ZM22.5266 21.8844C22.5211 21.8844 22.5211 21.8899 22.5266 21.8844C22.3122 22.1149 22.0924 22.3234 21.8561 22.5539C21.4989 22.8941 21.1362 23.2508 20.7955 23.6514C20.2404 24.244 19.5865 24.5239 18.7292 24.5239C18.6468 24.5239 18.5588 24.5239 18.4764 24.5184C16.8442 24.4141 15.3275 23.7776 14.1899 23.2343C11.0795 21.7307 8.34825 19.5961 6.07862 16.8908C4.20466 14.6354 2.9517 12.5502 2.12188 10.3113C1.6108 8.94493 1.42396 7.88036 1.50639 6.87615C1.56134 6.23411 1.80864 5.70183 2.26476 5.24637L4.13872 3.37514C4.408 3.12271 4.69376 2.98553 4.97403 2.98553C5.32024 2.98553 5.60051 3.19405 5.77637 3.36965C5.78186 3.37514 5.78736 3.38063 5.79285 3.38611C6.12808 3.6989 6.44681 4.02266 6.78204 4.36837C6.9524 4.54397 7.12825 4.71957 7.30411 4.90066L8.80437 6.39874C9.38689 6.98041 9.38689 7.51818 8.80437 8.09985C8.645 8.25899 8.49113 8.41813 8.33176 8.57178C7.87014 9.0437 7.4305 9.4827 6.9524 9.91072C6.94141 9.9217 6.93042 9.92718 6.92492 9.93816C6.45231 10.4101 6.54024 10.871 6.63916 11.1838C6.64465 11.2003 6.65015 11.2167 6.65564 11.2332C7.04582 12.177 7.59537 13.066 8.43068 14.1251L8.43617 14.1306C9.95292 15.9963 11.5521 17.4505 13.3161 18.5645C13.5415 18.7071 13.7723 18.8224 13.9921 18.9321C14.1899 19.0309 14.3768 19.1242 14.5361 19.223C14.5581 19.2339 14.5801 19.2504 14.6021 19.2614C14.7889 19.3547 14.9648 19.3986 15.1461 19.3986C15.6023 19.3986 15.888 19.1132 15.9814 19.0199L17.8609 17.1432C18.0477 16.9566 18.3445 16.7317 18.6907 16.7317C19.0314 16.7317 19.3117 16.9457 19.4821 17.1322C19.4876 17.1377 19.4876 17.1377 19.4931 17.1432L22.5211 20.1668C23.0871 20.7265 23.0871 21.3027 22.5266 21.8844Z" fill="black"/>
<path d="M14.0525 6.18475C15.4924 6.4262 16.8003 7.10664 17.8444 8.14926C18.8886 9.19188 19.5645 10.4979 19.8118 11.9356C19.8722 12.2978 20.1855 12.5502 20.5427 12.5502C20.5867 12.5502 20.6251 12.5447 20.6691 12.5392C21.0758 12.4734 21.345 12.0893 21.2791 11.6832C20.9823 9.94367 20.158 8.35779 18.8996 7.10116C17.6411 5.84452 16.0529 5.0214 14.3108 4.72508C13.9042 4.65923 13.525 4.92811 13.4535 5.3287C13.3821 5.72929 13.6459 6.1189 14.0525 6.18475Z" fill="black"/>
<path d="M25.9887 11.4691C25.4996 8.60468 24.1477 5.99813 22.0704 3.92386C19.9931 1.8496 17.3828 0.499679 14.5142 0.011294C14.113 -0.0600431 13.7338 0.214331 13.6624 0.614916C13.5964 1.02099 13.8657 1.39963 14.2724 1.47096C16.8332 1.90447 19.1688 3.11721 21.0263 4.96648C22.8838 6.82125 24.0928 9.15343 24.5269 11.7106C24.5873 12.0728 24.9006 12.3252 25.2578 12.3252C25.3018 12.3252 25.3402 12.3197 25.3842 12.3142C25.7854 12.2539 26.0601 11.8697 25.9887 11.4691Z" fill="black"/>
</svg>
