<svg width="28" height="28" viewBox="0 0 28 28" fill="none" xmlns="http://www.w3.org/2000/svg">
<path d="M22.1406 17.345C21.5666 16.7481 20.8742 16.429 20.1403 16.429C19.4124 16.429 18.714 16.7422 18.1163 17.3391L16.2461 19.2006C16.0923 19.1179 15.9384 19.0411 15.7904 18.9642C15.5774 18.8579 15.3762 18.7574 15.2045 18.651C13.4527 17.54 11.8607 16.0922 10.3338 14.2188C9.59407 13.2851 9.09695 12.4991 8.73594 11.7014C9.22123 11.2581 9.67101 10.7972 10.109 10.354C10.2747 10.1885 10.4404 10.0171 10.6061 9.85165C11.8489 8.61064 11.8489 7.00323 10.6061 5.76222L8.99042 4.1489C8.80695 3.9657 8.61757 3.77659 8.44003 3.58749C8.08493 3.22109 7.71209 2.84288 7.32741 2.4883C6.75334 1.92098 6.06683 1.61959 5.34481 1.61959C4.62279 1.61959 3.92444 1.92098 3.33262 2.4883C3.32671 2.49421 3.32671 2.49421 3.32079 2.50012L1.3086 4.52711C0.551072 5.28354 0.119044 6.20544 0.0243525 7.27507C-0.117684 9.00067 0.391281 10.6081 0.781882 11.66C1.74063 14.2425 3.17283 16.6359 5.3093 19.2006C7.90147 22.2913 11.0204 24.732 14.5831 26.4517C15.9443 27.0958 17.7612 27.8582 19.7911 27.9882C19.9154 27.9941 20.0456 28 20.164 28C21.5311 28 22.6792 27.5095 23.5788 26.5344C23.5847 26.5226 23.5965 26.5167 23.6024 26.5049C23.9102 26.1326 24.2653 25.7957 24.6381 25.4352C24.8926 25.1929 25.153 24.9388 25.4075 24.6729C25.9934 24.0642 26.3011 23.3551 26.3011 22.6282C26.3011 21.8954 25.9875 21.1922 25.3897 20.6012L22.1406 17.345ZM24.2594 23.5678C24.2534 23.5678 24.2534 23.5737 24.2594 23.5678C24.0286 23.816 23.7918 24.0406 23.5373 24.2888C23.1527 24.6552 22.7621 25.0393 22.3951 25.4707C21.7974 26.1089 21.0931 26.4103 20.1699 26.4103C20.0811 26.4103 19.9864 26.4103 19.8977 26.4044C18.1399 26.2921 16.5065 25.6066 15.2815 25.0216C11.9318 23.4023 8.99042 21.1035 6.5462 18.1901C4.5281 15.7612 3.17875 13.5156 2.2851 11.1045C1.73471 9.633 1.53349 8.48654 1.62227 7.40508C1.68145 6.71366 1.94777 6.14043 2.43898 5.64993L4.45708 3.63476C4.74707 3.36292 5.05482 3.21518 5.35665 3.21518C5.72949 3.21518 6.03132 3.43975 6.2207 3.62885C6.22662 3.63476 6.23254 3.64067 6.23846 3.64658C6.59947 3.98343 6.94272 4.3321 7.30373 4.7044C7.4872 4.89351 7.67658 5.08261 7.86596 5.27763L9.48163 6.89095C10.109 7.51736 10.109 8.0965 9.48163 8.72292C9.31 8.8943 9.14429 9.06567 8.97266 9.23114C8.47554 9.73937 8.00208 10.2121 7.4872 10.6731C7.47536 10.6849 7.46352 10.6908 7.45761 10.7026C6.94864 11.2109 7.04333 11.7073 7.14986 12.0441C7.15578 12.0618 7.1617 12.0796 7.16761 12.0973C7.58781 13.1137 8.17963 14.0711 9.07919 15.2116L9.08511 15.2176C10.7185 17.2268 12.4407 18.7929 14.3405 19.9925C14.5831 20.1462 14.8317 20.2703 15.0684 20.3884C15.2815 20.4948 15.4827 20.5953 15.6543 20.7017C15.678 20.7135 15.7017 20.7312 15.7253 20.743C15.9265 20.8435 16.1159 20.8908 16.3112 20.8908C16.8024 20.8908 17.1102 20.5835 17.2108 20.483L19.2348 18.4619C19.436 18.261 19.7556 18.0187 20.1285 18.0187C20.4954 18.0187 20.7972 18.2492 20.9807 18.4501C20.9866 18.456 20.9866 18.456 20.9925 18.4619L24.2534 21.7181C24.863 22.3209 24.863 22.9414 24.2594 23.5678Z" fill="white"/>
<path d="M15.1335 6.6605C16.6841 6.92052 18.0926 7.65331 19.2171 8.77613C20.3415 9.89895 21.0695 11.3054 21.3358 12.8537C21.4009 13.2438 21.7382 13.5156 22.1229 13.5156C22.1702 13.5156 22.2117 13.5097 22.259 13.5038C22.697 13.4329 22.987 13.0192 22.9159 12.5819C22.5964 10.7086 21.7086 9.00069 20.3534 7.6474C18.9981 6.2941 17.2877 5.40766 15.4117 5.08855C14.9737 5.01763 14.5654 5.3072 14.4884 5.7386C14.4115 6.17 14.6956 6.58958 15.1335 6.6605Z" fill="white"/>
<path d="M27.9878 12.3514C27.4611 9.26658 26.0052 6.45952 23.7681 4.2257C21.5311 1.99188 18.7199 0.538116 15.6306 0.0121628C15.1986 -0.0646618 14.7902 0.230818 14.7133 0.662218C14.6423 1.09953 14.9323 1.50729 15.3702 1.58411C18.1281 2.05097 20.6433 3.35699 22.6437 5.34852C24.644 7.34596 25.946 9.85754 26.4136 12.6114C26.4787 13.0014 26.816 13.2733 27.2007 13.2733C27.248 13.2733 27.2895 13.2674 27.3368 13.2615C27.7688 13.1965 28.0648 12.7828 27.9878 12.3514Z" fill="white"/>
</svg>
