<svg width="20" height="20" viewBox="0 0 20 20" fill="none" xmlns="http://www.w3.org/2000/svg">
<path d="M11.3364 14.0909C11.1319 14.11 10.9266 14.0638 10.75 13.9591C10.6209 13.8266 10.5591 13.6426 10.5818 13.4591C10.5866 13.3062 10.6048 13.1541 10.6364 13.0045C10.6669 12.8329 10.7063 12.663 10.7545 12.4954L11.2909 10.65C11.3462 10.4678 11.3828 10.2805 11.4 10.0909C11.4 9.88633 11.4273 9.74539 11.4273 9.66359C11.4387 9.29902 11.283 8.94918 11.0045 8.71359C10.662 8.45062 10.2354 8.32137 9.80453 8.34996C9.49574 8.35461 9.18934 8.40516 8.89543 8.49996C8.57422 8.59996 8.23633 8.71965 7.8818 8.85906L7.72727 9.45906C7.8318 9.42269 7.9591 9.3818 8.10453 9.33633C8.24328 9.29523 8.38711 9.27379 8.5318 9.27269C8.73477 9.2507 8.93906 9.30055 9.10906 9.41359C9.22453 9.55137 9.27871 9.73035 9.25906 9.90906C9.25856 10.0619 9.2418 10.2143 9.20906 10.3636C9.17723 10.5227 9.13633 10.6909 9.08633 10.8681L8.54543 12.7227C8.50184 12.895 8.46695 13.0695 8.4409 13.2454C8.41965 13.396 8.40902 13.5479 8.40906 13.6999C8.40684 14.067 8.57469 14.4144 8.86359 14.6408C9.21141 14.9079 9.64406 15.0403 10.0818 15.0136C10.39 15.0199 10.6971 14.9754 10.9909 14.8817C11.2484 14.7938 11.5924 14.6681 12.0227 14.5045L12.1682 13.9317C12.0516 13.9801 11.9316 14.0196 11.8091 14.0499C11.6541 14.0853 11.4951 14.099 11.3364 14.0909Z" fill="url(#paint0_linear_1_683)"/>
<path d="M11.9045 5.3409C11.6571 5.11371 11.3312 4.99148 10.9954 5C10.6598 4.99242 10.3342 5.11453 10.0863 5.3409C9.63195 5.7327 9.58121 6.41867 9.97305 6.87309C10.008 6.91359 10.0458 6.95145 10.0863 6.98637C10.604 7.44938 11.3869 7.44938 11.9045 6.98637C12.3589 6.5907 12.4065 5.90164 12.0108 5.44727C11.9779 5.40941 11.9424 5.37387 11.9045 5.3409Z" fill="url(#paint1_linear_1_683)"/>
<path d="M10 0C4.47715 0 0 4.47715 0 10C0 15.5229 4.47715 20 10 20C15.5229 20 20 15.5229 20 10C20 4.47715 15.5229 0 10 0ZM10 19.0909C4.97922 19.0909 0.909102 15.0208 0.909102 10C0.909102 4.97922 4.97922 0.909102 10 0.909102C15.0208 0.909102 19.0909 4.97922 19.0909 10C19.0909 15.0208 15.0208 19.0909 10 19.0909Z" fill="url(#paint2_linear_1_683)"/>
<defs>
<linearGradient id="paint0_linear_1_683" x1="20" y1="10" x2="0" y2="10" gradientUnits="userSpaceOnUse">
<stop stop-color="#184385"/>
<stop offset="1" stop-color="#88D1FF"/>
</linearGradient>
<linearGradient id="paint1_linear_1_683" x1="20" y1="10" x2="0" y2="10" gradientUnits="userSpaceOnUse">
<stop stop-color="#184385"/>
<stop offset="1" stop-color="#88D1FF"/>
</linearGradient>
<linearGradient id="paint2_linear_1_683" x1="20" y1="10" x2="0" y2="10" gradientUnits="userSpaceOnUse">
<stop stop-color="#184385"/>
<stop offset="1" stop-color="#88D1FF"/>
</linearGradient>
</defs>
</svg>
