<svg width="52" height="40" viewBox="0 0 52 40" fill="none" xmlns="http://www.w3.org/2000/svg">
<g opacity="0.08">
<path d="M19.5008 0H4.87519C2.18673 0 0 2.19301 0 4.8892V19.5568C0 22.253 2.18673 24.446 4.87519 24.446H11.4354L8.96832 37.1732C8.87589 37.652 9.00082 38.146 9.30958 38.5208C9.61834 38.8956 10.0774 39.1136 10.5629 39.1136H15.8281C17.2409 39.1136 18.4973 38.1867 18.9249 36.8442L23.6558 25.5909C23.6833 25.5267 23.7056 25.4605 23.7239 25.3933C24.1576 23.8318 24.376 22.2174 24.376 20.5947V4.8892C24.376 2.19301 22.1892 0 19.5008 0Z" fill="#343434"/>
<path d="M47.1268 0H32.5013C29.8128 0 27.6261 2.19301 27.6261 4.8892V19.5568C27.6261 22.253 29.8128 24.446 32.5013 24.446H39.0614L36.5934 37.1732C36.4999 37.652 36.6249 38.146 36.9346 38.5208C37.2424 38.8967 37.7025 39.1136 38.188 39.1136H43.4532C44.867 39.1136 46.1223 38.1867 46.5489 36.8432L51.2799 25.5899C51.3073 25.5257 51.3286 25.4595 51.3479 25.3923C51.7816 23.8298 52 22.2143 52 20.5937V4.8892C52.002 2.19301 49.8153 0 47.1268 0Z" fill="#343434"/>
</g>
</svg>
