<svg width="285" height="43" viewBox="0 0 285 43" fill="none" xmlns="http://www.w3.org/2000/svg">
<path d="M4.52279 18.0848L21.8667 0.653825H27.9757L11.0644 17.4702C9.87148 18.6602 9.81904 20.5824 10.9465 21.8378L28.5919 41.2956H22.3649L5.68954 22.6485L4.52279 23.8123V41.2956H0V0.653825H4.52279V18.0848Z" fill="#E7DDD1"/>
<path d="M44.0874 0.653825V41.2956H39.5646V0.653825H44.0874Z" fill="#E7DDD1"/>
<path d="M60.684 0.653825H64.1712C68.2614 0.653825 74.0689 1.08535 79.1947 5.40059C82.9178 8.5128 86.1559 13.6911 86.1559 21.0009C86.1559 29.5267 81.9477 34.1035 79.0112 36.6011C75.2881 39.7656 71.3814 41.2956 64.1056 41.2956H60.684V0.653825ZM65.2068 37.0326H64.3547C67.5928 37.0326 72.05 36.6665 76.0222 33.3712C79.0767 30.8082 81.5151 26.7937 81.5151 21.0009C81.5151 11.2589 74.6719 4.91676 64.3547 4.91676H65.2068V37.0326Z" fill="#E7DDD1"/>
<path d="M117.54 8.69587C116.989 7.59745 116.072 6.38133 115.154 5.64905C114.354 5.03445 112.899 4.24986 110.579 4.24986C106.541 4.24986 103.736 6.74747 103.736 10.5266C103.736 12.1088 104.168 13.0242 105.256 14.0572C106.476 15.2734 108.009 15.9403 109.53 16.6202L113.437 18.3202C115.823 19.3532 118.012 20.4516 119.729 22.1647C121.801 24.2308 122.666 26.6107 122.666 29.5398C122.666 37.0326 117.107 42.0279 109.779 42.0279C107.092 42.0279 103.736 41.4787 100.917 38.7326C98.8983 36.7842 97.6791 33.9858 97.1285 31.5405L101.52 30.3244C101.822 32.4559 102.805 34.2866 103.959 35.5027C105.728 37.268 107.747 37.7519 109.819 37.7519C115.377 37.7519 117.999 33.7897 117.999 29.7098C117.999 27.8791 117.448 26.2968 115.98 24.963C114.813 23.8646 113.227 23.1323 111.09 22.1647L107.42 20.4647C105.833 19.7324 103.814 18.8825 101.979 17.1171C100.209 15.4172 99.1736 13.5211 99.1736 10.4743C99.1736 4.19756 103.998 0 110.592 0C113.096 0 115.115 0.483831 117.134 1.83071C118.785 2.92914 120.188 4.57678 121.106 6.3421L117.501 8.72203L117.54 8.69587Z" fill="#E7DDD1"/>
<path d="M139.577 0.653825C141.832 0.653825 145.935 0.836896 148.924 3.21682C150.209 4.18448 152.595 6.69517 152.595 11.625C152.595 13.6388 152.162 17.1694 148.57 19.6017C154.247 21.0009 156.331 25.9307 156.331 29.8406C156.331 33.7505 154.378 36.9019 152.175 38.6149C148.937 41.1779 145.214 41.2956 142.409 41.2956H135.893V0.653825H139.603H139.577ZM140.39 18.5032H140.193C142.579 18.5032 148.19 18.0194 148.19 11.7427C148.19 5.03445 141.596 4.91676 140.311 4.91676H140.39V18.5032ZM140.39 37.0326H141.963C144.585 37.0326 147.155 36.8496 149.108 35.3327C150.694 34.1689 151.795 32.1682 151.795 29.7229C151.795 26.493 149.908 24.61 148.308 23.7469C146.787 22.897 144.637 22.5308 141.413 22.5308H140.39V37.0326Z" fill="#E7DDD1"/>
<path d="M191.976 29.8406C186.863 34.6527 181.056 34.9666 174.632 29.8406L169.742 41.2956H164.734L180.794 2.43223C181.816 0.104612 185.12 0.130765 186.129 2.45838L201.756 41.3087H196.748L191.989 29.8537L191.976 29.8406ZM190.206 25.5776L183.363 6.90439L176.402 25.5776C181.2 30.0367 185.801 29.906 190.206 25.5776Z" fill="#E7DDD1"/>
<path d="M218.903 0.653825C221.656 0.653825 225.746 0.836896 228.801 2.90298C231.187 4.48524 233.258 7.59745 233.258 11.9258C233.258 18.1371 229.168 22.7139 222.993 23.1323L235.945 41.2825H230.452L218.051 23.4985H216.884V41.2825H212.361V0.653825H218.903ZM216.897 19.484H219.768C225.392 19.484 228.748 16.8033 228.748 12.0565C228.748 9.80737 228.08 7.54514 225.51 6.08057C223.675 5.04753 221.604 4.91676 219.65 4.91676H216.897V19.484Z" fill="#E7DDD1"/>
<path d="M247.914 41.2956V3.04682C247.914 0.771513 250.733 -0.300759 252.241 1.39919L279.666 34.5612V0.653825H284.189V39.321C284.189 41.5571 281.449 42.6555 279.902 41.0341L252.437 7.50591V41.2825H247.914V41.2956Z" fill="#E7DDD1"/>
</svg>
