<svg width="1920" height="24" viewBox="0 0 1920 24" fill="none" xmlns="http://www.w3.org/2000/svg">
<path d="M240 0H120V23.33H240V0Z" fill="#85D2C5"/>
<path d="M480 0H360V23.33H480V0Z" fill="#85D2C5"/>
<path d="M720 0H600V23.33H720V0Z" fill="#85D2C5"/>
<path d="M960 0H840V23.33H960V0Z" fill="#85D2C5"/>
<path d="M120 0H0V23.33H120V0Z" fill="#A9C182"/>
<path d="M360 0H240V23.33H360V0Z" fill="#A9C182"/>
<path d="M600 0H480V23.33H600V0Z" fill="#A9C182"/>
<path d="M840 0H720V23.33H840V0Z" fill="#A9C182"/>
<path d="M1080 0H960V23.33H1080V0Z" fill="#A9C182"/>
<path d="M1200 0H1080V23.33H1200V0Z" fill="#85D2C5"/>
<path d="M1440 0H1320V23.33H1440V0Z" fill="#85D2C5"/>
<path d="M1680 0H1560V23.33H1680V0Z" fill="#85D2C5"/>
<path d="M1920 0H1800V23.33H1920V0Z" fill="#85D2C5"/>
<path d="M1320 0H1200V23.33H1320V0Z" fill="#A9C182"/>
<path d="M1560 0H1440V23.33H1560V0Z" fill="#A9C182"/>
<path d="M1800 0H1680V23.33H1800V0Z" fill="#A9C182"/>
</svg>
