<svg width="52" height="40" viewBox="0 0 52 40" fill="none" xmlns="http://www.w3.org/2000/svg">
<path opacity="0.08" d="M47.125 38.6138H32.499C30.0882 38.6137 28.124 36.6455 28.124 34.2241L28.124 18.519C28.124 16.9413 28.3363 15.3716 28.7578 13.854L28.7588 13.8521C28.7718 13.804 28.7865 13.7595 28.8037 13.7192L28.8047 13.7163L33.5361 2.46338L33.5449 2.44287L33.5518 2.42139C33.9138 1.28464 34.9785 0.500492 36.1719 0.500488H41.4375C41.7725 0.500611 42.0904 0.650479 42.3047 0.910645C42.518 1.1696 42.6051 1.51211 42.541 1.84521L40.0742 14.5728L39.958 15.1675H47.125C49.5359 15.1676 51.5 17.1358 51.5 19.5571V34.2241C51.5 36.6455 49.5359 38.6137 47.125 38.6138ZM19.499 38.6138H4.87305C2.46211 38.6137 0.49826 36.646 0.5 34.2251V18.52C0.500002 16.9459 0.712145 15.3771 1.13281 13.8599C1.1495 13.8017 1.16388 13.7572 1.17969 13.7202L1.18066 13.7173L5.91211 2.46436L5.9209 2.44385L5.92773 2.42236C6.2889 1.28487 7.35261 0.500488 8.54688 0.500488H13.8125C14.1485 0.500628 14.4664 0.650405 14.6787 0.909668L14.6797 0.911621L14.7539 1.01221C14.8904 1.22098 14.9542 1.46994 14.9336 1.72021L14.916 1.84521L12.4473 14.5728L12.332 15.1675H19.499C21.9099 15.1676 23.874 17.1358 23.874 19.5571L23.874 34.2241C23.874 36.5698 22.0307 38.4901 19.7236 38.6079L19.499 38.6138Z" fill="#343434" stroke="black"/>
</svg>
